<?xml version="1.0" standalone="no"?>
<!DOCTYPE svg PUBLIC "-//W3C//DTD SVG 1.1//EN" "http://www.w3.org/Graphics/SVG/1.1/DTD/svg11.dtd" >
<svg xmlns="http://www.w3.org/2000/svg">
<metadata></metadata>
<defs>
<font id="stokelight" horiz-adv-x="0" >
<font-face units-per-em="2048" ascent="1638" descent="-410" />
<missing-glyph horiz-adv-x="550" />
<glyph horiz-adv-x="2048" />
<glyph horiz-adv-x="2048" />
<glyph unicode="&#xd;" />
<glyph />
<glyph />
<glyph />
<glyph />
<glyph />
<glyph />
<glyph />
<glyph />
<glyph unicode="&#x9;" />
<glyph />
<glyph />
<glyph />
<glyph />
<glyph />
<glyph />
<glyph />
<glyph />
<glyph />
<glyph />
<glyph unicode=" "  horiz-adv-x="550" />
<glyph unicode="&#x09;" horiz-adv-x="550" />
<glyph unicode="&#xa0;" horiz-adv-x="550" />
<glyph unicode="!" horiz-adv-x="670" d="M170 1527q0 34 36 34l130 -8l128 8q36 0 36 -34q0 -23 -9 -70.5t-17 -99.5q-24 -172 -35 -264q-39 -313 -51 -437t-21 -156.5t-32 -32.5t-32.5 32.5t-15.5 98.5t-15 145q-27 235 -37 319l-20 154q-19 150 -29 199q-16 86 -16 112zM195 114q0 25 10.5 50.5t29.5 45.5 q42 43 90.5 43t74.5 -13t43 -34q34 -42 34 -84.5t-11.5 -67t-31.5 -42.5q-40 -36 -87.5 -36t-74 13t-44 32.5t-25.5 43.5t-8 49z" />
<glyph unicode="&#x22;" horiz-adv-x="856" d="M91 1434.5q0 30.5 10 54t28 39.5q36 33 89.5 33t88.5 -33t35 -78q0 -68 -12 -119q-49 -216 -63 -279l-26 -125h-62q-9 58 -19 115q-24 130 -34.5 182.5t-17.5 89.5q-17 90 -17 120.5zM510 1434.5q0 30.5 10 54t28 39.5q36 33 89.5 33t88.5 -33t35 -78q0 -68 -12 -119 q-49 -216 -63 -279l-26 -125h-62q-9 58 -19 115q-24 130 -34.5 182.5t-17.5 89.5q-17 90 -17 120.5z" />
<glyph unicode="#" horiz-adv-x="1526" d="M100 573q0 33 25.5 50t57.5 17h248l66 281h-226q-32 0 -56.5 18.5t-24.5 51.5t25.5 50t57.5 17h256l87 367q27 114 66 131q13 5 32 5t38 -16t19 -32t-1 -25.5t-2 -21.5q-4 -30 -9 -49l-83 -359h343l87 367q27 114 66 131q13 5 32 5t38 -16t19 -32t-1 -25.5t-2 -21.5 q-4 -30 -9 -49l-83 -359h177q32 0 57.5 -17t25.5 -50t-24.5 -51.5t-56.5 -18.5h-211l-66 -281h175q32 0 57.5 -17t25.5 -50t-24.5 -51.5t-56.5 -18.5h-209l-106 -459q-6 -27 -26.5 -47.5t-52 -20.5t-48 20.5t-16.5 35.5t0.5 21.5t2.5 18.5q4 24 19 87l80 344h-343l-106 -459 q-6 -27 -26.5 -47.5t-52 -20.5t-48 20.5t-16.5 35.5t0.5 21.5t2.5 18.5q4 24 19 87l80 344h-218q-32 0 -56.5 18.5t-24.5 51.5zM578 640h343l66 281h-343z" />
<glyph unicode="$" horiz-adv-x="1447" d="M203 1138q0 160 115 274q130 129 359 146v190q0 75 46 75q51 0 51 -74v-189q124 -3 222 -36l28 -10q22 -7 32 -7q25 0 46 29q35 48 49 48q25 0 26.5 -37t4.5 -64t8 -59q11 -61 26 -120q24 -101 24 -138.5t-25 -37.5q-18 0 -42 53q-128 264 -399 283v-554 q425 -101 509 -330q27 -73 27 -164.5t-36.5 -171.5t-105.5 -138q-145 -120 -394 -128v-191q0 -72 -46 -72q-51 0 -51 75v189q-216 13 -466 146v345q0 115 36 115q23 0 32 -56q32 -294 236 -403q70 -38 162 -48v599q-247 60 -368 190q-106 114 -106 271zM383 1233.5 q0 -44.5 12.5 -86t44.5 -79.5q70 -80 237 -132v526q-212 -18 -275 -144q-19 -40 -19 -84.5zM774 75q348 11 348 269q0 214 -348 309v-578z" />
<glyph unicode="%" horiz-adv-x="1890" d="M130 1207q0 146 109 249q110 105 267 105q170 0 274 -99q100 -97 100 -243q0 -167 -112 -269q-105 -96 -276 -96q-89 0 -161.5 32.5t-116.5 83.5q-84 97 -84 237zM319 1257.5q0 -63.5 20 -124.5t52.5 -106t74.5 -70.5t77.5 -25.5t61 10.5t45.5 34.5q42 52 42 145.5 t-18.5 156t-49.5 108.5q-66 96 -152 96q-105 0 -141 -120q-12 -41 -12 -104.5zM325 21.5q0 16.5 2.5 27t9 24t19.5 31.5l1066 1369q53 73 86 84q11 4 29.5 4t35 -14t16.5 -33q0 -37 -46 -97l-1068 -1373q-45 -57 -64 -62.5t-38 -5.5t-33.5 14.5t-14.5 31zM1010 335 q0 66 29 130.5t80 112.5q110 105 267 105q170 0 274 -99q100 -97 100 -243q0 -167 -112 -269q-105 -96 -260 -96q-194 0 -294 116q-84 97 -84 243zM1199 379.5q0 -63.5 20 -124.5t53 -106q69 -96 160 -96q140 0 140 210q0 145 -68 245q-66 96 -152 96q-105 0 -141 -120 q-12 -41 -12 -104.5z" />
<glyph unicode="&#x26;" horiz-adv-x="1803" d="M130 368q0 148 86 249q88 103 293 194q-163 177 -189 311q-8 44 -8 101t28 120t84 111q121 107 335 107q186 0 292 -87q98 -82 98 -213q0 -272 -364 -427q76 -81 178 -177l231 -218q164 234 164 381q0 54 -71 54q-27 0 -37 -4q-16 -5 -29 -5q-33 0 -33 28q0 17 22 30.5 t76 13.5l193 -14q34 0 64 5q52 9 83.5 9t51.5 -13.5t20 -31.5q0 -28 -32 -28l-49 7q-83 0 -141 -121q-110 -230 -213 -376l283 -275q33 -33 94 -33l50 8q33 0 33 -25q0 -52 -103 -52l-141 8q-12 0 -26 -1t-27 -2q-54 -4 -70 1t-32 16q-35 23 -97 83l-104 102 q-219 -223 -497 -223q-226 0 -364 113q-132 109 -132 274zM372 410q0 -157 82.5 -243t228.5 -86q176 0 371 191l-483 474q-104 -62 -157 -166q-42 -85 -42 -170zM522 1293q0 -88 30 -148q50 -99 172 -242q110 60 165 157q41 73 41 143t-20 124.5t-50 90.5q-59 68 -141 68 q-88 0 -143 -54q-54 -52 -54 -139z" />
<glyph unicode="'" horiz-adv-x="512" d="M130 1434.5q0 30.5 10 54t28 39.5q36 33 89.5 33t88.5 -33t35 -78q0 -68 -12 -119q-49 -216 -63 -279l-26 -125h-62q-9 58 -19 115q-24 130 -34.5 182.5t-17.5 89.5q-17 90 -17 120.5z" />
<glyph unicode="(" horiz-adv-x="836" d="M140 715q0 475 178 749q82 125 188.5 188t223.5 63q51 0 78.5 -13t27.5 -30q0 -24 -28 -24l-60 5q-160 0 -258 -217q-110 -246 -110 -721t110 -721q98 -217 258 -217l60 5q28 0 28 -24q0 -17 -27.5 -30t-78.5 -13q-117 0 -223.5 63t-188.5 188q-178 274 -178 749z" />
<glyph unicode=")" horiz-adv-x="836" d="M0 -242q0 -17 27.5 -30t78.5 -13q117 0 223.5 63t188.5 188q178 274 178 749t-178 749q-82 125 -188.5 188t-223.5 63q-51 0 -78.5 -13t-27.5 -30q0 -24 28 -24l60 5q160 0 258 -217q110 -246 110 -721t-110 -721q-98 -217 -258 -217l-60 5q-28 0 -28 -24z" />
<glyph unicode="*" horiz-adv-x="1045" d="M130 1228q0 76 58 106q17 8 37.5 8t40 -8t37.5 -20.5t35 -26.5l31 -26q53 -40 117 -74q-6 78 -25 135q-38 109 -38 149t30 65t72.5 25t72 -23.5t29.5 -63.5t-12 -71l-25 -66q-26 -65 -37 -155q75 34 113 64.5t57 44t35 22.5q30 17 55.5 17t43.5 -9.5t31 -24.5 q27 -35 27 -78.5t-30.5 -69t-81.5 -25.5l-102 4q-68 0 -126 -10q53 -59 96 -88q83 -55 111 -89q19 -28 18.5 -54.5t-11 -46t-26.5 -33.5q-33 -27 -63.5 -27t-47 7.5t-30.5 24.5q-26 34 -38 83.5t-18.5 68.5t-14.5 39.5t-17 39.5l-17 36q-35 -64 -53 -123.5t-31 -89.5 t-27 -47q-24 -30 -56.5 -30t-52.5 7.5t-35 20.5q-34 30 -34 65t13 55.5t32.5 37t41.5 30.5l40 25q48 32 108 92q-70 14 -121 13t-84 -0.5t-62 9.5q-66 21 -66 85z" />
<glyph unicode="+" horiz-adv-x="1285" d="M150 575v137h422v434h141v-434h422v-137h-422v-434h-141v434h-422z" />
<glyph unicode="," horiz-adv-x="512" d="M90 70q0 96 86 132q28 12 63 12q85 0 133.5 -59.5t48.5 -174.5q0 -128 -93 -250q-94 -122 -194 -122q-40 0 -40 39q0 29 41 47.5t68 39.5t45 44q35 43 33 76.5t-16 49t-65 30.5q-110 34 -110 136z" />
<glyph unicode="-" horiz-adv-x="875" d="M140 622q0 68 73 68h449q73 0 73 -68q0 -32 -19.5 -50.5t-51.5 -18.5h-453q-32 0 -51.5 18.5t-19.5 50.5z" />
<glyph unicode="." horiz-adv-x="512" d="M92 136q0 29 12 59t34 53q48 50 121 50q76 0 121 -56q39 -49 39 -113q0 -56 -45 -102q-49 -51 -105.5 -51t-87 15t-50.5 38t-29.5 50.5t-9.5 56.5z" />
<glyph unicode="/" horiz-adv-x="1008" d="M100 -229q0 15 1 22t5 19l10 34q7 20 19 52l608 1669q44 114 83 131q14 5 34 5t34 -15.5t14 -33.5q0 -39 -22 -95l-646 -1776q-26 -68 -68 -68t-57 20.5t-15 35.5z" />
<glyph unicode="0" horiz-adv-x="1529" d="M140 786q0 144 43 291.5t125 254.5q174 229 468 229q286 0 455 -228q158 -213 158 -515q0 -404 -181 -631q-165 -207 -428 -207q-259 0 -448 216q-192 222 -192 590zM375 954q0 -221 39 -376t104 -263t149.5 -165t159.5 -57t130 31t98 100q95 151 95 443q0 349 -124 567 q-122 218 -314 218q-150 0 -242 -136q-95 -141 -95 -362z" />
<glyph unicode="1" horiz-adv-x="930" d="M130 1314q0 18 29.5 32t64.5 26.5t79 30t86 37.5q94 43 136 74q65 47 83.5 47t18.5 -27.5t-3 -52t-5 -58.5q-5 -85 -5 -185v-917q0 -124 14 -162.5t24 -56.5q21 -36 78 -36l64 7q33 0 33 -27q0 -16 -18.5 -31t-58.5 -15q-58 0 -95.5 4.5t-53.5 6t-33 2.5q-36 2 -65 2 q-78 0 -106.5 -4.5t-44.5 -6t-34 -2.5q-115 -6 -142 11t-27 31q0 32 33 32l94 -10q57 0 78 36q31 55 34.5 116t3.5 103v737q0 127 -21 186t-76 59l-137 -14q-28 0 -28 25z" />
<glyph unicode="2" horiz-adv-x="1380" d="M160 57q0 37 19 99t70 138q102 153 375 392q182 160 250 265q72 112 72 245q0 118 -77 188q-78 70 -208 70q-135 0 -241 -91t-142 -235q-4 -18 -16 -36.5t-25 -18.5q-33 0 -33 43v276q110 90 198 120q143 49 280.5 49t230 -25t157.5 -72q136 -97 136 -268 q0 -135 -97 -262q-101 -133 -344 -316q-350 -266 -430 -431h386q295 0 453 171q30 33 48 33t18 -21.5t-22 -69.5t-35 -79t-24 -63q-18 -53 -43 -158h-915q-17 0 -29 10t-12 47z" />
<glyph unicode="3" horiz-adv-x="1355" d="M190 110v297q0 43 23 43q24 0 39.5 -66.5t57.5 -125t98 -97.5q111 -77 256 -77q133 0 232 84q106 90 106 230q0 158 -126 276q-120 115 -269 115q-35 0 -53 -6q-37 -13 -56 -13q-35 0 -35 28q0 39 122 76q172 50 251.5 128.5t79.5 195.5q0 114 -81.5 188t-209.5 74 q-200 0 -300 -158q-34 -53 -47 -106t-21 -63.5t-19 -10.5q-23 0 -23 43v263q199 133 452 133q218 0 344 -87q127 -89 127 -245q0 -98 -84 -195t-213 -151q160 -25 264 -131q110 -112 110 -279q0 -141 -87 -261q-77 -108 -211 -174q-127 -62 -260 -62q-274 0 -467 134z" />
<glyph unicode="4" horiz-adv-x="1445" d="M80 499q0 27 51 89l754 919q53 63 74 63q29 0 29 -62v-917h142q105 0 169 33q20 11 37 22q28 17 39 17q20 0 20 -20q0 -11 -21 -44q-49 -74 -68 -170q-8 -40 -23 -40q-10 0 -21.5 13.5t-29.5 23.5t-48 18q-69 18 -185 18h-11v-141q0 -124 14 -162.5t24 -56.5 q21 -36 78 -36l64 7q33 0 33 -27q0 -16 -18.5 -31t-58.5 -15q-58 0 -95.5 4.5t-53.5 6t-33 2.5q-36 2 -65 2q-78 0 -106.5 -4.5t-44.5 -6t-34 -2.5q-115 -6 -142 11t-27 31q0 32 33 32l94 -10q57 0 78 36q31 55 34.5 116t3.5 103v141h-600q-86 0 -86 37zM286 606.5 q0 -15.5 45 -15.5h435v618l-451 -553q-29 -34 -29 -49.5z" />
<glyph unicode="5" horiz-adv-x="1364" d="M160 110v297q0 43 23 43q18 0 42.5 -62t67.5 -119t100 -98q121 -87 277 -87q215 0 300 186q32 71 32 174.5t-33 191t-90 152.5q-124 141 -300 141q-153 0 -256 -95q-36 -34 -50 -34q-28 0 -28 41v636q5 36 41 36h310q194 0 259 13q106 21 159 70q37 33 47 33q20 0 20 -21 q0 -19 -23 -77q-46 -120 -57 -205h-663v-359q128 66 292 66t269 -41.5t177 -113.5q148 -146 148 -374q0 -248 -197 -395q-178 -133 -410 -133q-176 0 -349 74q-59 25 -108 60z" />
<glyph unicode="6" horiz-adv-x="1459" d="M160 771q0 325 196 557q126 148 300 204q87 29 172.5 29t144 -13t102 -34.5t73.5 -49t48.5 -56.5t27 -58t8.5 -60t-27 -31q-26 0 -47 41q-85 165 -308 165q-196 0 -321 -182q-130 -190 -138 -521q85 179 289 239q69 20 161.5 20t182.5 -34t156 -95q139 -130 139 -332 q0 -276 -183 -438q-163 -146 -368 -146q-278 0 -442 208q-166 213 -166 587zM409 524q41 -204 159 -322q112 -112 260 -112q120 0 196 96q74 94 74 225t-31 222t-81 153q-101 125 -231 125q-133 0 -225 -103q-91 -103 -121 -284z" />
<glyph unicode="7" horiz-adv-x="1175" d="M70 1182.5q0 22.5 9.5 55t23.5 76.5q36 114 47.5 178.5t20 74t17.5 9.5q17 0 35 -22.5t24.5 -27t18.5 -7.5q24 -6 81 -6h740q32 0 45 -2.5t13 -14.5t-8 -29l-19 -42q-197 -441 -281 -691q-138 -413 -186 -700q-5 -34 -36 -34l-111 8l-107 -8q-20 0 -30 10t-4 34t32 91.5 t67 160.5l94 208l118 248l136 277l152 297h-578q-146 0 -261 -143q-18 -23 -35.5 -23t-17.5 22.5z" />
<glyph unicode="8" horiz-adv-x="1468" d="M130 414q0 141 100 256q97 110 239 151q-251 152 -251 368q0 145 135 253q148 119 385 119q233 0 380 -109q137 -101 137 -247q0 -179 -149 -307q-46 -39 -99 -65q331 -165 331 -402q0 -186 -162 -317q-171 -138 -436 -138q-308 0 -471 140q-139 119 -139 298zM336 428.5 q0 -69.5 34 -136t94 -116.5q134 -110 329 -110q140 0 230 74q91 76 91 198q0 177 -294 318q-82 39 -134 60.5t-71 29.5l-36 17q-168 -49 -224 -211q-19 -54 -19 -123.5zM439 1266q0 -37 16.5 -80t60.5 -91q107 -115 329 -194l54 -21q120 70 151 214q8 41 8 91t-26 105 t-73 95q-100 85 -263 85q-190 0 -242 -128q-15 -39 -15 -76z" />
<glyph unicode="9" horiz-adv-x="1445" d="M140 1035q0 238 162 387q152 140 373 140q282 0 447 -203q163 -200 163 -534q0 -373 -179 -607q-184 -242 -489 -242q-194 0 -312 96q-97 78 -97 168q0 38 28 38t45 -39.5t49 -70t76 -52.5q90 -44 192.5 -44t180 40t135.5 122q127 179 135 504q-105 -154 -286 -201 q-62 -16 -146 -16t-173.5 37.5t-157.5 105.5q-146 148 -146 371zM368 1115.5q0 -94.5 35 -183.5t88 -151.5t115.5 -96t123 -33.5t110.5 16t88 48q71 60 116 195q-25 257 -138 410q-108 146 -256 146q-203 0 -263 -194q-19 -62 -19 -156.5z" />
<glyph unicode=":" horiz-adv-x="512" d="M92 136q0 29 12 59t34 53q48 50 121 50q76 0 121 -56q39 -49 39 -113q0 -56 -45 -102q-49 -51 -105.5 -51t-87 15t-50.5 38t-29.5 50.5t-9.5 56.5zM92 806q0 29 12 59t34 53q48 50 121 50q76 0 121 -56q39 -49 39 -113q0 -56 -45 -102q-49 -51 -105.5 -51t-87 15 t-50.5 38t-29.5 50.5t-9.5 56.5z" />
<glyph unicode=";" horiz-adv-x="512" d="M91 70q0 96 86 132q28 12 63 12q85 0 133.5 -59.5t48.5 -174.5q0 -128 -93 -250q-94 -122 -194 -122q-40 0 -40 39q0 29 41 47.5t68 39.5t45 44q35 43 33 76.5t-16 49t-65 30.5q-110 34 -110 136zM91 636q0 29 12 59t34 53q48 50 121 50q76 0 121 -56q39 -49 39 -113 q0 -56 -45 -102q-49 -51 -105.5 -51t-87 15t-50.5 38t-29.5 50.5t-9.5 56.5z" />
<glyph unicode="&#x3c;" horiz-adv-x="939" d="M100 514v60l689 418v-163l-464 -282l464 -287v-169z" />
<glyph unicode="=" horiz-adv-x="1285" d="M150 387v137h985v-137h-985zM150 717v137h985v-137h-985z" />
<glyph unicode="&#x3e;" horiz-adv-x="939" d="M150 91l689 423v60l-689 418v-163l464 -282l-464 -287v-169z" />
<glyph unicode="?" horiz-adv-x="1034" d="M130 1185v276q180 100 379 100q211 0 324 -85q101 -77 101 -206q0 -167 -160 -323q-56 -54 -136 -120q-176 -144 -176 -239q0 -20 16.5 -34t39 -18t37 -13t14.5 -33q0 -47 -64 -47q-49 0 -78 28q-53 51 -53 121q0 144 187 361q139 164 139 306q0 194 -217 194 q-97 0 -171 -63.5t-107 -192.5q-4 -18 -16 -36.5t-26 -18.5q-33 0 -33 43zM348 114q0 25 10.5 50.5t29.5 45.5q42 43 90.5 43t74.5 -13t43 -34q34 -42 34 -84.5t-11.5 -67t-30.5 -42.5q-41 -36 -88.5 -36t-74 13t-44 32.5t-25.5 43.5t-8 49z" />
<glyph unicode="@" horiz-adv-x="2325" d="M132 120q0 314 178 598.5t486 455.5q325 182 718 182q319 0 506 -143q195 -150 195 -420q0 -184 -104 -363q-95 -163 -247 -272q-148 -106 -285 -106q-10 0 -21 -8l-24 -18q-34 -25 -49 -24q-53 6 -82 4l-41 -3q-27 -3 -59 -3q-72 0 -52 116q-145 -140 -301 -140 q-168 0 -238 94q-50 65 -50 158.5t20.5 167.5t60 142t96 126t127.5 101q153 92 343 92q221 0 327 -115l-143 -627q-3 -15 0.5 -17t12.5 2l25 8q15 6 44.5 6t78.5 19.5t99 56.5t96 91.5t82 124.5q79 152 79 334q0 243 -152 378q-150 134 -414 134q-318 0 -576 -168 q-234 -152 -372 -406q-132 -244 -132 -496q0 -431 315 -555q112 -44 273 -44q145 0 272 61q119 59 119 117l-13 49q0 20 13 36t41.5 16t48.5 -19t20 -68t-42.5 -107.5t-116.5 -102.5q-161 -95 -396 -95q-319 0 -529 152q-237 171 -237 498zM919 262q0 -86 19 -119 q34 -57 98 -57q89 0 191 104q30 30 56 65l105 448q-47 59 -123 59q-114 0 -227 -148q-119 -156 -119 -352z" />
<glyph unicode="A" horiz-adv-x="1707" d="M-27 45q0 28 33 28l49 -7q46 0 75 38q55 70 137 251q511 1108 527.5 1141t27.5 49q17 25 35 25t35 -24q26 -40 73 -142l521 -1139q74 -162 130 -190q18 -9 37 -9l49 8q33 0 33 -29q0 -45 -80 -45l-194 15l-245 -15q-51 0 -72.5 15t-21.5 30q0 28 32 28l71 -10 q29 0 42 8.5t13 26.5t-2 31t-6 29q-9 30 -33 82l-77 161q-15 32 -32 42q-28 17 -80 17h-517q-74 0 -98 -36q-8 -12 -15 -29l-49 -116q-55 -132 -55 -163q0 -50 77 -50l49 8q32 0 32 -29q0 -45 -95 -45q-56 0 -90 5q-68 10 -99 10l-140 -15q-40 0 -58.5 13.5t-18.5 31.5z M504 578q0 -31 113 -31h343q96 0 110 17q5 6 5 14t-7 26l-222 537q-39 96 -59 96q-16 0 -41 -61l-229 -553q-13 -29 -13 -45z" />
<glyph unicode="B" horiz-adv-x="1534" d="M98 46q0 27 33 27l64 -7q57 0 78 36q31 55 34.5 116t3.5 103v874q0 123 -14 162t-25 61q-24 44 -92 44l-49 -7q-33 0 -33 28q0 16 18.5 30.5t62.5 14.5t69 -2l48 -4q69 -8 125 -8q93 0 173 9q141 16 248 16t199 -26.5t153 -70.5q123 -89 123 -222q0 -168 -165 -276 q-53 -34 -119 -58q185 -42 301 -158q117 -117 117 -269q0 -209 -153 -341q-165 -142 -449 -142q-83 0 -175 15q-152 25 -219 25h-9q-66 -2 -85 -3q-42 -2 -63 -5q-63 -9 -105 -9q-57 0 -77 16q-18 15 -18 31zM531 231q0 -155 307 -155q259 0 341 205q28 70 28 164 t-33.5 164.5t-96 119.5t-152.5 74.5t-197 25.5t-197 -15v-583zM531 934q96 -20 195.5 -20t158.5 15.5t102 48.5q91 68 91 203q0 118 -82 192t-214 74t-191.5 -27.5t-59.5 -88.5v-397z" />
<glyph unicode="C" horiz-adv-x="1707" d="M149 729q0 366 233 603q146 147 350 202q100 27 183.5 27t133 -7.5t89.5 -18.5q62 -17 106 -35q65 -27 81 -27q32 0 64 32l43 43q28 28 41 28q25 0 25 -41.5t1.5 -71t5.5 -57.5q9 -65 25 -124l24 -93q10 -35 10 -58q0 -42 -24 -42q-20 0 -31 23q-83 160 -245 256 q-159 95 -330 95q-241 0 -404 -163q-166 -166 -166 -423q0 -168 54.5 -311.5t148 -249t218 -165t265.5 -59.5q236 0 370 206q49 76 77 187q7 26 14.5 42.5t26.5 16.5t19 -59v-283q-237 -225 -600 -225q-364 0 -590 219q-218 210 -218 533z" />
<glyph unicode="D" horiz-adv-x="1880" d="M100 46q0 27 33 27l64 -7q57 0 78 36q31 55 34.5 116t3.5 103v874q0 123 -14 162t-25 61q-24 44 -92 44l-49 -7q-33 0 -33 28q0 16 18.5 30.5t62.5 14.5t69 -2l48 -4q69 -8 135 -8q101 0 199 10q178 18 273 18q390 0 625 -210t235 -562q0 -342 -260 -570 q-256 -224 -633 -224q-83 0 -142 8l-107 15q-110 16 -157.5 16t-65.5 -0.5t-36 -1.5q-44 -2 -64 -5q-63 -9 -105 -9q-57 0 -77 16q-18 15 -18 31zM539 239q0 -90 65 -125q72 -38 242.5 -38t292.5 37t206 117q173 166 173 518q0 343 -184 523q-178 174 -486.5 174 t-308.5 -134v-1072z" />
<glyph unicode="E" horiz-adv-x="1367" d="M52 31q0 27 33 27l64 -7q57 0 78 35q38 67 38 235v874q0 123 -14 162t-25 61q-24 44 -92 44l-49 -7q-33 0 -33 28q0 16 18.5 30.5t62.5 14.5t69 -2l48 -4q78 -9 132 -9h812q8 -71 34 -157q46 -147 46 -171t-16 -24q-14 0 -29 18q-119 135 -146 157t-49 35.5t-48 23.5 q-54 20 -135 20h-267q-56 0 -76.5 -23.5t-20.5 -68.5v-424q0 -57 91 -57h245q72 0 131 70q20 25 29.5 47t15 30t14.5 8q26 0 25 -51l-7 -159l7 -156q0 -50 -25 -50q-14 0 -26.5 30t-33 56t-43.5 43q-46 35 -87 35h-246q-43 0 -66.5 -19.5t-23.5 -47.5v-442q0 -139 97 -139 h207q243 0 398 135q28 25 53 50l49 50q36 36 57 36t21 -14q0 -27 -28.5 -75t-45.5 -79.5t-31 -63t-26 -64.5l-25 -72h-820q-95 0 -128 -5q-66 -10 -121 -10t-73.5 15t-18.5 31z" />
<glyph unicode="F" horiz-adv-x="1363" d="M59 46q0 27 33 27l64 -7q57 0 78 36q31 55 34.5 116t3.5 103v874q0 123 -14 162t-26 61q-23 44 -91 44l-49 -7q-33 0 -33 28q0 16 18.5 30.5t62.5 14.5t69 -2l48 -4q24 -4 55 -5l50 -3q18 -1 34 -1h814q11 -80 36 -162q45 -141 45 -165.5t-16 -24.5t-30 18t-33 39 q-89 99 -114 119.5t-47 34t-49 23.5q-54 20 -135 20h-276q-46 0 -71.5 -29.5t-25.5 -82.5v-408q0 -57 91 -57h292q71 0 129 70q20 24 30 46.5t15.5 30.5t15.5 8q25 0 25 -51l-8 -160l8 -155q0 -50 -25 -50q-14 0 -27.5 30t-33.5 55.5t-42 42.5q-47 35 -87 35h-293 q-43 0 -66.5 -19t-23.5 -47v-353q0 -124 14 -162.5t24 -56.5q21 -36 78 -36l94 10q16 0 24.5 -9t8.5 -23t-23.5 -29t-56.5 -15t-51.5 0.5t-37.5 1.5q-28 2 -49.5 4.5t-37.5 4t-33 2.5q-36 2 -65 2q-78 0 -111 -5q-72 -11 -119 -11q-56 0 -75 16q-19 15 -19 31z" />
<glyph unicode="G" horiz-adv-x="1707" d="M118 729q0 359 223 595q143 151 355 208q106 29 208 29q176 0 312 -56q42 -16 57.5 -16t21 1t13.5 6q12 7 40 35l29 30q26 26 42 26q24 0 24 -37.5t4 -69.5t11 -65q14 -73 27 -118q23 -75 23 -116t-22 -41q-19 0 -32 22q-71 132 -222 212q-147 77 -300 77t-260 -41.5 t-182 -115.5q-158 -156 -158 -405q0 -358 225 -586q135 -137 315 -187q88 -25 160.5 -25t121 13t84.5 38q77 55 77 151v207q0 124 -14 162.5t-25 57.5q-20 35 -77 35l-74 -10q-16 0 -24.5 9t-8.5 23t18.5 29t51.5 15t50 -0.5t33.5 -1.5t30.5 -3l24 -2q48 -8 101 -8 q74 0 119 7.5t90.5 7.5t64 -15t18.5 -31q0 -28 -33 -28l-71 8q-55 0 -57 -175v-80v-301l-84 -45q-40 -21 -74.5 -46t-86.5 -51t-113 -44q-124 -36 -296 -36t-312.5 59.5t-239.5 161.5q-208 214 -208 531z" />
<glyph unicode="H" horiz-adv-x="1877" d="M90 46q0 27 33 27l64 -7q57 0 78 36q31 55 34.5 116t3.5 103v886q0 124 -14 162.5t-25 56.5q-20 36 -77 36l-64 -7q-33 0 -33 27q0 16 18.5 31t58.5 15q58 0 95.5 -4.5t53.5 -6t34 -2.5q34 -2 64 -2q78 0 111 5q66 10 121 10t73.5 -15t18.5 -31q0 -27 -33 -27l-64 7 q-57 0 -78 -36q-31 -55 -34.5 -116t-3.5 -103v-202q0 -28 17 -38q32 -18 93 -18h606q110 0 110 56v202q0 124 -14 162.5t-25 56.5q-20 36 -77 36l-64 -7q-33 0 -33 27q0 16 18.5 31t58.5 15q58 0 95.5 -4.5t53.5 -6t34 -2.5q34 -2 64 -2q78 0 111 5q66 10 121 10t73.5 -15 t18.5 -31q0 -27 -33 -27l-64 7q-57 0 -78 -36q-31 -55 -34.5 -116t-3.5 -103v-886q0 -124 14 -162.5t25 -56.5q20 -36 77 -36l64 7q33 0 33 -27q0 -16 -18.5 -31t-58.5 -15q-58 0 -95.5 4.5t-53.5 6t-34 2.5q-34 2 -64 2q-78 0 -111 -5q-72 -11 -119 -11q-57 0 -76 16 q-18 15 -18 31q0 27 33 27l64 -7q57 0 78 36q31 55 34.5 116t3.5 103v460q0 28 -26.5 48t-83.5 20h-606q-58 0 -84 -20t-26 -48v-460q0 -124 14 -162.5t25 -56.5q20 -36 77 -36l64 7q33 0 33 -27q0 -16 -18.5 -31t-58.5 -15q-58 0 -95.5 4.5t-53.5 6t-34 2.5q-34 2 -64 2 q-78 0 -111 -5q-72 -11 -119 -11q-57 0 -76 16q-18 15 -18 31z" />
<glyph unicode="I" horiz-adv-x="854" d="M103 46q0 27 33 27l64 -7q57 0 78 36q31 55 34.5 116t3.5 103v886q0 124 -14 162.5t-24 56.5q-21 36 -78 36l-64 -7q-33 0 -33 27q0 16 18.5 31t58.5 15q58 0 95.5 -4.5t53.5 -6t33 -2.5q36 -2 65 -2q78 0 111 5q66 10 121 10t73.5 -15t18.5 -31q0 -27 -33 -27l-64 7 q-57 0 -78 -36q-31 -55 -34.5 -116t-3.5 -103v-886q0 -124 14 -162.5t24 -56.5q21 -36 78 -36l64 7q33 0 33 -27q0 -16 -18.5 -31t-58.5 -15q-58 0 -95.5 4.5t-53.5 6t-33 2.5q-36 2 -65 2q-78 0 -111 -5q-72 -11 -119 -11q-56 0 -75 16q-19 15 -19 31z" />
<glyph unicode="J" horiz-adv-x="1363" d="M157 103v367q0 95 18 110q6 5 16.5 5t16.5 -12t26 -94.5t65 -170t97 -139.5q95 -94 226 -94q210 0 280 219q24 77 24 188v725q0 124 -14 162.5t-24 56.5q-21 36 -78 36l-64 -7q-33 0 -33 27q0 16 18.5 31t58.5 15q58 0 95.5 -4.5t53.5 -6t33 -2.5q36 -2 65 -2q78 0 111 5 q66 10 121 10t73.5 -15t18.5 -31q0 -27 -33 -27l-64 7q-57 0 -78 -36q-31 -55 -34.5 -116t-3.5 -103v-730q0 -240 -184 -377q-163 -123 -391 -123q-147 0 -306 67q-57 24 -110 59z" />
<glyph unicode="K" horiz-adv-x="1539" d="M92 46q0 27 33 27l64 -7q57 0 78 36q31 55 34.5 116t3.5 103v886q0 124 -14 162.5t-25 56.5q-20 36 -77 36l-64 -7q-33 0 -33 27q0 16 18.5 31t58.5 15q58 0 95.5 -4.5t53.5 -6t34 -2.5q34 -2 64 -2q78 0 111 5q66 10 121 10t73.5 -15t18.5 -31q0 -27 -33 -27l-64 7 q-57 0 -78 -36q-31 -55 -34.5 -116t-3.5 -103v-343q91 23 185 90q159 113 366 312q120 120 120 164q0 33 -47 33l-64 -8q-33 0 -33 27q0 16 19.5 31t57 15t59.5 -2l45 -4q67 -8 95 -8l154 14q51 0 68.5 -15t17.5 -31q0 -27 -33 -27l-64 7q-53 0 -179 -126 q-217 -206 -374.5 -336t-267.5 -179q206 -34 340 -132q153 -111 262 -330q106 -218 213 -289q30 -20 47 -20q22 0 33 4q39 12 47.5 0.5t8.5 -19.5q0 -47 -101 -47t-175.5 22t-138.5 72q-126 99 -233 330q-126 260 -307 316q-58 18 -121 22v-429q0 -124 14 -162.5t25 -56.5 q20 -36 77 -36l64 7q33 0 33 -27q0 -16 -18.5 -31t-58.5 -15q-58 0 -95.5 4.5t-53.5 6t-34 2.5q-34 2 -64 2q-78 0 -111 -5q-72 -11 -119 -11q-57 0 -76 16q-18 15 -18 31z" />
<glyph unicode="L" horiz-adv-x="1367" d="M84 31q0 27 33 27l64 -7q57 0 78 35q38 67 38 235v886q0 124 -14 162.5t-25 56.5q-20 36 -77 36l-64 -7q-33 0 -33 27q0 16 18.5 31t58.5 15q58 0 95.5 -4.5t53.5 -6t34 -2.5q34 -2 64 -2q78 0 111 5q66 10 121 10t73.5 -15t18.5 -31q0 -27 -33 -27l-64 7q-57 0 -78 -36 q-31 -55 -34.5 -116t-3.5 -103v-971q0 -139 97 -139h190q100 0 151 17q80 28 164 92l40 31q40 32 70 62l57 60q30 32 47.5 32t17.5 -22q0 -23 -21 -70l-36 -78q-32 -74 -67 -221h-754q-145 0 -178 -5q-66 -10 -121 -10t-73.5 15t-18.5 31z" />
<glyph unicode="M" horiz-adv-x="2048" d="M60 1503q0 25 53 25l310 -11l647 -1008l521 1003q136 0 187 6q85 10 138 10q89 0 89 -46q0 -28 -33 -28l-64 8q-58 0 -78 -36q-29 -55 -33.5 -116.5t-4.5 -106.5v-882q0 -124 14 -162.5t24 -56.5q21 -36 78 -36l64 7q33 0 33 -27q0 -16 -18.5 -31t-58.5 -15 q-58 0 -95.5 4.5t-53.5 6t-33 2.5q-36 2 -65 2q-78 0 -111 -5q-72 -11 -119 -11q-56 0 -75 16q-19 15 -19 31q0 27 33 27l64 -7q57 0 78 36q31 55 34.5 116t3.5 103v921l-513 -993q-28 -53 -56 -53q-14 0 -26 16.5t-37 55.5l-520 796v-743q0 -124 13.5 -162.5t24.5 -56.5 q20 -36 77 -36l64 7q33 0 33 -27q0 -16 -18.5 -31t-69.5 -15l-181 15q-27 0 -67 -5q-61 -9 -104 -9q-98 0 -98 45q0 27 33 27l64 -7q57 0 78 36q31 55 34.5 116t3.5 103l1 822q0 101 -68 196q-67 97 -143 130q-23 10 -29 17t-6 17z" />
<glyph unicode="N" horiz-adv-x="1876" d="M82 1506.5q0 21.5 53 21.5l309 -11l1040 -1099v782q0 124 -14 162.5t-24 57.5q-21 35 -78 35l-73 -7q-33 0 -33 27q0 16 19.5 31t70.5 15l188 -15q27 0 67 6q69 9 117 9t66.5 -15t18.5 -31q0 -27 -33 -27l-64 7q-57 0 -78 -36q-31 -55 -34.5 -116t-3.5 -103v-1019 q0 -121 22 -161q8 -14 22 -26q20 -17 20 -35q0 -24 -29 -24q-39 0 -106 73l-1053 1126v-813q0 -124 13.5 -162.5t24.5 -56.5q20 -36 77 -36l73 7q33 0 33 -27q0 -16 -19.5 -31t-70.5 -15l-188 15q-27 0 -67 -5q-61 -9 -104 -9q-98 0 -98 45q0 27 33 27l64 -7q57 0 78 36 q31 55 34.5 116t3.5 103l1 832q0 49 -25 102t-41 75t-35 42.5t-41 39.5q-50 42 -83 54q-53 19 -53 40.5z" />
<glyph unicode="O" horiz-adv-x="1880" d="M132 734q0 174 58 326.5t166 263.5q231 237 610 237q220 0 403 -109q175 -103 277 -280q102 -178 102 -386q0 -376 -245 -598q-232 -211 -574 -211q-361 0 -580 208q-217 207 -217 549zM340 889q0 -238 106 -429q98 -174 262 -273q159 -96 334 -96q202 0 333 141 q141 152 141 416q0 219 -94 410q-89 178 -242 286q-154 107 -325 107q-219 0 -365 -157q-150 -161 -150 -405z" />
<glyph unicode="P" horiz-adv-x="1539" d="M111 46q0 27 33 27l64 -7q57 0 78 36q31 55 34.5 116t3.5 103v874q0 123 -14 162t-26 61q-23 44 -91 44l-49 -7q-33 0 -33 28q0 16 18.5 30.5t62.5 14.5t69 -2l48 -4q69 -8 136 -8q90 0 149 8l81 11q73 10 188.5 10t221 -31.5t181.5 -88.5q160 -120 160 -314 q0 -250 -196 -393q-179 -131 -425 -131q-123 0 -259 40v-304q0 -124 14 -162.5t24 -56.5q21 -36 78 -36l94 10q16 0 24.5 -9t8.5 -23t-23.5 -29t-56.5 -15t-51.5 0.5t-37.5 1.5q-28 2 -49.5 4.5t-37.5 4t-33 2.5q-36 2 -65 2q-78 0 -111 -5q-72 -11 -119 -11q-56 0 -75 16 q-19 15 -19 31zM546 752q120 -68 280 -68q158 0 258 96q99 95 99 240q0 198 -128 315q-120 110 -307 110q-137 0 -186 -75q-16 -25 -16 -59v-559z" />
<glyph unicode="Q" horiz-adv-x="1880" d="M121 734q0 174 58 326.5t166 263.5q231 237 610 237q220 0 403 -109q175 -103 276 -280q103 -178 103 -386q0 -376 -245 -598q-232 -211 -574 -211q-361 0 -580 208q-217 207 -217 549zM329 889q0 -238 107 -429q97 -174 261 -273q159 -96 334 -96q202 0 333 141 q141 152 141 416q0 219 -95 410q-88 178 -242 286q-153 107 -324 107q-219 0 -366 -157q-149 -161 -149 -405zM678 -117q0 37 80 74q93 42 216.5 42t201.5 -19.5t139.5 -51t110.5 -70.5l93 -80q50 -45 95 -70t84 -25q65 0 94 17l38 22q10 5 21 5q29 0 29 -28q0 -37 -62 -65 q-66 -29 -158 -29t-160 13t-132 40q-131 54 -250 170q-62 60 -89 74q-49 26 -103 26q-106 0 -192 -70q-11 -9 -28 -9q-28 0 -28 34z" />
<glyph unicode="R" horiz-adv-x="1539" d="M77 46q0 27 33 27l64 -7q57 0 78 36q31 55 34.5 116t3.5 103v874q0 123 -14 162t-26 61q-23 44 -91 44l-49 -7q-33 0 -33 28q0 16 18.5 30.5t62.5 14.5t69 -2l48 -4q69 -8 121 -8t79.5 1t50.5 2.5t44 4t41.5 4.5t42.5 4.5t48 5.5q56 5 163 5t215 -33.5t179 -89.5 q142 -114 142 -285q0 -217 -163 -343q-148 -114 -369 -114h-35q97 -51 152 -113q84 -97 155.5 -220.5t110.5 -171.5t74 -75q60 -46 121 -46q16 0 33 6.5t23 6.5q27 0 27 -28q0 -20 -30.5 -33.5t-91.5 -13.5t-120 8.5t-109.5 30t-96 58.5t-92.5 95q-82 102 -211 326 q-73 126 -185 174q-37 16 -82 28v-387q0 -124 14 -162.5t24 -56.5q21 -36 78 -36l64 7q33 0 33 -27q0 -16 -18.5 -31t-58.5 -15q-58 0 -95.5 4.5t-53.5 6t-33 2.5q-36 2 -65 2q-78 0 -111 -5q-72 -11 -119 -11q-56 0 -75 16q-19 15 -19 31zM512 826q132 -68 318 -68 q136 0 226 78q102 89 102 238q0 153 -115 260q-120 111 -304 111q-188 0 -217 -75q-10 -25 -10 -59v-485z" />
<glyph unicode="S" horiz-adv-x="1539" d="M203 125v345q0 115 36 115q23 0 32 -56q22 -198 175 -327q152 -127 369 -127q286 0 371 153q28 51 28 108t-23 103.5t-76 88.5q-112 89 -355 142q-266 59 -402 190q-123 118 -123 278q0 171 141 290q158 133 421 133q147 0 261 -37l28 -10q22 -7 32 -7q25 0 46 29 q35 48 49 48q25 0 26.5 -37t4.5 -64t8.5 -58.5t13.5 -69t22 -94.5t14 -95t-25 -38q-18 0 -42 53q-137 284 -449 284q-166 0 -269 -67q-102 -65 -102 -165q0 -107 83 -181q98 -88 293 -133.5t307.5 -94t179.5 -108.5q124 -110 124 -294q0 -202 -162 -324q-162 -121 -430 -121 q-277 0 -491 95z" />
<glyph unicode="T" horiz-adv-x="1539" d="M53 1182q0 23 9.5 55.5t23.5 76.5q37 115 48 179t20 73.5t18 9.5q15 0 33.5 -23t25.5 -27.5t19 -7.5q20 -5 80 -5h978q61 0 93.5 21.5t44 31.5t23.5 10q25 0 25 -31q0 -11 -8 -29l-18 -42q-51 -120 -65 -179t-21 -90q-10 -49 -29 -49q-22 0 -26 27q-13 63 -41 110 t-70.5 69t-78 30t-78.5 13q-64 7 -188 10v-1094q0 -124 14 -162.5t25 -56.5q20 -36 77 -36l94 10q16 0 24.5 -9t8.5 -23t-23.5 -29t-56.5 -15t-51.5 0.5t-36.5 1.5q-29 2 -50.5 4.5t-37.5 4t-34 2.5q-34 2 -64 2q-78 0 -106.5 -4.5t-44.5 -6t-35 -2.5q-30 -2 -54 -2 q-67 0 -87 13q-27 17 -27 31q0 32 33 32l94 -10q57 0 78 36q31 55 34.5 116t3.5 103v1094h-73q-63 0 -123 -13l-79 -16q-111 -25 -222 -150l-45 -53q-20 -24 -37 -24t-17 23z" />
<glyph unicode="U" horiz-adv-x="1874" d="M67 1482q0 16 18.5 31t58.5 15q58 0 95.5 -4.5t53.5 -6t33 -2.5q36 -2 65 -2q78 0 111 5q66 10 121 10t73.5 -15t18.5 -31q0 -27 -33 -27l-64 7q-57 0 -78 -36q-31 -55 -34.5 -116t-3.5 -103v-702q0 -201 120 -317q117 -113 326.5 -113t384.5 149v983q0 124 -14 162.5 t-25 56.5q-20 36 -77 36l-64 -7q-33 0 -33 27q0 16 18.5 31t58.5 15q58 0 95.5 -4.5t53.5 -6t34 -2.5q34 -2 64 -2q78 0 111 5q66 10 121 10t73.5 -15t18.5 -31q0 -27 -33 -27l-64 7q-57 0 -78 -36q-31 -55 -34.5 -116t-3.5 -103l3 -862q0 -188 16.5 -228t40.5 -47t51 -7 l56 7q32 0 32 -25q0 -48 -93 -48l-153 9q-13 0 -25 -1l-25 -2q-27 -3 -59 -3q-63 0 -66 117q-198 -140 -430 -140q-301 0 -463 151q-160 148 -160 417v662q0 124 -14 162.5t-24 56.5q-21 36 -78 36l-64 -7q-33 0 -33 27z" />
<glyph unicode="V" horiz-adv-x="1707" d="M-27 1481q0 18 21.5 32.5t66.5 14.5l197 -14l266 14q96 0 96 -47q0 -25 -32 -25l-76 9q-68 0 -68 -51q0 -38 41 -130l381 -875q41 -96 59 -96q13 0 37 60l376 872q49 111 49 179q0 42 -58 42l-86 -10q-32 0 -32 25q0 19 22 33t62.5 14t66.5 -2l48 -5q56 -7 86 -7 q46 0 76 4l46 8q17 2 44 2t50 -12.5t23 -36.5t-33 -24l-56 8q-51 0 -81 -39q-49 -65 -135 -255q-431 -947 -448.5 -992.5t-23.5 -66.5q-9 -35 -9 -64q0 -55 39 -71q33 -14 33 -36.5t-32 -22.5t-67.5 19t-77.5 67q-96 108 -197 330l-425 927q-79 177 -129 197q-16 7 -32 7 l-55 -8q-33 0 -33 26z" />
<glyph unicode="W" horiz-adv-x="2389" d="M-52 1481q0 18 21.5 32.5t66.5 14.5l197 -14l266 14q96 0 96 -47q0 -25 -32 -25l-76 9q-68 0 -68 -51q0 -32 40 -130l351 -875q36 -96 58 -96q17 0 38 60l256 748l-48 138q-45 129 -72 160.5t-46 37.5t-41 6l-55 -8q-33 0 -33 26q0 18 21.5 32.5t66.5 14.5l189 -14 l266 14q96 0 96 -47q0 -25 -32 -25l-76 9q-64 0 -64 -49q0 -23 35 -132l281 -875q29 -96 53 -96q12 0 21 20.5t16 39.5l301 872q49 140 49 180.5t-68 40.5l-76 -10q-32 0 -32 25q0 19 22 33t62.5 14t66.5 -2l48 -5q56 -7 85 -7q47 0 76 4l47 8q17 2 44 2t50 -13t23 -36.5 t-33 -23.5l-56 8q-59 0 -91 -39q-60 -72 -125 -255l-257 -727q-131 -352 -134.5 -375t-3.5 -39q0 -38 41 -54q32 -13 32 -33q0 -25 -35.5 -25t-78.5 24.5t-87 71.5q-100 105 -153 268l-237 677l-213 -614q-74 -207 -189 -329q-92 -98 -170 -98q-32 0 -32 25q0 15 10.5 21.5 t27.5 14.5q34 17 34 50q0 55 -64 214l-428 1014q-54 127 -83 160.5t-45 40.5t-32 7l-55 -8q-33 0 -33 26z" />
<glyph unicode="X" horiz-adv-x="1539" d="M-31 49q0 24 33 23l56 -7q37 0 88 55q20 21 46 53l467 567l-493 667q-33 47 -58 53q-9 3 -22 3l-55 -8q-33 0 -33 26q0 18 21.5 32.5t66.5 14.5l197 -14l266 14q96 0 96 -47q0 -25 -32 -25l-76 9q-68 0 -68 -42q0 -37 58 -113l300 -406l220 271q157 195 157 249 q0 42 -68 42l-76 -10q-32 0 -32 25q0 19 22 33t62.5 14t66.5 -2l48 -5q56 -7 85 -7q47 0 76 4l47 8q17 2 44 2t50 -13t23 -36.5t-33 -23.5l-56 8q-37 0 -89 -55q-19 -21 -45 -53l-440 -535l517 -699q33 -47 58 -53q9 -3 22 -3l55 7q33 0 33 -25q0 -18 -21.5 -32.5 t-66.5 -14.5l-197 14l-266 -14q-96 0 -96 47q0 25 32 25l76 -9q68 0 68 42q0 32 -59 114l-324 437l-246 -303q-157 -195 -157 -249q0 -42 68 -42l76 10q32 0 32 -25q0 -19 -22 -33t-62.5 -14t-66.5 2l-48 5q-56 7 -86 7q-46 0 -76 -4l-46 -8q-17 -2 -44 -2t-50 12.5 t-23 36.5z" />
<glyph unicode="Y" horiz-adv-x="1539" d="M-52 1481q0 18 21.5 32.5t66.5 14.5l197 -14l266 14q96 0 96 -47q0 -25 -32 -25l-76 9q-68 0 -68 -41q0 -35 45 -103l369 -559l339 500q77 119 77 161.5t-68 42.5l-76 -10q-32 0 -32 25q0 19 22 33t62.5 14t66.5 -2l48 -5q56 -7 86 -7q46 0 76 4l46 8q17 2 44 2t50 -12.5 t23 -36.5t-33 -24l-66 8q-55 0 -83 -37l-540 -762v-343q0 -124 14 -162.5t25 -56.5q20 -36 77 -36l94 10q16 0 24.5 -9t8.5 -23t-23.5 -29t-56.5 -15t-51.5 0.5t-36.5 1.5q-29 2 -50.5 4.5t-37.5 4t-34 2.5q-34 2 -64 2q-78 0 -106.5 -4.5t-44.5 -6t-35 -2.5q-30 -2 -54 -2 q-67 0 -87 13q-27 17 -27 31q0 32 33 32l94 -10q57 0 78 36q31 55 34.5 116t3.5 103v347l-528 758q-15 21 -33.5 29t-55.5 8l-55 -8q-33 0 -33 26z" />
<glyph unicode="Z" horiz-adv-x="1539" d="M99 39q0 19 31 62l972 1314h-409q-149 0 -209 -23.5t-100.5 -49t-75.5 -53.5q-61 -50 -93 -90t-49.5 -40t-17.5 23t10 56q64 213 72.5 266t17.5 62.5t18 9.5q16 0 34 -23t25 -27.5t19 -7.5q20 -5 81 -5h936q61 0 61 -28q0 -20 -29 -60l-970 -1328h469q100 0 151 17 q83 29 163 92l40 31q19 15 38 33q55 52 81 80q38 41 54 41q21 0 21 -22q0 -24 -23 -70.5t-36 -77.5t-24 -63q-18 -53 -43 -158h-1143q-72 0 -72 39z" />
<glyph unicode="[" horiz-adv-x="825" d="M270 -229v1876q0 56 50 56h357q51 0 74.5 -15t23.5 -29q0 -32 -33 -32l-134 10q-102 0 -112 -23q-4 -7 -4 -18v-1774q0 -23 16 -30q27 -11 100 -11l134 10q16 0 24.5 -9t8.5 -23t-23.5 -29t-74.5 -15h-365q-23 0 -32.5 12t-9.5 44z" />
<glyph unicode="\" horiz-adv-x="1008" d="M100 1654q0 -39 22 -95l646 -1776q26 -68 68 -68t57 20.5t15 35.5t-1 22t-5 19l-10 34q-7 20 -19 52l-608 1669q-44 114 -83 131q-14 5 -34 5t-34 -15.5t-14 -33.5z" />
<glyph unicode="]" horiz-adv-x="825" d="M50 -241q0 -14 23.5 -29t74.5 -15h365q23 0 32.5 12t9.5 44v1876q0 56 -50 56h-357q-51 0 -74.5 -15t-23.5 -29q0 -32 33 -32l134 10q102 0 112 -23q4 -7 4 -18v-1774q0 -23 -16 -30q-27 -11 -100 -11l-134 10q-16 0 -24.5 -9t-8.5 -23z" />
<glyph unicode="^" horiz-adv-x="1141" d="M150 973l388 589h60l393 -589h-169l-257 379l-252 -379h-163z" />
<glyph unicode="_" horiz-adv-x="816" d="M-10 -183h836v-137h-836v137z" />
<glyph unicode="`" horiz-adv-x="644" d="M100 1489q0 27 25.5 49.5t53 22.5t47 -3.5t40.5 -15.5q44 -24 101 -95l160 -199q17 -20 17 -30q0 -28 -27 -28q-15 0 -43 15l-238 122q-114 57 -131 117q-5 18 -5 45z" />
<glyph unicode="a" horiz-adv-x="1366" d="M173 293q0 162 129 245q113 73 291 73t320 -76v120q0 141 -83 217q-77 70 -212 70q-159 0 -288 -176q-47 -62 -71 -62t-24 22t13 60q25 73 25 209q0 44 32 44q40 0 90 -39q14 -11 24 -11q14 0 34 7.5t45.5 13t54.5 10.5q70 12 106 12q391 0 455 -245q19 -73 19 -156v-286 q0 -145 7 -179t16.5 -57t37.5 -35t55 -12l56 8q32 0 32 -26q0 -47 -93 -47l-153 9q-13 0 -27 -1l-26 -2q-27 -3 -59 -3q-57 0 -65 102q-88 -91 -232 -118q-46 -8 -121.5 -8t-153.5 22.5t-130 63.5q-104 82 -104 231zM406 309q0 -46 16.5 -88.5t48.5 -72.5q66 -62 189 -62 q112 0 202 68q29 22 51 51v238q-77 48 -185 67q-35 6 -84 6t-96.5 -16.5t-79 -44.5t-47 -64t-15.5 -82z" />
<glyph unicode="b" horiz-adv-x="1366" d="M-25 1670q0 12 14 21.5t39.5 9.5t45.5 -2l42 -4q57 -6 97 -6q57 0 97.5 7t57 7t28 -3.5t17.5 -15.5q10 -21 10 -104v-650q114 102 310 102q239 0 387 -140q147 -139 147 -371q0 -228 -155 -385q-159 -160 -395 -160q-142 0 -257 43q-40 14 -72 14q-38 0 -101 -22 q-118 -41 -145 -41t-27 27q0 18 25 38t34 34.5t14 40.5q10 46 10 182v1038q0 203 -46 259q-35 40 -125 48q-52 5 -52 33zM423 198q67 -134 242 -134q169 0 269 118q96 111 96 281q0 220 -106 351q-102 123 -260 123q-112 0 -196 -79q-29 -26 -45 -62v-598z" />
<glyph unicode="c" horiz-adv-x="1196" d="M122 505q0 211 144 363q157 164 404 164q94 0 201 -32q33 -11 45 -11q19 0 60.5 21.5t63.5 21.5q29 0 29 -36.5t0.5 -67.5t3.5 -57q6 -52 19.5 -91t13.5 -53q0 -25 -23 -25t-81.5 72.5t-145 119t-166 46.5t-137 -27.5t-101.5 -76.5q-94 -108 -94 -272q0 -204 119 -342 q113 -130 271 -130q122 0 218 76q33 25 52.5 53t29 37t22 9t21 -7.5t8.5 -17.5q0 -38 -38 -87q-141 -179 -385 -179q-238 0 -395 148q-159 149 -159 381z" />
<glyph unicode="d" horiz-adv-x="1364" d="M101 507q0 219 156 371q158 154 388 154q159 0 273 -58v358q0 199 -46 257q-35 40 -125 48q-52 5 -52 33q0 12 14 21.5t39.5 9.5t45.5 -2l42 -4q57 -6 97 -6q57 0 97.5 7t57 7t28 -3.5t17.5 -15.5q10 -21 10 -104v-1235q0 -188 16.5 -228t40.5 -47t51 -7l56 7 q32 0 32 -25q0 -48 -93 -48l-153 9q-13 0 -25 -1l-25 -2q-27 -3 -59 -3q-44 0 -58 57q-122 -77 -261 -77t-241.5 37.5t-174.5 106.5q-148 142 -148 383zM331 557q0 -208 105 -350.5t264 -142.5h6q121 0 212 83v674q-66 86 -188 111q-36 8 -92.5 8t-117.5 -31t-103 -84 q-86 -109 -86 -268z" />
<glyph unicode="e" horiz-adv-x="1194" d="M93 494q0 113 40.5 208.5t114.5 168.5q162 161 403 161q178 0 303 -96q75 -58 138 -168q26 -46 26 -73q0 -44 -46 -60q-266 -97 -564 -169l-163 -39q35 -156 145 -247q105 -88 239 -88q127 0 240 81q35 25 53 50.5t27.5 34.5t22.5 9q28 0 28 -26q0 -35 -35 -83 t-79.5 -81.5t-96.5 -56.5q-103 -44 -225.5 -44t-225.5 36t-179.5 104.5t-121 166.5t-44.5 211zM332 531q0 -10 1 -20q340 85 522 149q24 8 24 28t-8 45.5t-23 53.5t-37 55.5t-51 49.5q-64 48 -130 48t-119 -23.5t-93 -71.5q-86 -103 -86 -293v-21z" />
<glyph unicode="f" horiz-adv-x="855" d="M91 977q0 42 91 42q49 0 103 -4v109q0 466 265 573q81 33 172.5 33t206.5 -26v-283q0 -31 -23 -31q-11 0 -18 7t-21 49t-36 82.5t-45 65.5q-45 49 -85 49q-1 0 -2 -1q-41 -1 -75.5 -23t-59.5 -66q-54 -95 -54 -265v-275l136 3q58 2 94.5 2.5t57.5 -12.5t21 -29 q0 -47 -118 -47l-191 4v-586q0 -140 10 -176.5t21 -59.5q22 -46 93 -46l68 8q32 0 32 -29q0 -17 -30 -31t-64 -14t-49.5 1t-26.5 2t-30 3l-36 4q-16 1 -34 2l-36 2t-33 1t-35 -1l-38 -2q-34 -2 -55 -5q-48 -7 -78 -7q-95 0 -95 45q0 28 33 28l49 -7q59 0 79 52q30 81 30 230 v583q-26 -1 -50 -1h-46q-98 0 -98 47z" />
<glyph unicode="g" horiz-adv-x="1364" d="M159 -280q0 105 131 178q44 25 104 43q-140 60 -140 160q0 78 97 136q32 19 74 32q-183 76 -231 247q-14 51 -14 101q0 89 45 173q81 153 277 212q98 30 214.5 30t213.5 -36q131 3 202 43q20 11 38 23q46 31 80 31q53 0 53 -48.5t-66.5 -81t-187.5 -34.5 q130 -105 130 -262v-9q-6 -189 -144 -310q-141 -124 -360 -124q-174 0 -235 -38q-17 -11 -17 -24q0 -77 330 -98q402 -29 485 -173q27 -47 27 -110.5t-40 -122t-115 -100.5q-156 -88 -424 -88q-269 0 -408 78q-119 66 -119 172zM367 -252q0 -28 22.5 -57t70.5 -50 q103 -45 308 -45q374 0 374 119q0 92 -250 143q-96 19 -187 25q-119 8 -170 18q-119 -34 -157 -103q-11 -22 -11 -50zM404 704q-1 -10 -1 -19q0 -86 21 -151q22 -71 64.5 -120t102 -75t119.5 -26t101.5 13.5t72.5 41.5q65 60 68 168q1 12 1 24q0 92 -23 158q-27 74 -71 124 q-88 98 -215 98q-100 0 -169 -69t-71 -167z" />
<glyph unicode="h" horiz-adv-x="1532" d="M92 1670q0 12 14 21.5t39.5 9.5t46.5 -2l41 -4q57 -6 97 -6q57 0 97.5 7t57 7t28 -3.5t17.5 -15.5q10 -21 10 -104v-731q166 183 389 183q194 0 279 -120q65 -90 65 -238v-326q0 -132 10 -172t18.5 -62.5t30 -35t42.5 -12.5l52 7q31 0 31 -27q0 -46 -91 -46q-26 0 -65 6 q-80 11 -131 11q-17 0 -31 -1l-71 -6q-17 -2 -36 -4q-43 -6 -72 -6q-100 0 -100 45q0 28 33 28l52 -7q90 0 99 141q4 54 4 141v288q0 184 -104 252q-41 26 -96 26t-97.5 -14t-80.5 -37q-73 -44 -130 -119v-396q0 -140 10 -176.5t21 -59.5q22 -46 85 -46l49 7q32 0 32 -28 q0 -45 -99 -45q-29 0 -46.5 2.5t-32.5 3.5l-31 4q-16 1 -34 2l-36 2t-33 1t-35 -1l-38 -2q-34 -2 -55 -5q-48 -7 -78 -7q-95 0 -95 45q0 28 33 28l49 -7q59 0 79 52q30 81 30 230v985q0 198 -46 256q-35 40 -125 48q-52 5 -52 33z" />
<glyph unicode="i" horiz-adv-x="855" d="M130 970q0 39 60 38l145 -11q19 0 37 2l74 8q19 2 37 1.5t32 -3t23 -15.5q21 -26 21 -103v-539q0 -140 10 -176.5t21 -59.5q22 -46 85 -46l49 7q32 0 32 -28q0 -45 -99 -45q-29 0 -46.5 2.5t-32.5 3.5l-31 4q-16 1 -34 2l-36 2t-33 1t-34 -1l-38 -2q-35 -2 -56 -5 q-48 -7 -78 -7q-95 0 -95 45q0 28 33 28l49 -7q59 0 79 52q30 81 30 230v291q0 195 -44 253q-20 26 -48.5 34.5t-55 12t-41.5 10t-15 21.5zM279 1354q0 46 10.5 73.5t30.5 47.5q41 43 92 43t78 -13t45 -35q35 -41 35 -86t-10.5 -71t-29.5 -46.5t-46 -33t-63 -12.5t-63.5 13 t-45.5 34q-33 40 -33 86z" />
<glyph unicode="j" horiz-adv-x="855" d="M-89 -248q0 26 21 26q29 0 48 -43q43 -94 84.5 -136.5t84 -42.5t74.5 22t56 80q51 123 51 420v561q0 195 -44 253q-20 26 -48.5 34.5t-55 12t-41.5 10t-15 21.5q0 39 60 39l145 -12l168 12q35 0 43 -15q13 -26 13 -107v-809q0 -315 -127 -468q-115 -140 -321 -140 q-85 0 -196 26v256zM279 1354q0 46 10.5 73.5t30.5 47.5q41 43 92 43t78 -13t45 -35q35 -41 35 -86t-10.5 -71t-29.5 -46.5t-46 -33t-63 -12.5t-63.5 13t-45.5 34q-33 40 -33 86z" />
<glyph unicode="k" horiz-adv-x="1533" d="M111 1670q0 12 14 21.5t39.5 9.5t45.5 -2l42 -4q57 -6 97 -6q57 0 97.5 7t57 7t28 -3.5t17.5 -15.5q10 -21 10 -104v-992q228 73 419 226q75 61 75 93q0 45 -79 45l-59 -7q-31 0 -31 26q0 48 86 48q30 0 60 -3t58 -6q65 -7 109 -7l166 16q83 0 83 -48q0 -26 -32 -26 l-56 7q-45 0 -130 -76q-198 -177 -432 -291l415 -383q146 -135 218 -135l44 7q14 0 23.5 -7.5t9.5 -18.5q0 -48 -81 -48l-144 9l-122 -9q-51 0 -139 76q-40 34 -102 93l-149 147l-210 215v-183q0 -132 10 -172t18.5 -62.5t30 -35t42.5 -12.5l52 7q31 0 31 -27q0 -46 -91 -46 q-26 0 -65 6q-67 9 -107 9t-57.5 -0.5t-34.5 -2.5l-34 -2q-17 -2 -36 -4q-43 -6 -75 -6q-100 0 -100 45q0 28 33 28l52 -7q52 0 76 52q30 66 30 230v982q0 203 -46 259q-35 40 -125 48q-52 5 -52 33z" />
<glyph unicode="l" horiz-adv-x="855" d="M111 1670q0 12 14 21.5t39.5 9.5t45.5 -2l42 -4q57 -6 97 -6q57 0 97.5 7t57 7t28 -3.5t17.5 -15.5q10 -21 10 -104v-1232q0 -132 10 -172t18.5 -62.5t30 -35t42.5 -12.5l52 7q31 0 31 -27q0 -46 -91 -46q-26 0 -65 6q-67 9 -107 9t-57.5 -0.5t-34.5 -2.5l-34 -2 q-17 -2 -36 -4q-43 -6 -72 -6q-100 0 -100 45q0 28 33 28l52 -7q90 0 99 141q4 54 4 141v982q0 203 -46 259q-35 40 -125 48q-52 5 -52 33z" />
<glyph unicode="m" horiz-adv-x="2216" d="M91 970q0 39 60 38l145 -11q19 0 37 2l74 8q19 2 37 1.5t31.5 -3t22.5 -14.5q22 -27 22 -102q172 143 374 143q118 0 203 -47t127 -130q122 122 293 163q58 14 130 14t139.5 -24.5t115.5 -69.5q99 -91 99 -245v-345q0 -132 10 -172t18.5 -62.5t30 -35t42.5 -12.5l52 7 q31 0 31 -27q0 -46 -91 -46q-26 0 -65 6q-80 11 -131 11q-17 0 -31 -1l-71 -6q-17 -2 -36 -4q-43 -6 -72 -6q-100 0 -100 45q0 28 33 28l52 -7q90 0 99 141q4 54 4 141v346q0 107 -54 167.5t-143 60.5q-161 0 -326 -151q8 -40 8 -78v-345q0 -132 10 -172t18.5 -62.5t30 -35 t42.5 -12.5l52 7q31 0 31 -27q0 -46 -91 -46q-26 0 -65 6q-80 11 -131 11q-17 0 -31 -1l-71 -6q-17 -2 -36 -4q-43 -6 -72 -6q-100 0 -100 45q0 28 33 28l52 -7q90 0 99 141q4 54 4 141v346q0 107 -54 167.5t-151 60.5q-153 0 -311 -144v-430q0 -140 10 -176.5t21 -59.5 q22 -46 85 -46l49 7q32 0 32 -28q0 -45 -99 -45q-29 0 -46.5 2.5t-32.5 3.5l-31 4q-16 1 -34 2l-36 2t-33 1t-35 -1l-38 -2q-34 -2 -55 -5q-48 -7 -78 -7q-95 0 -95 45q0 28 33 28l49 -7q59 0 79 52q30 81 30 230v291q0 195 -44 253q-20 26 -48.5 34.5t-55 12t-41.5 10 t-15 21.5z" />
<glyph unicode="n" horiz-adv-x="1532" d="M111 970q0 39 60 38l145 -11q19 0 37 2l74 8q19 2 37 1.5t32 -3t24 -15.5q20 -26 20 -103v-38q166 183 389 183q194 0 279 -120q65 -90 65 -238v-326q0 -132 10 -172t18.5 -62.5t30 -35t42.5 -12.5l52 7q31 0 31 -27q0 -46 -91 -46q-26 0 -65 6q-80 11 -131 11 q-17 0 -31 -1l-71 -6q-17 -2 -36 -4q-43 -6 -72 -6q-100 0 -100 45q0 28 33 28l52 -7q90 0 99 141q4 54 4 141v288q0 184 -104 252q-41 26 -96 26t-97.5 -14t-80.5 -37q-73 -44 -130 -119v-396q0 -140 10 -176.5t21 -59.5q22 -46 85 -46l49 7q32 0 32 -28q0 -45 -99 -45 q-29 0 -46.5 2.5t-32.5 3.5l-31 4q-16 1 -34 2l-36 2t-33 1t-35 -1l-38 -2q-34 -2 -55 -5q-48 -7 -78 -7q-95 0 -95 45q0 28 33 28l49 -7q59 0 79 52q30 81 30 230v291q0 195 -44 253q-20 26 -48.5 34.5t-55 12t-41.5 10t-15 21.5z" />
<glyph unicode="o" horiz-adv-x="1366" d="M123 527q0 84 43.5 180.5t119.5 168.5q163 156 398 156q269 0 424 -162q134 -141 134 -348q0 -238 -142 -388q-151 -158 -412 -158q-376 0 -512 284q-53 111 -53 267zM359 568q0 -94 31.5 -189t83.5 -165q113 -150 260 -150q112 0 188 96q80 100 80 237.5t-33 236 t-86 167t-120 104.5t-129 36t-111 -26.5t-85.5 -73.5t-57.5 -113t-21 -160z" />
<glyph unicode="p" horiz-adv-x="1364" d="M4 970q0 39 60 39l145 -12q19 0 37 2l74 8q19 2 35.5 2t27.5 -2t20 -9q19 -13 26 -53q126 87 270 87t246.5 -36t174.5 -104q148 -141 148 -387q0 -219 -156 -373q-158 -156 -388 -156q-175 0 -291 74v-232q0 -140 10 -176.5t21 -59.5q22 -46 85 -46l49 7q32 0 32 -28 q0 -45 -99 -45l-213 15q-15 0 -34 -1l-38 -2q-35 -2 -56 -5q-48 -7 -78 -7q-95 0 -95 45q0 28 33 28l49 -7q59 0 79 52q30 81 30 230v821q0 195 -44 253q-20 26 -48.5 34.5t-55 12t-41.5 10t-15 21.5zM433 236q55 -122 194 -158q41 -10 101 -10t121 32t103 85q86 109 86 270 q0 219 -105 354q-103 132 -264 132q-126 0 -236 -100v-605z" />
<glyph unicode="q" horiz-adv-x="1366" d="M117 507q0 219 156 371q158 154 376.5 154t350.5 -100q184 100 251 100q29 0 29 -25q0 -17 -24.5 -33.5t-33.5 -32.5t-15 -45q-11 -53 -11 -185v-893q0 -140 10 -176.5t21 -59.5q22 -46 85 -46l49 7q32 0 32 -28q0 -45 -99 -45l-213 15q-15 0 -35 -1l-38 -2 q-34 -2 -55 -5q-48 -7 -78 -7q-95 0 -95 45q0 28 33 28l49 -7q59 0 79 52q30 81 30 230v260q-131 -98 -280 -98t-251.5 37.5t-174.5 106.5q-148 142 -148 383zM347 557q0 -207 110 -351q109 -142 258.5 -142t255.5 121v580q-38 79 -127 129q-81 46 -164 46t-144 -31 t-103 -84q-86 -109 -86 -268z" />
<glyph unicode="r" horiz-adv-x="1196" d="M141 970q0 39 60 38l145 -11q19 0 37 2l74 8q19 2 37 1.5t32 -3t24 -15.5q20 -26 20 -103v-88q93 160 244 215q51 18 103.5 18t87 -10.5t55.5 -29.5q40 -35 40 -94l-2 -222q0 -13 -7 -21t-16 -8q-21 0 -32.5 44t-34 80.5t-50.5 59.5q-55 44 -114 44t-100.5 -19t-75.5 -48 q-68 -58 -98 -129v-331q0 -140 10 -176.5t21 -59.5q22 -46 93 -46l68 8q32 0 32 -29q0 -17 -30 -31t-64 -14t-49.5 1t-26.5 2t-30 3l-36 4q-16 1 -34 2l-36 2t-33 1t-35 -1l-38 -2q-34 -2 -55 -5q-48 -7 -78 -7q-95 0 -95 45q0 28 33 28l49 -7q59 0 79 52q30 81 30 230v291 q0 195 -44 253q-20 26 -48.5 34.5t-55 12t-41.5 10t-15 21.5z" />
<glyph unicode="s" horiz-adv-x="1196" d="M145 92v244q0 10 7 17t18 7q24 0 37.5 -47t56.5 -95t104 -82q128 -73 295 -73q173 0 229 87q19 30 19 65t-13 57t-49 43q-73 43 -228 81.5t-235 76t-128 81.5q-86 79 -86 192q0 110 108 192q124 94 331 94q95 0 230 -35q4 -1 12.5 -4t18.5 -6q23 -7 35 -7q15 0 36 26 t36 26q28 0 28 -37q0 -148 12 -191q14 -51 14 -73t-22 -22t-45.5 47.5t-67.5 85.5t-94 61q-93 42 -174 42t-124 -12.5t-72 -32.5q-60 -39 -60 -82.5t13.5 -69.5t47.5 -48q63 -42 209 -77t228.5 -66.5t133.5 -70.5q99 -76 99 -202q0 -200 -239 -278q-93 -30 -194 -30 t-172 9.5t-140 25.5q-152 36 -215 81z" />
<glyph unicode="t" horiz-adv-x="1025" d="M59 971q0 11 7.5 18.5t20 12.5t29.5 9l35 8q159 38 215 214q20 61 30.5 132.5t23.5 92t32.5 20.5t27 -23t7.5 -77v-367q273 7 310.5 7t61.5 -2.5t38 -7.5q24 -9 24 -31q0 -47 -116 -47h-318v-620q0 -153 95 -201q33 -17 66 -17t56.5 5.5t49.5 18.5q59 28 101 88 q29 42 54 42q30 0 30 -29q0 -34 -49.5 -101.5t-129.5 -103.5t-162 -36t-143 16t-103 52q-90 76 -90 237v649h-104q-83 0 -95 22q-4 8 -4 19z" />
<glyph unicode="u" horiz-adv-x="1532" d="M75 964q0 48 93 48l153 -9q13 0 25 1l25 2q27 3 52.5 3t38 -5.5t20.5 -21.5q14 -29 14 -118v-543q0 -176 130 -221q41 -14 90 -14q133 0 267 136v442q0 188 -16.5 228t-40.5 47t-51 7l-56 -7q-32 0 -32 25q0 48 93 48l153 -9q13 0 25 1l25 2q27 3 52.5 3t38 -5.5 t20.5 -21.5q14 -31 14 -119v-518q0 -188 16.5 -228t40.5 -47t51 -7l56 7q32 0 32 -25q0 -48 -93 -48l-153 9q-13 0 -25 -1l-25 -2q-27 -3 -49.5 -3t-34 5t-20.5 18q-17 27 -21 91q-138 -138 -321 -138q-169 0 -280 97q-111 98 -111 249v343q0 187 -16.5 227t-40.5 47t-51 7 l-56 -7q-32 0 -32 25z" />
<glyph unicode="v" horiz-adv-x="1366" d="M-9 958q0 51 92 51l207 -16q44 0 125 9q63 7 110.5 7t65 -4.5t27.5 -11.5q20 -13 20 -32q0 -25 -32 -25l-76 9q-84 0 -84 -54q0 -42 39 -115l245 -441q26 -44 44 -44q14 0 32 40l165 366q52 116 57 147.5t5 46.5q0 54 -75 54l-91 -9q-32 0 -32 22q0 51 92 51l199 -16 q45 0 90 9q35 7 78 7t63.5 -14t20.5 -36.5t-32 -22.5l-56 7q-42 0 -71 -31q-51 -53 -107 -169l-341 -715q-27 -54 -45 -60q-6 -2 -17 -2q-26 0 -56 54q-426 765 -454.5 812t-48.5 71q-32 40 -71 40l-56 -7q-32 0 -32 22z" />
<glyph unicode="w" horiz-adv-x="2047" d="M-5 958q0 51 92 51q55 0 111 -8t84 -8l204 16q72 0 88 -31q5 -9 5 -17q0 -25 -32 -25l-76 9q-26 0 -33.5 -9t-7.5 -26q0 -46 46 -127l245 -444q14 -25 20 -34.5t15 -9.5q17 0 39 45l175 384q-68 134 -96 168.5t-44 42.5t-33 8l-56 -7q-32 0 -32 22q0 51 93 51 q45 0 102 -8t78.5 -8t34 0.5t25 2t26.5 3t41 4.5q54 6 102 6t66 -4.5t29 -11.5q20 -13 20 -32q0 -25 -32 -25l-77 9q-65 0 -65 -55q0 -33 37 -107l216 -444q22 -44 37 -44q16 0 38 45l168 334q73 144 73 217q0 54 -75 54l-91 -9q-32 0 -32 22q0 51 91 51l215 -16q33 0 65 7 q47 9 85.5 9t62.5 -13t24 -36.5t-32 -23.5l-56 7q-42 0 -76 -45q-58 -75 -159 -274l-307 -605q-26 -53 -54 -53q-17 0 -29.5 11t-28.5 43l-296 588l-277 -589q-25 -53 -55 -53t-58 54q-410 756 -439.5 806.5t-48.5 75.5q-34 41 -67 41l-56 -7q-32 0 -32 22z" />
<glyph unicode="x" horiz-adv-x="1364" d="M4 50.5q0 22.5 33 22.5l55 -7q34 0 64 20q56 38 135 121l265 273l-307 353q-77 91 -122 105q-16 5 -33 5l-56 -7q-33 0 -33 22q0 51 92 51q57 0 114 -8t87 -8q56 0 115 7q86 9 167.5 9t81.5 -48q0 -25 -32 -25l-76 9q-55 0 -55 -32q0 -29 56 -94l187 -216l128 130 q103 106 114 144q4 14 4 28.5t-10.5 27t-28.5 12.5t-29 -1l-23 -4q-18 -4 -36.5 -4t-26 8.5t-7.5 16.5q0 48 105 48l184 -16l162 16q41 0 61.5 -14t20.5 -36.5t-33 -22.5l-55 7q-34 0 -64 -20q-56 -38 -135 -121l-265 -274l308 -353q77 -91 122 -105q16 -5 33 -5l56 7 q33 0 33 -22q0 -51 -92 -51q-57 0 -114 8t-88 8q-55 0 -114 -7q-86 -9 -167.5 -9t-81.5 48q0 25 32 25l76 -9q55 0 55 32q0 29 -56 94l-189 216l-127 -129q-103 -106 -114 -144q-4 -14 -4 -28.5t10.5 -27t28.5 -12.5t29 2l23 3q18 4 36.5 4t26 -8.5t7.5 -16.5 q0 -48 -105 -48l-184 16l-162 -16q-41 0 -61.5 14t-20.5 36.5z" />
<glyph unicode="y" horiz-adv-x="1366" d="M-7 958q0 51 92 51l196 -16l266 16q72 0 89 -31q4 -9 4 -17q0 -25 -32 -25l-76 9q-72 0 -72 -55q0 -25 20 -69l264 -613l228 572q31 82 31 120q0 45 -63 45l-82 -9q-32 0 -32 22q0 51 91 51q26 0 51 -3l51 -6q56 -7 92.5 -7t73 8t78.5 8t63.5 -14t21.5 -36.5t-32 -22.5 l-56 8q-59 0 -106 -57t-109 -210l-332 -814q-145 -301 -284 -351q-40 -15 -85 -15t-88 13.5t-73 36.5q-61 47 -61 117q0 32 18.5 53t45.5 21t44.5 -15.5t33.5 -43.5t26.5 -41.5t22.5 -21.5q22 -16 55 -16t57 10t53 46q61 74 160 285l1 4l-375 776q-91 186 -148 213 q-18 9 -35 9l-56 -7q-32 0 -32 22z" />
<glyph unicode="z" horiz-adv-x="1194" d="M56 38q0 16 18 38l710 843h-275q-88 0 -133 -23q-77 -41 -140 -125q-74 -99 -100 -99t-26 24q0 11 18 64q39 110 39 246q0 44 31 44q10 0 37 -14q51 -27 64 -27h730q41 0 55.5 -6.5t14.5 -20.5q0 -22 -31 -60l-693 -831h324q127 0 207 57q41 28 79 70l87 100q32 37 47 37 q23 0 23 -26q0 -25 -22 -71.5t-34 -74t-22 -55.5q-18 -50 -32 -128h-911q-65 0 -65 38z" />
<glyph unicode="{" horiz-adv-x="808" d="M150 715q0 21 33 30t48.5 17t29 26.5t24.5 50.5t21 85q19 103 36 272t45 255.5t68 142.5q78 109 187 109q63 0 88 -28q8 -9 8 -19q0 -21 -28 -21l-58 8q-44 0 -60 -41q-19 -46 -19 -202t-13 -284t-38 -212q-45 -153 -138 -189q94 -38 138 -191q51 -172 51 -523 q0 -127 14 -161.5t29 -43.5t36 -9l58 8q28 0 28 -21q0 -32 -60 -44q-17 -3 -52 -3t-83 26.5t-88 82.5q-85 119 -108 349q-32 318 -62 406q-21 60 -53 77q-16 8 -40 14q-42 12 -42 33z" />
<glyph unicode="|" horiz-adv-x="887" d="M375 -207v1839q0 32 18.5 51.5t50.5 19.5q68 0 68 -73v-1840q0 -33 -18.5 -54t-50 -21t-50 22.5t-18.5 55.5z" />
<glyph unicode="}" horiz-adv-x="808" d="M70 -226q0 -32 60 -44q17 -3 52 -3t83 26.5t88 82.5q85 119 108 349q32 318 62 406q21 60 53 77q16 8 40 14q42 12 42 33t-33 30t-48.5 17t-29 26.5t-24.5 50.5t-21 85q-19 103 -36 272t-45 255.5t-68 142.5q-78 109 -187 109q-63 0 -88 -28q-8 -9 -8 -19q0 -21 28 -21 l58 8q44 0 60 -41q19 -46 19 -202t13 -284t38 -212q45 -153 138 -189q-94 -38 -138 -191q-51 -172 -51 -523q0 -127 -14 -161.5t-29 -43.5t-36 -9l-58 8q-28 0 -28 -21z" />
<glyph unicode="~" horiz-adv-x="1437" d="M115 533q46 126 137 213q97 91 202 91q129 0 312 -134q145 -106 204 -119q24 -6 49 -6t50.5 12t50.5 39q55 58 95 174l120 -58q-110 -304 -331 -304q-69 0 -121 25q-81 37 -157 92l-112 80q-67 47 -100.5 54.5t-64.5 7.5q-116 0 -214 -226z" />
<glyph unicode="&#xa1;" horiz-adv-x="670" d="M170 -496q0 -34 36 -34l130 8l128 -8q36 0 36 34q0 23 -9 70.5t-17 99.5q-24 172 -35 264q-39 313 -51 437t-21 156.5t-32 32.5t-32.5 -32.5t-15.5 -98.5t-15 -145q-27 -235 -37 -319l-20 -154q-19 -150 -29 -199q-16 -86 -16 -112zM195 917q0 -25 10.5 -50.5t29.5 -45.5 q42 -43 90.5 -43t74.5 13t43 34q34 42 34 84.5t-11.5 67t-31.5 42.5q-40 36 -87.5 36t-74 -13t-44 -32.5t-25.5 -43.5t-8 -49z" />
<glyph unicode="&#xa2;" horiz-adv-x="1216" d="M122 505q0 194 138 345q145 158 369 179v165q0 75 46 75q51 0 51 -74v-164q75 -3 128 -19l62 -20q10 -3 22 -3q17 0 58.5 21.5t63.5 21.5q29 0 29 -36.5t0.5 -67.5t3.5 -57q6 -52 19.5 -91t13.5 -53q0 -25 -23 -25t-67 54t-82.5 89t-75.5 55q-66 35 -152 39v-845 q11 -2 21 -2h21q183 0 274 136q16 21 25.5 30t22 9t21 -7.5t8.5 -17.5q0 -38 -50 -101.5t-140 -110.5t-203 -53v-190q0 -72 -46 -72q-51 0 -51 75v189q-221 19 -359 153q-148 144 -148 373zM358 532q0 -242 166 -362q49 -36 105 -55v819q-124 -23 -196 -125 q-75 -106 -75 -277z" />
<glyph unicode="&#xa3;" horiz-adv-x="1367" d="M68 11q0 71 173 164q94 50 116 79q46 65 46 188.5t-58 278.5h-135q-92 0 -92 52q0 45 95 45h92q-77 191 -77 299t35.5 187t96.5 136q129 121 314 121q97 0 155.5 -18.5t92.5 -32.5q55 -22 68 -22q25 0 58 36q49 52 65 52q25 0 25 -53q0 -113 18 -177q33 -124 33 -161 t-24 -37q-15 0 -30 23q-82 129 -211 211q-125 81 -240 81q-103 0 -170 -66q-69 -67 -69 -178q0 -118 49 -250q19 -51 50 -121l12 -30h417q95 0 95 -52q0 -45 -94 -45h-382q33 -108 33 -180t-10 -107.5t-27 -67.5q-35 -64 -92 -110q118 -8 194.5 -36t128 -50t92 -37.5 t71.5 -24.5q55 -16 101 -16q85 0 140 57q26 28 51.5 28t25.5 -30q-2 -61 -113 -116t-213 -55q-182 0 -360 56q-149 47 -198.5 52t-91.5 5q-106 0 -182 -78q-28 -31 -46 -31q-28 0 -28 31z" />
<glyph unicode="&#xa4;" horiz-adv-x="1451" d="M150 189l217 209q-68 99 -68 230.5t70 231.5l-219 212l100 100l211 -220q112 80 265.5 80t261.5 -81l213 221l100 -100l-224 -217q61 -97 61 -223t-63 -225l226 -218l-100 -100l-215 224q-111 -84 -266 -84t-262 77l-208 -217zM439 630q0 -62 20.5 -115t58.5 -91 q79 -82 203 -82q126 0 201 76q78 80 78 213q0 124 -79.5 205.5t-203.5 81.5t-201 -82q-77 -80 -77 -206z" />
<glyph unicode="&#xa5;" horiz-adv-x="1539" d="M-52 1481q0 18 21.5 32.5t66.5 14.5l197 -14l266 14q96 0 96 -47q0 -25 -32 -25l-76 9q-68 0 -68 -41q0 -39 45 -103l354 -515h5l310 398l39 58q77 119 77 161.5t-68 42.5l-76 -10q-32 0 -32 25q0 19 22 33t62.5 14t66.5 -2l48 -5q56 -7 86 -7q46 0 76 4l46 8q17 2 44 2 t50 -12.5t23 -36.5t-33 -24l-66 8q-53 0 -83 -37l-483 -620h371q57 0 69 -24q6 -10 6 -34q0 -39 -74 -39h-429v-191h428q57 0 69 -24q6 -10 6 -34q0 -39 -74 -39h-429v-100q0 -124 14 -162.5t25 -56.5q20 -36 77 -36l94 10q16 0 24.5 -9t8.5 -23t-23.5 -29t-56.5 -15 t-51.5 0.5t-36.5 1.5q-29 2 -50.5 4.5t-37.5 4t-34 2.5q-34 2 -64 2q-78 0 -106.5 -4.5t-44.5 -6t-35 -2.5q-114 -6 -141 11t-27 31q0 32 33 32l94 -10q57 0 78 36q31 55 34.5 116t3.5 103v100h-403q-32 0 -52 9t-20 42t20.5 39.5t54.5 6.5h400v191h-403q-32 0 -52 9t-20 42 t20.5 39.5t54.5 6.5h330l-458 620q-15 21 -33.5 29t-55.5 8l-55 -8q-33 0 -33 26z" />
<glyph unicode="&#xa6;" horiz-adv-x="887" d="M375 -219v716q0 29 19 47.5t51 18.5t49.5 -21t17.5 -47v-712q0 -26 -17.5 -47t-50.5 -21q-69 0 -69 66zM375 931v706q0 32 18 49t51 17t50.5 -21t17.5 -47v-702q0 -26 -17.5 -47t-49.5 -21t-51 18.5t-19 47.5z" />
<glyph unicode="&#xa7;" horiz-adv-x="1119" d="M140 632q0 125 123 230q35 30 72 52q-91 63 -128 137.5t-37 152t30 138t88 109.5q130 110 339 110q156 0 278 -56v-242q-2 -40 -23 -40q-25 0 -34 38q-20 102 -82 157.5t-162 55.5q-92 0 -163 -52q-73 -55 -73 -128q0 -93 130 -184q47 -33 140 -77t166.5 -92t114.5 -95 q70 -82 70 -214q0 -116 -123 -220q-35 -29 -71 -50q163 -114 163 -284q0 -149 -119 -250q-131 -113 -365 -113q-132 0 -280 76v241q2 41 23 41q27 0 36 -38q21 -108 92 -170.5t181 -62.5q99 0 166 47q70 50 70 133q0 131 -247 249q-198 95 -285 187q-90 94 -90 214zM303 729 q0 -102 186 -207q66 -38 123 -64q80 -35 108 -51q107 58 107 140q0 102 -187 207q-66 38 -123 63t-74 34l-34 18q-106 -56 -106 -140z" />
<glyph unicode="&#xa8;" horiz-adv-x="971" d="M100 1353q0 46 10.5 73.5t29.5 47.5q42 43 93 43t78 -13t45 -34q35 -42 35 -87t-10.5 -71t-29.5 -46.5t-46 -33t-63 -12.5t-63.5 13t-44.5 34q-34 40 -34 86zM580 1353q0 46 10.5 73.5t29.5 47.5q42 43 93 43t78 -13t45 -34q35 -42 35 -87t-10.5 -71t-29.5 -46.5t-46 -33 t-63 -12.5t-63.5 13t-44.5 34q-34 40 -34 86z" />
<glyph unicode="&#xa9;" horiz-adv-x="1907" d="M130 766q0 105 26.5 204t77 187t123 162t165.5 128q195 114 438 114q216 0 405 -101q290 -154 381 -469q31 -105 31 -221t-31 -219.5t-86 -191.5t-131.5 -159t-167.5 -120q-190 -104 -402 -104q-228 0 -421 109q-186 105 -296 285q-112 185 -112 396zM260 790.5 q0 -119.5 25 -206.5t71 -162.5t111 -137t145 -106.5q165 -92 363 -92q177 0 333 86q240 133 315 404q25 91 25 193.5t-27 192.5t-75 166t-114 136t-143 102q-159 85 -321.5 85t-289 -53t-219.5 -145.5t-146 -217.5t-53 -244.5zM489 754q0 190 133 322q135 136 332 136 q96 0 150 -14l68 -19q15 -4 26 -4q16 0 44 18q37 24 53 24q25 0 25 -34.5t0.5 -61.5t3.5 -50q5 -51 17 -83t12 -44q0 -22 -20 -22q-21 0 -55.5 43.5t-64.5 72.5t-65 48q-69 40 -145.5 40t-123.5 -24.5t-83 -65.5q-79 -88 -79 -188.5t29 -177.5t78 -134q103 -122 248 -122 q91 0 176 68q30 24 47.5 49.5t26 30.5t19 5t18.5 -8.5t8 -18.5q0 -33 -31.5 -72.5t-70.5 -68.5t-85 -49q-97 -43 -205 -43t-197 35.5t-154 96.5q-135 128 -135 315z" />
<glyph unicode="&#xaa;" horiz-adv-x="1130" d="M150 990q0 62 27.5 109t74.5 77q89 56 221.5 56t236.5 -48v-80q-89 47 -178 47q-74 0 -122 -45q-45 -41 -45 -90.5t11 -80.5t32 -55q47 -50 138 -50t164 73v-33q0 -31 3 -52q-96 -81 -235 -81q-242 0 -308 145q-20 46 -20 108zM201 1328q0 12 10 41q20 58 20 163 q0 34 25 34q20 0 40 -10q38 -21 49 -21q8 0 14.5 2.5t27.5 8.5q59 15 159 15t173.5 -24.5t116.5 -67.5q75 -76 75 -221v-211q0 -135 13 -168q20 -53 70 -53l51 8q11 0 20.5 -8.5t9.5 -21t-17 -26.5t-60 -14l-129 7l-108 -5q-40 0 -48 62q20 16 37 40l-11 81q-16 -23 -29 -36 v201q47 -27 63 -50l32 66q-36 35 -95 64v83q0 103 -53 158t-137 55t-136.5 -28.5t-103.5 -98.5q-38 -50 -56 -50q-10 0 -16.5 6.5t-6.5 18.5z" />
<glyph unicode="&#xab;" horiz-adv-x="1142" d="M80 523q0 13 30.5 29t82.5 52t110 84q137 113 217 217l21 28q21 29 33 29q18 0 18 -28t-18 -74.5t-50 -103.5q-73 -130 -174 -233q101 -103 174 -233q68 -121 68 -163.5t-18 -42.5q-12 0 -26 20l-28 37q-80 104 -217 217q-114 95 -161.5 120t-54.5 30.5t-7 14.5zM530 523 q0 13 30.5 29t82.5 52t110 84q137 113 217 217l21 28q21 29 33 29q18 0 18 -28t-18 -74.5t-50 -103.5q-73 -130 -174 -233q101 -103 174 -233q68 -121 68 -163.5t-18 -42.5q-12 0 -26 20l-28 37q-80 104 -217 217q-114 95 -161.5 120t-54.5 30.5t-7 14.5z" />
<glyph unicode="&#xac;" horiz-adv-x="1285" d="M150 575v137h985v-461h-141v324h-844z" />
<glyph unicode="&#xad;" horiz-adv-x="1229" />
<glyph unicode="&#xae;" horiz-adv-x="1373" d="M130 1168q0 216 154 372q161 163 407 163q222 0 382 -147q170 -155 170 -389q0 -226 -169 -383q-162 -152 -388 -152q-112 0 -214.5 42.5t-178.5 115.5q-163 157 -163 378zM236 1163q0 -181 132 -309t321 -128q91 0 169 31.5t138 88.5q131 126 131 318q0 191 -137 316 q-132 122 -310 122q-188 0 -316 -127q-128 -126 -128 -312zM411 935q0 16 17 16l29 -4q33 0 33 103v237q0 102 -33 102l-26 -4q-20 0 -20 16q0 24 37 24q15 0 22 -1l22 -1q38 -5 84 -5l147 9q144 0 189 -85q14 -25 14 -57.5t-16.5 -61.5t-43.5 -48q-52 -38 -128 -38 q78 -35 131 -128l20 -33q20 -30 37 -30l28 5q14 0 14 -13t-16.5 -22.5t-57 -9.5t-90 35t-97.5 117q-41 64 -90 79v-87q0 -103 32 -103l28 4q18 0 18 -16q0 -24 -36 -24l-106 7l-105 -7q-37 0 -37 24zM617 1198q38 -18 74.5 -18t53 5t29.5 16q27 24 27 59.5t-11.5 53 t-29.5 28.5q-35 23 -78 23q-65 0 -65 -45v-122z" />
<glyph unicode="&#xaf;" horiz-adv-x="876" d="M100 1303v127h676v-127h-676z" />
<glyph unicode="&#xb0;" horiz-adv-x="814" d="M130 1286q0 116 73 193q78 82 212 82q122 0 195 -74q74 -76 74 -201q0 -123 -78 -199q-77 -76 -200 -76q-61 0 -112 20t-88 56q-76 75 -76 199zM253 1305q0 -56 10.5 -87t30.5 -54q43 -48 115.5 -48t113 44.5t40.5 125.5q0 115 -91 156q-29 13 -65.5 13t-65.5 -13 t-49 -36q-39 -45 -39 -101z" />
<glyph unicode="&#xb1;" horiz-adv-x="1285" d="M150 172v137h985v-137h-985zM150 872v137h422v434h141v-434h422v-137h-422v-414h-141v414h-422z" />
<glyph unicode="&#xb2;" horiz-adv-x="906" d="M140 664.5q0 32.5 9.5 71.5t38.5 86q60 102 214 239q105 93 137 137q51 71 51 114.5t-10 71t-30 47.5q-42 42 -115 42q-105 0 -172 -93q-24 -34 -37.5 -79.5t-33.5 -45.5q-25 0 -25 40v164q85 70 221 95q41 7 99 7t117 -17t100 -47q81 -60 81 -157q0 -101 -142 -224 q-46 -40 -127 -102q-161 -121 -216 -230h185q148 0 207 34q25 15 48.5 39t39.5 24t16 -17q0 -13 -13 -42.5t-21 -49.5t-14.5 -41t-12.5 -45l-13 -54h-553q-29 0 -29 32.5z" />
<glyph unicode="&#xb3;" horiz-adv-x="891" d="M150 699v164q0 40 25 40q20 0 31 -38.5t32.5 -66.5t51.5 -48q61 -40 119 -40t89.5 13.5t52.5 35.5q43 45 43 101t-13 97t-38 73q-54 68 -139 68l-75 -13q-27 0 -27 24q0 23 59.5 47.5t88.5 45t50 44.5q43 51 43 105t-35.5 86.5t-99.5 32.5t-114.5 -41t-67 -97t-36.5 -56 q-25 0 -25 40v164q119 81 281 81q198 0 268 -111q22 -36 22 -75t-15 -69t-41 -58q-55 -56 -135 -89q99 -17 165 -80q71 -68 71 -149.5t-33.5 -136t-87.5 -93.5q-112 -82 -250.5 -82t-259.5 81z" />
<glyph unicode="&#xb4;" horiz-adv-x="644" d="M100 1217.5q0 10.5 17 30.5l160 199q57 71 89 89q46 25 86.5 25t66 -22.5t25.5 -49.5t-5 -44.5t-19 -36.5q-34 -42 -112 -81l-238 -122q-28 -15 -42.5 -15t-21 8.5t-6.5 19z" />
<glyph unicode="&#xb6;" horiz-adv-x="1537" d="M163 1171q0 154 113 260q127 120 359 120q123 0 155 -7q53 -13 90 -13v-1531q-34 0 -52 2q-34 4 -51 4l-145 -9q-93 0 -93 47q0 26 32 26l76 -8q73 0 95 53q21 51 21 229v436q-66 -15 -147 -15t-167 26.5t-149 78.5q-137 110 -137 301zM1093 0v1531q84 0 117 5 q66 10 121 10t73.5 -15t18.5 -31q0 -27 -33 -27l-64 7q-57 0 -78 -36q-31 -55 -34.5 -115t-3.5 -102v-1227h-117z" />
<glyph unicode="&#xb7;" horiz-adv-x="512" d="M92 625q0 29 12 59t34 53q48 50 121 50q76 0 121 -56q39 -49 39 -113q0 -56 -45 -102q-49 -51 -105.5 -51t-87 15t-50.5 38t-29.5 50.5t-9.5 56.5z" />
<glyph unicode="&#xb8;" horiz-adv-x="670" d="M100 -430.5q0 23.5 13.5 40t36.5 16.5q37 0 75 -34q61 -55 113 -55t75 23t23 68.5t-34.5 76t-80.5 30.5q-70 0 -113 -16l60 305l94 -14l-47 -207q6 1 11 1h11q95 0 162 -42q71 -44 71 -112q0 -74 -82 -128q-81 -52 -183 -52q-121 0 -183 56q-22 20 -22 43.5z" />
<glyph unicode="&#xb9;" horiz-adv-x="689" d="M110 1362q0 28 66 53q132 48 223 119q41 31 50 31q20 0 20 -19q0 -14 -1.5 -28.5t-3.5 -35.5q-3 -30 -3 -110v-531q0 -154 65 -154l54 7q14 0 21.5 -8t7.5 -19.5t-15 -23t-42 -11.5q-49 0 -95 4l-47 4q-23 2 -46 2t-46 -2l-45 -4q-46 -4 -84 -4q-68 0 -68 37q0 9 7.5 17 t21.5 8l54 -7q29 0 41 20q24 43 24 134v363q0 76 -13 113t-45 37l-77 -16q-10 0 -17 7t-7 17z" />
<glyph unicode="&#xba;" horiz-adv-x="1132" d="M130 1148q0 170 127 291q129 122 311 122q210 0 330 -127q104 -110 104 -271q0 -186 -110 -303q-118 -123 -330 -123q-114 0 -198.5 38t-135.5 97q-98 113 -98 276zM348 1231.5q0 -101.5 22 -173.5t59 -124.5t84.5 -82t90.5 -29.5t73.5 15t52.5 46q49 67 49 182 t-21 190.5t-56 124.5q-69 96 -174 96q-87 0 -134 -74q-46 -69 -46 -170.5z" />
<glyph unicode="&#xbb;" horiz-adv-x="1142" d="M100 126.5q0 -42.5 18 -42.5q12 0 26 20l28 37q80 104 217 217q114 95 161.5 120t54.5 30.5t7 14.5q0 13 -30.5 29t-82.5 52t-110 84q-137 113 -217 217l-21 28q-21 29 -33 29q-18 0 -18 -28t18 -74.5t50 -103.5q73 -130 174 -233q-101 -103 -174 -233 q-68 -121 -68 -163.5zM550 126.5q0 -42.5 18 -42.5q12 0 26 20l28 37q80 104 217 217q114 95 161.5 120t54.5 30.5t7 14.5q0 13 -30.5 29t-82.5 52t-110 84q-137 113 -217 217l-21 28q-21 29 -33 29q-18 0 -18 -28t18 -74.5t50 -103.5q73 -130 174 -233q-101 -103 -174 -233 q-68 -121 -68 -163.5z" />
<glyph unicode="&#xbc;" horiz-adv-x="2031" d="M110 1362q0 28 66 53q132 48 223 119q41 31 50 31q20 0 20 -19q0 -14 -1.5 -28.5t-3.5 -35.5q-3 -30 -3 -110v-531q0 -154 65 -154l54 7q14 0 21.5 -8t7.5 -19.5t-15 -23t-42 -11.5q-49 0 -95 4l-47 4q-23 2 -46 2t-46 -2l-45 -4q-46 -4 -84 -4q-68 0 -68 37q0 9 7.5 17 t21.5 8l54 -7q29 0 41 20q24 43 24 134v363q0 76 -13 113t-45 37l-77 -16q-10 0 -17 7t-7 17zM370 21.5q0 16.5 3 27t11 24t22 31.5l1066 1369q58 76 86 85q9 3 26 3t33.5 -14t16.5 -33q0 -33 -49 -97l-1068 -1373q-46 -57 -63 -62.5t-36 -5.5t-33.5 14.5t-14.5 31z M1064 278q0 20 31 54l513 575q37 41 55 41t18 -47v-537h60q71 0 118 34q17 14 27 14q16 0 16 -15q0 -8 -8 -19t-14.5 -21.5t-13.5 -24.5q-20 -34 -25 -50q-9 -26 -40 -26h-120v-47q0 -154 65 -154l54 7q14 0 21.5 -8t7.5 -19.5t-15 -23t-42 -11.5q-49 0 -95 4l-47 4 q-23 2 -46 2t-46 -2l-45 -4q-114 -10 -133 4.5t-19 25.5q0 28 29 28l54 -7q29 0 41 20q29 52 29 134v47h-378q-52 0 -52 22zM1222 364h272v312z" />
<glyph unicode="&#xbd;" horiz-adv-x="2082" d="M110 1362q0 28 66 53q132 48 223 119q41 31 50 31q20 0 20 -19q0 -14 -1.5 -28.5t-3.5 -35.5q-3 -30 -3 -110v-531q0 -154 65 -154l54 7q14 0 21.5 -8t7.5 -19.5t-15 -23t-42 -11.5q-49 0 -95 4l-47 4q-23 2 -46 2t-46 -2l-45 -4q-46 -4 -84 -4q-68 0 -68 37q0 9 7.5 17 t21.5 8l54 -7q29 0 41 20q24 43 24 134v363q0 76 -13 113t-45 37l-77 -16q-10 0 -17 7t-7 17zM370 21.5q0 16.5 3 27t11 24t22 31.5l1066 1369q58 76 86 85q9 3 26 3t33.5 -14t16.5 -33q0 -33 -49 -97l-1068 -1373q-46 -57 -63 -62.5t-36 -5.5t-33.5 14.5t-14.5 31z M1316 32.5q0 32.5 9.5 71.5t38.5 86q60 102 214 239q105 93 137 137q51 71 51 114.5t-10 71t-30 47.5q-42 42 -115 42q-105 0 -172 -93q-24 -34 -37.5 -79.5t-33.5 -45.5q-25 0 -25 40v164q85 70 221 95q41 7 99 7t117 -17t100 -47q81 -60 81 -157q0 -101 -142 -224 q-46 -40 -127 -102q-161 -121 -216 -230h185q148 0 207 34q25 15 48.5 39t39.5 24t16 -17q0 -13 -13 -42.5t-21 -49.5t-14.5 -41t-12.5 -45l-13 -54h-553q-29 0 -29 32.5z" />
<glyph unicode="&#xbe;" horiz-adv-x="2063" d="M150 699v164q0 40 25 40q20 0 31 -38.5t32.5 -66.5t51.5 -48q61 -40 119 -40t89.5 13.5t52.5 35.5q43 45 43 101t-13 97t-38 73q-54 68 -139 68l-75 -13q-27 0 -27 24q0 23 59.5 47.5t88.5 45t50 44.5q43 51 43 105t-35.5 86.5t-99.5 32.5t-114.5 -41t-67 -97t-36.5 -56 q-25 0 -25 40v164q119 81 281 81q198 0 268 -111q22 -36 22 -75t-15 -69t-41 -58q-55 -56 -135 -89q99 -17 165 -80q71 -68 71 -149.5t-33.5 -136t-87.5 -93.5q-112 -82 -250.5 -82t-259.5 81zM422 21.5q0 16.5 3 27t11 24t22 31.5l1066 1369q58 76 86 85q9 3 26 3t33.5 -14 t16.5 -33q0 -33 -49 -97l-1068 -1373q-46 -57 -63 -62.5t-36 -5.5t-33.5 14.5t-14.5 31zM1115 278q0 20 31 54l513 575q37 41 55 41t18 -47v-537h60q71 0 118 34q18 14 27 14q16 0 16 -15q0 -8 -8 -19t-14.5 -21.5t-14.5 -24.5q-19 -34 -24 -50q-9 -26 -40 -26h-120v-47 q0 -154 65 -154l54 7q14 0 21.5 -8t7.5 -19.5t-15 -23t-42 -11.5q-49 0 -95 4l-46 4q-24 2 -47 2t-45 -2l-46 -4q-114 -10 -133 4.5t-19 25.5q0 28 29 28l54 -7q29 0 41 20q29 52 29 134v47h-378q-52 0 -52 22zM1273 364h272v312z" />
<glyph unicode="&#xbf;" horiz-adv-x="1034" d="M100 -239q0 167 160 323q56 54 136 120q176 144 176 239q0 20 -16.5 34t-39 18t-37 13t-14.5 33q0 47 64 47q49 0 78 -28q53 -51 53 -121q0 -144 -187 -361q-139 -164 -139 -306q0 -194 217 -194q97 0 171 63.5t107 192.5q4 18 16 36.5t26 18.5q33 0 33 -43v-276 q-180 -100 -379 -100q-211 0 -324 85q-101 77 -101 206zM404 909.5q0 42.5 11.5 67t30.5 42.5q41 36 88.5 36t74 -13t44 -32.5t25.5 -43.5t8 -49t-10.5 -50.5t-29.5 -45.5q-42 -43 -90.5 -43t-74.5 13t-43 34q-34 42 -34 84.5z" />
<glyph unicode="&#xc0;" horiz-adv-x="1707" d="M-27 45q0 28 33 28l49 -7q46 0 75 38q55 70 137 251q511 1108 527.5 1141t27.5 49q17 25 35 25t35 -24q26 -40 73 -142l521 -1139q74 -162 130 -190q18 -9 37 -9l49 8q33 0 33 -29q0 -45 -80 -45l-194 15l-245 -15q-51 0 -72.5 15t-21.5 30q0 28 32 28l71 -10 q29 0 42 8.5t13 26.5t-2 31t-6 29q-9 30 -33 82l-77 161q-15 32 -32 42q-28 17 -80 17h-517q-74 0 -98 -36q-8 -12 -15 -29l-49 -116q-55 -132 -55 -163q0 -50 77 -50l49 8q32 0 32 -29q0 -45 -95 -45q-56 0 -90 5q-68 10 -99 10l-140 -15q-40 0 -58.5 13.5t-18.5 31.5z M504 578q0 -31 113 -31h343q96 0 110 17q5 6 5 14t-7 26l-222 537q-39 96 -59 96q-16 0 -41 -61l-229 -553q-13 -29 -13 -45zM632 1953q0 28 25.5 50.5t53.5 22.5t48.5 -5t42.5 -17q42 -25 97 -92l160 -199q17 -20 17 -31q0 -27 -24 -27q-18 0 -46 15l-238 122 q-110 56 -130 114q-6 19 -6 47z" />
<glyph unicode="&#xc1;" horiz-adv-x="1707" d="M-27 45q0 28 33 28l49 -7q46 0 75 38q55 70 137 251q511 1108 527.5 1141t27.5 49q17 25 35 25t35 -24q26 -40 73 -142l521 -1139q74 -162 130 -190q18 -9 37 -9l49 8q33 0 33 -29q0 -45 -80 -45l-194 15l-245 -15q-51 0 -72.5 15t-21.5 30q0 28 32 28l71 -10 q29 0 42 8.5t13 26.5t-2 31t-6 29q-9 30 -33 82l-77 161q-15 32 -32 42q-28 17 -80 17h-517q-74 0 -98 -36q-8 -12 -15 -29l-49 -116q-55 -132 -55 -163q0 -50 77 -50l49 8q32 0 32 -29q0 -45 -95 -45q-56 0 -90 5q-68 10 -99 10l-140 -15q-40 0 -58.5 13.5t-18.5 31.5z M504 578q0 -31 113 -31h343q96 0 110 17q5 6 5 14t-7 26l-222 537q-39 96 -59 96q-16 0 -41 -61l-229 -553q-13 -29 -13 -45zM632 1682.5q0 10.5 17 30.5l160 199q77 96 139 110q20 4 48.5 4t54 -22.5t25.5 -63t-31 -75.5t-105 -73l-238 -122q-28 -15 -42.5 -15t-21 8.5 t-6.5 19z" />
<glyph unicode="&#xc2;" horiz-adv-x="1707" d="M-27 45q0 28 33 28l49 -7q46 0 75 38q55 70 137 251q511 1108 527.5 1141t27.5 49q17 25 35 25t35 -24q26 -40 73 -142l521 -1139q74 -162 130 -190q18 -9 37 -9l49 8q33 0 33 -29q0 -45 -80 -45l-194 15l-245 -15q-51 0 -72.5 15t-21.5 30q0 28 32 28l71 -10 q29 0 42 8.5t13 26.5t-2 31t-6 29q-9 30 -33 82l-77 161q-15 32 -32 42q-28 17 -80 17h-517q-74 0 -98 -36q-8 -12 -15 -29l-49 -116q-55 -132 -55 -163q0 -50 77 -50l49 8q32 0 32 -29q0 -45 -95 -45q-56 0 -90 5q-68 10 -99 10l-140 -15q-40 0 -58.5 13.5t-18.5 31.5z M504 578q0 -31 113 -31h343q96 0 110 17q5 6 5 14t-7 26l-222 537q-39 96 -59 96q-16 0 -41 -61l-229 -553q-13 -29 -13 -45zM512 1665q0 20 17 39l219 248q59 67 76 72.5t32 5.5q36 0 104 -78l219 -248q17 -19 17 -39q0 -8 -6 -16.5t-17 -8.5q-25 0 -57 21l-263 169 l-261 -169q-32 -21 -49.5 -21t-24 8.5t-6.5 16.5z" />
<glyph unicode="&#xc3;" horiz-adv-x="1707" d="M-27 45q0 28 33 28l49 -7q46 0 75 38q55 70 137 251q511 1108 527.5 1141t27.5 49q17 25 35 25t35 -24q26 -40 73 -142l521 -1139q74 -162 130 -190q18 -9 37 -9l49 8q33 0 33 -29q0 -45 -80 -45l-194 15l-245 -15q-51 0 -72.5 15t-21.5 30q0 28 32 28l71 -10 q29 0 42 8.5t13 26.5t-2 31t-6 29q-9 30 -33 82l-77 161q-15 32 -32 42q-28 17 -80 17h-517q-74 0 -98 -36q-8 -12 -15 -29l-49 -116q-55 -132 -55 -163q0 -50 77 -50l49 8q32 0 32 -29q0 -45 -95 -45q-56 0 -90 5q-68 10 -99 10l-140 -15q-40 0 -58.5 13.5t-18.5 31.5z M475 1716q0 71 84 160q69 73 160 73q84 0 190 -53q94 -45 125 -49.5t46 -4.5q38 0 82 65q28 40 48 40q23 0 23 -23t-6.5 -43t-17.5 -41q-56 -101 -135 -140q-29 -15 -70 -15q-64 0 -195 58q-119 49 -157 49t-61 -16.5t-42 -43.5q-31 -45 -51 -45q-23 0 -23 29zM504 578 q0 -31 113 -31h343q96 0 110 17q5 6 5 14t-7 26l-222 537q-39 96 -59 96q-16 0 -41 -61l-229 -553q-13 -29 -13 -45z" />
<glyph unicode="&#xc4;" horiz-adv-x="1707" d="M-27 45q0 28 33 28l49 -7q46 0 75 38q55 70 137 251q511 1108 527.5 1141t27.5 49q17 25 35 25t35 -24q26 -40 73 -142l521 -1139q74 -162 130 -190q18 -9 37 -9l49 8q33 0 33 -29q0 -45 -80 -45l-194 15l-245 -15q-51 0 -72.5 15t-21.5 30q0 28 32 28l71 -10 q29 0 42 8.5t13 26.5t-2 31t-6 29q-9 30 -33 82l-77 161q-15 32 -32 42q-28 17 -80 17h-517q-74 0 -98 -36q-8 -12 -15 -29l-49 -116q-55 -132 -55 -163q0 -50 77 -50l49 8q32 0 32 -29q0 -45 -95 -45q-56 0 -90 5q-68 10 -99 10l-140 -15q-40 0 -58.5 13.5t-18.5 31.5z M419 1818q0 46 10.5 73.5t29.5 47.5q42 43 93 43t78 -13t45 -35q35 -41 35 -86t-10.5 -71t-29.5 -46.5t-46 -33t-63 -12.5t-63.5 13t-44.5 34q-34 40 -34 86zM504 578q0 -31 113 -31h343q96 0 110 17q5 6 5 14t-7 26l-222 537q-39 96 -59 96q-16 0 -41 -61l-229 -553 q-13 -29 -13 -45zM999 1818q0 46 10.5 73.5t29.5 47.5q42 43 93 43t78 -13t45 -35q35 -41 35 -86t-10.5 -71t-29.5 -46.5t-46 -33t-63 -12.5t-63.5 13t-44.5 34q-34 40 -34 86z" />
<glyph unicode="&#xc5;" horiz-adv-x="1707" d="M-27 45q0 28 33 28l49 -7q46 0 75 38q55 70 137 251q511 1108 527.5 1141t27.5 49q17 25 35 25t35 -24q26 -40 73 -142l521 -1139q74 -162 130 -190q18 -9 37 -9l49 8q33 0 33 -29q0 -45 -80 -45l-194 15l-245 -15q-51 0 -72.5 15t-21.5 30q0 28 32 28l71 -10 q29 0 42 8.5t13 26.5t-2 31t-6 29q-9 30 -33 82l-77 161q-15 32 -32 42q-28 17 -80 17h-517q-74 0 -98 -36q-8 -12 -15 -29l-49 -116q-55 -132 -55 -163q0 -50 77 -50l49 8q32 0 32 -29q0 -45 -95 -45q-56 0 -90 5q-68 10 -99 10l-140 -15q-40 0 -58.5 13.5t-18.5 31.5z M504 578q0 -31 113 -31h343q96 0 110 17q5 6 5 14t-7 26l-222 537q-39 96 -59 96q-16 0 -41 -61l-229 -553q-13 -29 -13 -45zM595 1772q0 107 76 177q76 71 184 71q106 0 182.5 -71t76.5 -177t-77 -176q-73 -68 -182 -68q-54 0 -101.5 17.5t-82.5 50.5q-76 69 -76 176z M704 1772q0 -62 43 -107q44 -45 106 -45q100 0 137 88q12 28 12 62t-11 62t-31 48q-42 44 -92 44t-78 -12t-47 -33q-39 -43 -39 -107z" />
<glyph unicode="&#xc6;" horiz-adv-x="2227" d="M-30 40q0 33 39 33l47 -7q49 0 97 40q92 75 215 249l659 930q69 97 69 141q0 34 -52 36h-31l-49 -7q-33 0 -33 28q0 16 18.5 30.5t62.5 14.5t69 -2l48 -4q24 -4 65 -5l68 -3q26 -1 49 -1h743q8 -71 34 -157q46 -147 46 -171t-16 -24q-14 0 -29 18q-119 135 -146 157 t-49 35.5t-48 23.5q-54 20 -135 20h-267q-56 0 -76.5 -23.5t-20.5 -68.5v-424q0 -57 91 -57h245q72 0 131 70q20 25 29.5 47t15 30t14.5 8q26 0 26 -51l-8 -159l8 -156q0 -50 -26 -50q-14 0 -26.5 30t-33 56t-43.5 43q-46 35 -87 35h-246q-43 0 -66.5 -19.5t-23.5 -47.5 v-442q0 -139 97 -139h207q243 0 398 135q28 25 53 50l49 50q36 36 57 36t21 -14q0 -27 -28.5 -75t-45.5 -79.5t-31 -63t-26 -64.5l-25 -72h-820q-95 0 -128 -5q-66 -10 -121 -10t-73.5 15t-18.5 31q0 27 33 27l64 -7q57 0 78 36q38 68 38 284v89h-452q-72 0 -103 -37 q-10 -12 -21 -28l-80 -116q-94 -137 -94 -171q0 -42 69 -42l51 8q27 0 27 -23q0 -51 -104 -51q-54 0 -88 5q-68 10 -97 10t-43.5 -0.5t-30 -1.5t-29.5 -3l-23 -2q-90 -18 -113.5 -1t-23.5 33zM665 574q0 -27 52 -27h408v711l-439 -635q-21 -31 -21 -49z" />
<glyph unicode="&#xc7;" horiz-adv-x="1707" d="M149 729q0 366 233 603q146 147 350 202q100 27 183.5 27t133 -7.5t89.5 -18.5q62 -17 106 -35q65 -27 81 -27q32 0 64 32l43 43q28 28 41 28q25 0 25 -41.5t1.5 -71t5.5 -57.5q9 -65 25 -124l24 -93q10 -35 10 -58q0 -42 -24 -42q-20 0 -31 23q-83 160 -245 256 q-159 95 -330 95q-241 0 -404 -163q-166 -166 -166 -423q0 -168 54.5 -311.5t148 -249t218 -165t265.5 -59.5q236 0 370 206q49 76 77 187q7 26 14.5 42.5t26.5 16.5t19 -59v-283q-237 -225 -600 -225q-42 0 -84 4l-40 -178q6 1 11 1h11q95 0 162 -42q71 -44 71 -112 q0 -74 -82 -128q-81 -52 -183 -52q-121 0 -183 56q-22 20 -22 43.5t13.5 40t36.5 16.5q37 0 75 -34q61 -55 113 -55t75 23t23 68.5t-34.5 76t-80.5 30.5q-70 0 -113 -16l53 273q-291 52 -462 256q-168 201 -168 481z" />
<glyph unicode="&#xc8;" horiz-adv-x="1367" d="M52 31q0 27 33 27l64 -7q57 0 78 35q38 67 38 235v874q0 123 -14 162t-25 61q-24 44 -92 44l-49 -7q-33 0 -33 28q0 16 18.5 30.5t62.5 14.5t69 -2l48 -4q78 -9 132 -9h812q8 -71 34 -157q46 -147 46 -171t-16 -24q-14 0 -29 18q-119 135 -146 157t-49 35.5t-48 23.5 q-54 20 -135 20h-267q-56 0 -76.5 -23.5t-20.5 -68.5v-424q0 -57 91 -57h245q72 0 131 70q20 25 29.5 47t15 30t14.5 8q26 0 26 -51l-8 -159l8 -156q0 -50 -26 -50q-14 0 -26.5 30t-33 56t-43.5 43q-46 35 -87 35h-246q-43 0 -66.5 -19.5t-23.5 -47.5v-442q0 -139 97 -139 h207q243 0 398 135q28 25 53 50l49 50q36 36 57 36t21 -14q0 -27 -28.5 -75t-45.5 -79.5t-31 -63t-26 -64.5l-25 -72h-820q-95 0 -128 -5q-66 -10 -121 -10t-73.5 15t-18.5 31zM488 1953q0 28 25.5 50.5t53.5 22.5t48.5 -5t42.5 -17q42 -25 97 -92l160 -199q17 -20 17 -31 q0 -27 -24 -27q-18 0 -46 15l-238 122q-110 56 -130 114q-6 19 -6 47z" />
<glyph unicode="&#xc9;" horiz-adv-x="1367" d="M52 31q0 27 33 27l64 -7q57 0 78 35q38 67 38 235v874q0 123 -14 162t-25 61q-24 44 -92 44l-49 -7q-33 0 -33 28q0 16 18.5 30.5t62.5 14.5t69 -2l48 -4q78 -9 132 -9h812q8 -71 34 -157q46 -147 46 -171t-16 -24q-14 0 -29 18q-119 135 -146 157t-49 35.5t-48 23.5 q-54 20 -135 20h-267q-56 0 -76.5 -23.5t-20.5 -68.5v-424q0 -57 91 -57h245q72 0 131 70q20 25 29.5 47t15 30t14.5 8q26 0 26 -51l-8 -159l8 -156q0 -50 -26 -50q-14 0 -26.5 30t-33 56t-43.5 43q-46 35 -87 35h-246q-43 0 -66.5 -19.5t-23.5 -47.5v-442q0 -139 97 -139 h207q243 0 398 135q28 25 53 50l49 50q36 36 57 36t21 -14q0 -27 -28.5 -75t-45.5 -79.5t-31 -63t-26 -64.5l-25 -72h-820q-95 0 -128 -5q-66 -10 -121 -10t-73.5 15t-18.5 31zM488 1682.5q0 10.5 17 30.5l160 199q77 96 139 110q20 4 48.5 4t54 -22.5t25.5 -63t-31 -75.5 t-105 -73l-238 -122q-28 -15 -42.5 -15t-21 8.5t-6.5 19z" />
<glyph unicode="&#xca;" horiz-adv-x="1367" d="M52 31q0 27 33 27l64 -7q57 0 78 35q38 67 38 235v874q0 123 -14 162t-25 61q-24 44 -92 44l-49 -7q-33 0 -33 28q0 16 18.5 30.5t62.5 14.5t69 -2l48 -4q78 -9 132 -9h812q8 -71 34 -157q46 -147 46 -171t-16 -24q-14 0 -29 18q-119 135 -146 157t-49 35.5t-48 23.5 q-54 20 -135 20h-267q-56 0 -76.5 -23.5t-20.5 -68.5v-424q0 -57 91 -57h245q72 0 131 70q20 25 29.5 47t15 30t14.5 8q26 0 26 -51l-8 -159l8 -156q0 -50 -26 -50q-14 0 -26.5 30t-33 56t-43.5 43q-46 35 -87 35h-246q-43 0 -66.5 -19.5t-23.5 -47.5v-442q0 -139 97 -139 h207q243 0 398 135q28 25 53 50l49 50q36 36 57 36t21 -14q0 -27 -28.5 -75t-45.5 -79.5t-31 -63t-26 -64.5l-25 -72h-820q-95 0 -128 -5q-66 -10 -121 -10t-73.5 15t-18.5 31zM368 1665q0 20 17 39l219 248q59 67 76 72.5t32 5.5q36 0 104 -78l219 -248q17 -19 17 -39 q0 -8 -6 -16.5t-17 -8.5q-25 0 -57 21l-263 169l-261 -169q-32 -21 -49.5 -21t-24 8.5t-6.5 16.5z" />
<glyph unicode="&#xcb;" horiz-adv-x="1367" d="M52 31q0 27 33 27l64 -7q57 0 78 35q38 67 38 235v874q0 123 -14 162t-25 61q-24 44 -92 44l-49 -7q-33 0 -33 28q0 16 18.5 30.5t62.5 14.5t69 -2l48 -4q78 -9 132 -9h812q8 -71 34 -157q46 -147 46 -171t-16 -24q-14 0 -29 18q-119 135 -146 157t-49 35.5t-48 23.5 q-54 20 -135 20h-267q-56 0 -76.5 -23.5t-20.5 -68.5v-424q0 -57 91 -57h245q72 0 131 70q20 25 29.5 47t15 30t14.5 8q26 0 26 -51l-8 -159l8 -156q0 -50 -26 -50q-14 0 -26.5 30t-33 56t-43.5 43q-46 35 -87 35h-246q-43 0 -66.5 -19.5t-23.5 -47.5v-442q0 -139 97 -139 h207q243 0 398 135q28 25 53 50l49 50q36 36 57 36t21 -14q0 -27 -28.5 -75t-45.5 -79.5t-31 -63t-26 -64.5l-25 -72h-820q-95 0 -128 -5q-66 -10 -121 -10t-73.5 15t-18.5 31zM275 1818q0 46 10.5 73.5t29.5 47.5q42 43 93 43t78 -13t45 -35q35 -41 35 -86t-10.5 -71 t-29.5 -46.5t-46 -33t-63 -12.5t-63.5 13t-44.5 34q-34 40 -34 86zM855 1818q0 46 10.5 73.5t29.5 47.5q42 43 93 43t78 -13t45 -35q35 -41 35 -86t-10.5 -71t-29.5 -46.5t-46 -33t-63 -12.5t-63.5 13t-44.5 34q-34 40 -34 86z" />
<glyph unicode="&#xcc;" horiz-adv-x="854" d="M103 46q0 27 33 27l64 -7q57 0 78 36q31 55 34.5 116t3.5 103v886q0 124 -14 162.5t-24 56.5q-21 36 -78 36l-64 -7q-33 0 -33 27q0 16 18.5 31t58.5 15q58 0 95.5 -4.5t53.5 -6t33 -2.5q36 -2 65 -2q78 0 111 5q66 10 121 10t73.5 -15t18.5 -31q0 -27 -33 -27l-64 7 q-57 0 -78 -36q-31 -55 -34.5 -116t-3.5 -103v-886q0 -124 14 -162.5t24 -56.5q21 -36 78 -36l64 7q33 0 33 -27q0 -16 -18.5 -31t-58.5 -15q-58 0 -95.5 4.5t-53.5 6t-33 2.5q-36 2 -65 2q-78 0 -111 -5q-159 -24 -194 5q-19 15 -19 31zM205 1953q0 28 25.5 50.5t53.5 22.5 t48.5 -5t42.5 -17q42 -25 97 -92l160 -199q17 -20 17 -31q0 -27 -24 -27q-18 0 -46 15l-238 122q-110 56 -130 114q-6 19 -6 47z" />
<glyph unicode="&#xcd;" horiz-adv-x="854" d="M103 46q0 27 33 27l64 -7q57 0 78 36q31 55 34.5 116t3.5 103v886q0 124 -14 162.5t-24 56.5q-21 36 -78 36l-64 -7q-33 0 -33 27q0 16 18.5 31t58.5 15q58 0 95.5 -4.5t53.5 -6t33 -2.5q36 -2 65 -2q78 0 111 5q66 10 121 10t73.5 -15t18.5 -31q0 -27 -33 -27l-64 7 q-57 0 -78 -36q-31 -55 -34.5 -116t-3.5 -103v-886q0 -124 14 -162.5t24 -56.5q21 -36 78 -36l64 7q33 0 33 -27q0 -16 -18.5 -31t-58.5 -15q-58 0 -95.5 4.5t-53.5 6t-33 2.5q-36 2 -65 2q-78 0 -111 -5q-159 -24 -194 5q-19 15 -19 31zM205 1682.5q0 10.5 17 30.5l160 199 q77 96 139 110q20 4 48.5 4t54 -22.5t25.5 -63t-31 -75.5t-105 -73l-238 -122q-28 -15 -42.5 -15t-21 8.5t-6.5 19z" />
<glyph unicode="&#xce;" horiz-adv-x="854" d="M86 1665q0 20 17 39l219 248q59 67 76 72.5t32 5.5q36 0 104 -78l219 -248q17 -19 17 -39q0 -8 -6 -16.5t-17 -8.5q-25 0 -57 21l-263 169l-261 -169q-32 -21 -49.5 -21t-24 8.5t-6.5 16.5zM103 46q0 27 33 27l64 -7q57 0 78 36q31 55 34.5 116t3.5 103v886 q0 124 -14 162.5t-24 56.5q-21 36 -78 36l-64 -7q-33 0 -33 27q0 16 18.5 31t58.5 15q58 0 95.5 -4.5t53.5 -6t33 -2.5q36 -2 65 -2q78 0 111 5q66 10 121 10t73.5 -15t18.5 -31q0 -27 -33 -27l-64 7q-57 0 -78 -36q-31 -55 -34.5 -116t-3.5 -103v-886q0 -124 14 -162.5 t24 -56.5q21 -36 78 -36l64 7q33 0 33 -27q0 -16 -18.5 -31t-58.5 -15q-58 0 -95.5 4.5t-53.5 6t-33 2.5q-36 2 -65 2q-78 0 -111 -5q-159 -24 -194 5q-19 15 -19 31z" />
<glyph unicode="&#xcf;" horiz-adv-x="854" d="M-7 1818q0 46 10.5 73.5t29.5 47.5q42 43 93 43t78 -13t45 -35q35 -41 35 -86t-10.5 -71t-29.5 -46.5t-46 -33t-63 -12.5t-63.5 13t-44.5 34q-34 40 -34 86zM103 46q0 27 33 27l64 -7q57 0 78 36q31 55 34.5 116t3.5 103v886q0 124 -14 162.5t-24 56.5q-21 36 -78 36 l-64 -7q-33 0 -33 27q0 16 18.5 31t58.5 15q58 0 95.5 -4.5t53.5 -6t33 -2.5q36 -2 65 -2q78 0 111 5q66 10 121 10t73.5 -15t18.5 -31q0 -27 -33 -27l-64 7q-57 0 -78 -36q-31 -55 -34.5 -116t-3.5 -103v-886q0 -124 14 -162.5t24 -56.5q21 -36 78 -36l64 7q33 0 33 -27 q0 -16 -18.5 -31t-58.5 -15q-58 0 -95.5 4.5t-53.5 6t-33 2.5q-36 2 -65 2q-78 0 -111 -5q-159 -24 -194 5q-19 15 -19 31zM573 1818q0 46 10.5 73.5t29.5 47.5q42 43 93 43t78 -13t45 -35q35 -41 35 -86t-10.5 -71t-29.5 -46.5t-46 -33t-63 -12.5t-63.5 13t-44.5 34 q-34 40 -34 86z" />
<glyph unicode="&#xd0;" horiz-adv-x="1880" d="M100 46q0 27 33 27l64 -7q57 0 78 36q31 55 34.5 116t3.5 103v400h-123q-32 0 -52 9t-20 42t20.5 39.5t54.5 6.5h120v377q0 123 -14 162t-25 61q-24 44 -92 44l-49 -7q-33 0 -33 28q0 16 18.5 30.5t62.5 14.5t69 -2l48 -4q69 -8 135 -8q101 0 199 10q178 18 273 18 q390 0 625 -210t235 -562q0 -342 -260 -570q-256 -224 -633 -224q-83 0 -142 8l-107 15q-110 16 -157.5 16t-65.5 -0.5t-36 -1.5q-44 -2 -64 -5q-147 -21 -182 7q-18 15 -18 31zM539 239q0 -90 65 -125q72 -38 242.5 -38t292.5 37t206 117q173 166 173 518q0 343 -184 523 q-178 174 -486.5 174t-308.5 -134v-493h354q57 0 69 -24q6 -10 6 -34q0 -39 -74 -39h-355v-482z" />
<glyph unicode="&#xd1;" horiz-adv-x="1876" d="M82 1506.5q0 21.5 53 21.5l309 -11l1040 -1099v782q0 124 -14 162.5t-24 57.5q-21 35 -78 35l-73 -7q-33 0 -33 27q0 16 19.5 31t70.5 15l188 -15q27 0 67 6q69 9 117 9t66.5 -15t18.5 -31q0 -27 -33 -27l-64 7q-57 0 -78 -36q-31 -55 -34.5 -116t-3.5 -103v-1019 q0 -121 22 -161q8 -14 22 -26q20 -17 20 -35q0 -24 -29 -24q-39 0 -106 73l-1054 1126v-813q0 -124 14 -162.5t25 -56.5q20 -36 77 -36l73 7q33 0 33 -27q0 -16 -19.5 -31t-70.5 -15l-188 15q-27 0 -67 -5q-202 -28 -202 36q0 27 33 27l64 -7q57 0 78 36q31 55 34.5 116 t3.5 103l1 832q0 49 -25 102t-41 75t-35 42.5t-41 39.5q-50 42 -83 54q-53 19 -53 40.5zM566 1716q0 71 84 160q69 73 160 73q84 0 190 -53q94 -45 125 -49.5t46 -4.5q38 0 82 65q28 40 48 40q23 0 23 -23t-6.5 -43t-17.5 -41q-56 -101 -135 -140q-29 -15 -70 -15 q-64 0 -195 58q-119 49 -157 49t-61 -16.5t-42 -43.5q-31 -45 -51 -45q-23 0 -23 29z" />
<glyph unicode="&#xd2;" horiz-adv-x="1880" d="M132 734q0 174 58 326.5t166 263.5q231 237 610 237q220 0 403 -109q175 -103 277 -280q102 -178 102 -386q0 -376 -245 -598q-232 -211 -574 -211q-361 0 -580 208q-217 207 -217 549zM340 889q0 -238 106 -429q98 -174 262 -273q159 -96 334 -96q202 0 333 141 q141 152 141 416q0 219 -94 410q-89 178 -242 286q-154 107 -325 107q-219 0 -365 -157q-150 -161 -150 -405zM718 1953q0 28 25.5 50.5t53.5 22.5t48.5 -5t42.5 -17q42 -25 97 -92l160 -199q17 -20 17 -31q0 -27 -24 -27q-18 0 -46 15l-238 122q-110 56 -130 114 q-6 19 -6 47z" />
<glyph unicode="&#xd3;" horiz-adv-x="1880" d="M132 734q0 174 58 326.5t166 263.5q231 237 610 237q220 0 403 -109q175 -103 277 -280q102 -178 102 -386q0 -376 -245 -598q-232 -211 -574 -211q-361 0 -580 208q-217 207 -217 549zM340 889q0 -238 106 -429q98 -174 262 -273q159 -96 334 -96q202 0 333 141 q141 152 141 416q0 219 -94 410q-89 178 -242 286q-154 107 -325 107q-219 0 -365 -157q-150 -161 -150 -405zM718 1682.5q0 10.5 17 30.5l160 199q77 96 139 110q20 4 48.5 4t54 -22.5t25.5 -63t-31 -75.5t-105 -73l-238 -122q-28 -15 -42.5 -15t-21 8.5t-6.5 19z" />
<glyph unicode="&#xd4;" horiz-adv-x="1880" d="M132 734q0 174 58 326.5t166 263.5q231 237 610 237q220 0 403 -109q175 -103 277 -280q102 -178 102 -386q0 -376 -245 -598q-232 -211 -574 -211q-361 0 -580 208q-217 207 -217 549zM340 889q0 -238 106 -429q98 -174 262 -273q159 -96 334 -96q202 0 333 141 q141 152 141 416q0 219 -94 410q-89 178 -242 286q-154 107 -325 107q-219 0 -365 -157q-150 -161 -150 -405zM598 1665q0 20 17 39l219 248q59 67 76 72.5t32 5.5q36 0 104 -78l219 -248q17 -19 17 -39q0 -8 -6 -16.5t-17 -8.5q-25 0 -57 21l-263 169l-261 -169 q-32 -21 -49.5 -21t-24 8.5t-6.5 16.5z" />
<glyph unicode="&#xd5;" horiz-adv-x="1880" d="M132 734q0 174 58 326.5t166 263.5q231 237 610 237q220 0 403 -109q175 -103 277 -280q102 -178 102 -386q0 -376 -245 -598q-232 -211 -574 -211q-361 0 -580 208q-217 207 -217 549zM340 889q0 -238 106 -429q98 -174 262 -273q159 -96 334 -96q202 0 333 141 q141 152 141 416q0 219 -94 410q-89 178 -242 286q-154 107 -325 107q-219 0 -365 -157q-150 -161 -150 -405zM561 1716q0 71 84 160q69 73 160 73q84 0 190 -53q94 -45 125 -49.5t46 -4.5q38 0 82 65q28 40 48 40q23 0 23 -23t-6.5 -43t-17.5 -41q-56 -101 -135 -140 q-29 -15 -70 -15q-64 0 -195 58q-119 49 -157 49t-61 -16.5t-42 -43.5q-31 -45 -51 -45q-23 0 -23 29z" />
<glyph unicode="&#xd6;" horiz-adv-x="1880" d="M132 734q0 174 58 326.5t166 263.5q231 237 610 237q220 0 403 -109q175 -103 277 -280q102 -178 102 -386q0 -376 -245 -598q-232 -211 -574 -211q-361 0 -580 208q-217 207 -217 549zM340 889q0 -238 106 -429q98 -174 262 -273q159 -96 334 -96q202 0 333 141 q141 152 141 416q0 219 -94 410q-89 178 -242 286q-154 107 -325 107q-219 0 -365 -157q-150 -161 -150 -405zM505 1818q0 46 10.5 73.5t29.5 47.5q42 43 93 43t78 -13t45 -35q35 -41 35 -86t-10.5 -71t-29.5 -46.5t-46 -33t-63 -12.5t-63.5 13t-44.5 34q-34 40 -34 86z M1085 1818q0 46 10.5 73.5t29.5 47.5q42 43 93 43t78 -13t45 -35q35 -41 35 -86t-10.5 -71t-29.5 -46.5t-46 -33t-63 -12.5t-63.5 13t-44.5 34q-34 40 -34 86z" />
<glyph unicode="&#xd7;" horiz-adv-x="1175" d="M150 982l100 100l339 -340l331 331l97 -97l-331 -331l339 -340l-100 -100l-339 340l-331 -331l-97 97l331 331z" />
<glyph unicode="&#xd8;" horiz-adv-x="1880" d="M132 717q0 191 58 343.5t166 263.5q231 237 610 237q212 0 387 -99l141 207q22 31 36.5 40.5t34 9.5t34.5 -11.5t15 -32.5q0 -30 -36 -85l-129 -192q216 -169 279 -434q20 -87 20 -197t-30 -220t-84.5 -200t-130.5 -159t-167 -116q-184 -95 -407 -95q-213 0 -388 79 l-142 -211q-34 -48 -63 -48q-59 0 -59 50q0 25 32 74l130 192q-147 98 -227 255.5t-80 348.5zM340 889q0 -359 226 -589l674 995q-175 156 -385 156q-219 0 -365 -157q-150 -161 -150 -405zM654 223q179 -132 388 -132q202 0 333 141q141 152 141 416q0 325 -194 563z" />
<glyph unicode="&#xd9;" horiz-adv-x="1874" d="M67 1482q0 16 18.5 31t58.5 15q58 0 95.5 -4.5t53.5 -6t33 -2.5q36 -2 65 -2q78 0 111 5q66 10 121 10t73.5 -15t18.5 -31q0 -27 -33 -27l-64 7q-57 0 -78 -36q-31 -55 -34.5 -116t-3.5 -103v-702q0 -201 120 -317q117 -113 326.5 -113t384.5 149v983q0 124 -14 162.5 t-25 56.5q-20 36 -77 36l-64 -7q-33 0 -33 27q0 16 18.5 31t58.5 15q58 0 95.5 -4.5t53.5 -6t34 -2.5q34 -2 64 -2q78 0 111 5q66 10 121 10t73.5 -15t18.5 -31q0 -27 -33 -27l-64 7q-57 0 -78 -36q-31 -55 -34.5 -116t-3.5 -103l3 -862q0 -188 16.5 -228t40.5 -47t51 -7 l56 7q32 0 32 -25q0 -48 -93 -48l-153 9q-13 0 -25 -1l-25 -2q-27 -3 -59 -3q-63 0 -66 117q-198 -140 -430 -140q-301 0 -463 151q-160 148 -160 417v662q0 124 -14 162.5t-24 56.5q-21 36 -78 36l-64 -7q-33 0 -33 27zM695 1953q0 28 25.5 50.5t53.5 22.5t48.5 -5 t42.5 -17q42 -25 97 -92l160 -199q17 -20 17 -31q0 -27 -24 -27q-18 0 -46 15l-238 122q-110 56 -130 114q-6 19 -6 47z" />
<glyph unicode="&#xda;" horiz-adv-x="1874" d="M67 1482q0 16 18.5 31t58.5 15q58 0 95.5 -4.5t53.5 -6t33 -2.5q36 -2 65 -2q78 0 111 5q66 10 121 10t73.5 -15t18.5 -31q0 -27 -33 -27l-64 7q-57 0 -78 -36q-31 -55 -34.5 -116t-3.5 -103v-702q0 -201 120 -317q117 -113 326.5 -113t384.5 149v983q0 124 -14 162.5 t-25 56.5q-20 36 -77 36l-64 -7q-33 0 -33 27q0 16 18.5 31t58.5 15q58 0 95.5 -4.5t53.5 -6t34 -2.5q34 -2 64 -2q78 0 111 5q66 10 121 10t73.5 -15t18.5 -31q0 -27 -33 -27l-64 7q-57 0 -78 -36q-31 -55 -34.5 -116t-3.5 -103l3 -862q0 -188 16.5 -228t40.5 -47t51 -7 l56 7q32 0 32 -25q0 -48 -93 -48l-153 9q-13 0 -25 -1l-25 -2q-27 -3 -59 -3q-63 0 -66 117q-198 -140 -430 -140q-301 0 -463 151q-160 148 -160 417v662q0 124 -14 162.5t-24 56.5q-21 36 -78 36l-64 -7q-33 0 -33 27zM695 1682.5q0 10.5 17 30.5l160 199q77 96 139 110 q20 4 48.5 4t54 -22.5t25.5 -63t-31 -75.5t-105 -73l-238 -122q-28 -15 -42.5 -15t-21 8.5t-6.5 19z" />
<glyph unicode="&#xdb;" horiz-adv-x="1874" d="M67 1482q0 16 18.5 31t58.5 15q58 0 95.5 -4.5t53.5 -6t33 -2.5q36 -2 65 -2q78 0 111 5q66 10 121 10t73.5 -15t18.5 -31q0 -27 -33 -27l-64 7q-57 0 -78 -36q-31 -55 -34.5 -116t-3.5 -103v-702q0 -201 120 -317q117 -113 326.5 -113t384.5 149v983q0 124 -14 162.5 t-25 56.5q-20 36 -77 36l-64 -7q-33 0 -33 27q0 16 18.5 31t58.5 15q58 0 95.5 -4.5t53.5 -6t34 -2.5q34 -2 64 -2q78 0 111 5q66 10 121 10t73.5 -15t18.5 -31q0 -27 -33 -27l-64 7q-57 0 -78 -36q-31 -55 -34.5 -116t-3.5 -103l3 -862q0 -188 16.5 -228t40.5 -47t51 -7 l56 7q32 0 32 -25q0 -48 -93 -48l-153 9q-13 0 -25 -1l-25 -2q-27 -3 -59 -3q-63 0 -66 117q-198 -140 -430 -140q-301 0 -463 151q-160 148 -160 417v662q0 124 -14 162.5t-24 56.5q-21 36 -78 36l-64 -7q-33 0 -33 27zM575 1665q0 20 17 39l219 248q59 67 76 72.5t32 5.5 q36 0 104 -78l219 -248q17 -19 17 -39q0 -8 -6 -16.5t-17 -8.5q-25 0 -57 21l-263 169l-261 -169q-32 -21 -49.5 -21t-24 8.5t-6.5 16.5z" />
<glyph unicode="&#xdc;" horiz-adv-x="1874" d="M67 1482q0 16 18.5 31t58.5 15q58 0 95.5 -4.5t53.5 -6t33 -2.5q36 -2 65 -2q78 0 111 5q66 10 121 10t73.5 -15t18.5 -31q0 -27 -33 -27l-64 7q-57 0 -78 -36q-31 -55 -34.5 -116t-3.5 -103v-702q0 -201 120 -317q117 -113 326.5 -113t384.5 149v983q0 124 -14 162.5 t-25 56.5q-20 36 -77 36l-64 -7q-33 0 -33 27q0 16 18.5 31t58.5 15q58 0 95.5 -4.5t53.5 -6t34 -2.5q34 -2 64 -2q78 0 111 5q66 10 121 10t73.5 -15t18.5 -31q0 -27 -33 -27l-64 7q-57 0 -78 -36q-31 -55 -34.5 -116t-3.5 -103l3 -862q0 -188 16.5 -228t40.5 -47t51 -7 l56 7q32 0 32 -25q0 -48 -93 -48l-153 9q-13 0 -25 -1l-25 -2q-27 -3 -59 -3q-63 0 -66 117q-198 -140 -430 -140q-301 0 -463 151q-160 148 -160 417v662q0 124 -14 162.5t-24 56.5q-21 36 -78 36l-64 -7q-33 0 -33 27zM482 1818q0 46 10.5 73.5t29.5 47.5q42 43 93 43 t78 -13t45 -35q35 -41 35 -86t-10.5 -71t-29.5 -46.5t-46 -33t-63 -12.5t-63.5 13t-44.5 34q-34 40 -34 86zM1062 1818q0 46 10.5 73.5t29.5 47.5q42 43 93 43t78 -13t45 -35q35 -41 35 -86t-10.5 -71t-29.5 -46.5t-46 -33t-63 -12.5t-63.5 13t-44.5 34q-34 40 -34 86z" />
<glyph unicode="&#xdd;" horiz-adv-x="1539" d="M-52 1481q0 18 21.5 32.5t66.5 14.5l197 -14l266 14q96 0 96 -47q0 -25 -32 -25l-76 9q-68 0 -68 -41q0 -35 45 -103l369 -559l339 500q77 119 77 161.5t-68 42.5l-76 -10q-32 0 -32 25q0 19 22 33t62.5 14t66.5 -2l48 -5q56 -7 86 -7q46 0 76 4l46 8q17 2 44 2t50 -12.5 t23 -36.5t-33 -24l-66 8q-55 0 -83 -37l-540 -762v-343q0 -124 14 -162.5t25 -56.5q20 -36 77 -36l94 10q16 0 24.5 -9t8.5 -23t-23.5 -29t-56.5 -15t-51.5 0.5t-36.5 1.5q-29 2 -50.5 4.5t-37.5 4t-34 2.5q-34 2 -64 2q-78 0 -106.5 -4.5t-44.5 -6t-35 -2.5 q-114 -6 -141 11t-27 31q0 32 33 32l94 -10q57 0 78 36q31 55 34.5 116t3.5 103v347l-528 758q-15 21 -33.5 29t-55.5 8l-55 -8q-33 0 -33 26zM550 1682.5q0 10.5 17 30.5l160 199q77 96 139 110q20 4 48.5 4t54 -22.5t25.5 -63t-31 -75.5t-105 -73l-238 -122 q-28 -15 -42.5 -15t-21 8.5t-6.5 19z" />
<glyph unicode="&#xde;" horiz-adv-x="1539" d="M111 46q0 27 33 27l64 -7q57 0 78 36q31 55 34.5 116t3.5 103v886q0 124 -14 162.5t-24 56.5q-21 36 -78 36l-64 -7q-33 0 -33 27q0 16 18.5 31t58.5 15q58 0 95.5 -4.5t53.5 -6t33 -2.5q36 -2 65 -2q78 0 106.5 4.5t44.5 6t34 2.5q38 2 80 2t65.5 -15t23.5 -29 q0 -32 -33 -32l-94 10q-57 0 -78 -36q-31 -55 -34.5 -116t-3.5 -103v-10q140 36 279.5 36t252 -30.5t190.5 -86.5q158 -115 158 -312q0 -159 -94 -274q-124 -153 -376 -193q-75 -12 -182.5 -12t-227.5 30q0 -251 69 -281q20 -8 47 -8l94 10q16 0 24.5 -9t8.5 -23t-23.5 -29 t-56.5 -15t-51.5 0.5t-37.5 1.5q-28 2 -49.5 4.5t-37.5 4t-33 2.5q-36 2 -65 2q-78 0 -111 -5q-159 -24 -194 5q-19 15 -19 31zM546 483q111 -59 280 -59q162 0 258 80q99 84 99 226q0 183 -124 296q-121 109 -311 109q-84 0 -127 -28q-75 -50 -75 -116v-508z" />
<glyph unicode="&#xdf;" horiz-adv-x="1390" d="M40 45q0 28 33 28l49 -7q59 0 79 52q28 76 30 230v745q0 466 265 575q83 35 184 35t179.5 -29.5t133.5 -81.5q113 -108 113 -279q0 -119 -82 -225q-75 -97 -192 -147q211 -30 348 -173q141 -144 141 -329q0 -212 -115 -339q-113 -124 -293 -124q-100 0 -164 62 q-60 58 -60 137q0 34 28 34q20 0 38 -42.5t61 -71t89 -28.5t79.5 22t55.5 63q45 81 45 212t-27.5 217t-77.5 145q-100 117 -282 140q-48 6 -73 12t-25 26t13 26.5t46.5 15.5t73.5 30.5t71 60.5q71 87 71 252t-57 249t-162 80q-143 -6 -185 -209q-15 -72 -15 -173v-888 q0 -186 10.5 -226t23 -48t32.5 -8l49 7q32 0 32 -28q0 -45 -99 -45l-163 15q-15 0 -35 -1l-38 -2q-34 -2 -55 -5q-48 -7 -78 -7q-95 0 -95 45z" />
<glyph unicode="&#xe0;" horiz-adv-x="1366" d="M173 293q0 162 129 245q113 73 291 73t320 -76v120q0 141 -83 217q-77 70 -212 70q-159 0 -288 -176q-47 -62 -71 -62t-24 22t13 60q25 73 25 209q0 44 32 44q40 0 90 -39q14 -11 24 -11q14 0 34 7.5t45.5 13t54.5 10.5q70 12 106 12q391 0 455 -245q19 -73 19 -156v-286 q0 -145 7 -179t16.5 -57t37.5 -35t55 -12l56 8q32 0 32 -26q0 -47 -93 -47l-153 9q-13 0 -27 -1l-26 -2q-27 -3 -59 -3q-57 0 -65 102q-88 -91 -232 -118q-46 -8 -121.5 -8t-153.5 22.5t-130 63.5q-104 82 -104 231zM406 309q0 -46 16.5 -88.5t48.5 -72.5q66 -62 189 -62 q112 0 202 68q29 22 51 51v238q-77 48 -185 67q-35 6 -84 6t-96.5 -16.5t-79 -44.5t-47 -64t-15.5 -82zM420 1489q0 27 25.5 49.5t53 22.5t47 -3.5t40.5 -15.5q44 -24 101 -95l160 -199q17 -20 17 -30q0 -28 -27 -28q-15 0 -43 15l-238 122q-114 57 -131 117q-5 18 -5 45z " />
<glyph unicode="&#xe1;" horiz-adv-x="1366" d="M173 293q0 162 129 245q113 73 291 73t320 -76v120q0 141 -83 217q-77 70 -212 70q-159 0 -288 -176q-47 -62 -71 -62t-24 22t13 60q25 73 25 209q0 44 32 44q40 0 90 -39q14 -11 24 -11q14 0 34 7.5t45.5 13t54.5 10.5q70 12 106 12q391 0 455 -245q19 -73 19 -156v-286 q0 -145 7 -179t16.5 -57t37.5 -35t55 -12l56 8q32 0 32 -26q0 -47 -93 -47l-153 9q-13 0 -27 -1l-26 -2q-27 -3 -59 -3q-57 0 -65 102q-88 -91 -232 -118q-46 -8 -121.5 -8t-153.5 22.5t-130 63.5q-104 82 -104 231zM406 309q0 -46 16.5 -88.5t48.5 -72.5q66 -62 189 -62 q112 0 202 68q29 22 51 51v238q-77 48 -185 67q-35 6 -84 6t-96.5 -16.5t-79 -44.5t-47 -64t-15.5 -82zM420 1217.5q0 10.5 17 30.5l160 199q57 71 89 89q46 25 86.5 25t66 -22.5t25.5 -49.5t-5 -44.5t-19 -36.5q-34 -42 -112 -81l-238 -122q-28 -15 -42.5 -15t-21 8.5 t-6.5 19z" />
<glyph unicode="&#xe2;" horiz-adv-x="1366" d="M173 293q0 162 129 245q113 73 291 73t320 -76v120q0 141 -83 217q-77 70 -212 70q-159 0 -288 -176q-47 -62 -71 -62t-24 22t13 60q25 73 25 209q0 44 32 44q40 0 90 -39q14 -11 24 -11q14 0 34 7.5t45.5 13t54.5 10.5q70 12 106 12q391 0 455 -245q19 -73 19 -156v-286 q0 -145 7 -179t16.5 -57t37.5 -35t55 -12l56 8q32 0 32 -26q0 -47 -93 -47l-153 9q-13 0 -27 -1l-26 -2q-27 -3 -59 -3q-57 0 -65 102q-88 -91 -232 -118q-46 -8 -121.5 -8t-153.5 22.5t-130 63.5q-104 82 -104 231zM300 1220q0 20 17 39l219 248q59 67 76 72.5t27.5 5.5 t21 -3t23.5 -12q27 -19 64 -63l219 -248q17 -19 17 -39q0 -8 -6 -16.5t-17 -8.5q-26 0 -57 21l-263 169l-261 -169q-31 -21 -49 -21q-31 0 -31 25zM406 309q0 -46 16.5 -88.5t48.5 -72.5q66 -62 189 -62q112 0 202 68q29 22 51 51v238q-77 48 -185 67q-35 6 -84 6 t-96.5 -16.5t-79 -44.5t-47 -64t-15.5 -82z" />
<glyph unicode="&#xe3;" horiz-adv-x="1366" d="M173 293q0 162 129 245q113 73 291 73t320 -76v120q0 141 -83 217q-77 70 -212 70q-159 0 -288 -176q-47 -62 -71 -62t-24 22t13 60q25 73 25 209q0 44 32 44q40 0 90 -39q14 -11 24 -11q14 0 34 7.5t45.5 13t54.5 10.5q70 12 106 12q391 0 455 -245q19 -73 19 -156v-286 q0 -145 7 -179t16.5 -57t37.5 -35t55 -12l56 8q32 0 32 -26q0 -47 -93 -47l-153 9q-13 0 -27 -1l-26 -2q-27 -3 -59 -3q-57 0 -65 102q-88 -91 -232 -118q-46 -8 -121.5 -8t-153.5 22.5t-130 63.5q-104 82 -104 231zM293 1267q0 71 84 160q69 73 145 73q60 0 99 -18 t70 -34.5t55.5 -28t40.5 -17.5q24 -9 44 -9q45 0 89 65q28 40 48 40q23 0 23 -23t-6.5 -43t-17.5 -41q-56 -101 -135 -141q-29 -14 -65 -14q-76 0 -183 57q-80 43 -100.5 46.5t-38.5 3.5q-36 0 -81 -65q-28 -40 -48 -40q-23 0 -23 29zM406 309q0 -46 16.5 -88.5t48.5 -72.5 q66 -62 189 -62q112 0 202 68q29 22 51 51v238q-77 48 -185 67q-35 6 -84 6t-96.5 -16.5t-79 -44.5t-47 -64t-15.5 -82z" />
<glyph unicode="&#xe4;" horiz-adv-x="1366" d="M173 293q0 162 129 245q113 73 291 73t320 -76v120q0 141 -83 217q-77 70 -212 70q-159 0 -288 -176q-47 -62 -71 -62t-24 22t13 60q25 73 25 209q0 44 32 44q40 0 90 -39q14 -11 24 -11q14 0 34 7.5t45.5 13t54.5 10.5q70 12 106 12q391 0 455 -245q19 -73 19 -156v-286 q0 -145 7 -179t16.5 -57t37.5 -35t55 -12l56 8q32 0 32 -26q0 -47 -93 -47l-153 9q-13 0 -27 -1l-26 -2q-27 -3 -59 -3q-57 0 -65 102q-88 -91 -232 -118q-46 -8 -121.5 -8t-153.5 22.5t-130 63.5q-104 82 -104 231zM257 1353q0 46 10.5 73.5t29.5 47.5q42 43 93 43t78 -13 t45 -34q35 -42 35 -87t-10.5 -71t-29.5 -46.5t-46 -33t-63 -12.5t-63.5 13t-44.5 34q-34 40 -34 86zM406 309q0 -46 16.5 -88.5t48.5 -72.5q66 -62 189 -62q112 0 202 68q29 22 51 51v238q-77 48 -185 67q-35 6 -84 6t-96.5 -16.5t-79 -44.5t-47 -64t-15.5 -82zM737 1353 q0 46 10.5 73.5t29.5 47.5q42 43 93 43t78 -13t45 -34q35 -42 35 -87t-10.5 -71t-29.5 -46.5t-46 -33t-63 -12.5t-63.5 13t-44.5 34q-34 40 -34 86z" />
<glyph unicode="&#xe5;" horiz-adv-x="1366" d="M173 293q0 162 129 245q113 73 291 73t320 -76v120q0 141 -83 217q-77 70 -212 70q-159 0 -288 -176q-47 -62 -71 -62t-24 22t13 60q25 73 25 209q0 44 32 44q40 0 90 -39q14 -11 24 -11q14 0 34 7.5t45.5 13t54.5 10.5q70 12 106 12q391 0 455 -245q19 -73 19 -156v-286 q0 -145 7 -179t16.5 -57t37.5 -35t55 -12l56 8q32 0 32 -26q0 -47 -93 -47l-153 9q-13 0 -27 -1l-26 -2q-27 -3 -59 -3q-57 0 -65 102q-88 -91 -232 -118q-46 -8 -121.5 -8t-153.5 22.5t-130 63.5q-104 82 -104 231zM406 309q0 -46 16.5 -88.5t48.5 -72.5q66 -62 189 -62 q112 0 202 68q29 22 51 51v238q-77 48 -185 67q-35 6 -84 6t-96.5 -16.5t-79 -44.5t-47 -64t-15.5 -82zM414 1431q0 93 66 156q66 62 162 62q95 0 161 -62q67 -63 67 -156t-67 -155q-65 -59 -161 -59q-48 0 -89.5 15.5t-72.5 43.5q-66 63 -66 155zM522 1431 q0 -49 25.5 -75.5t47.5 -36.5t46.5 -10t46 8t38.5 23q35 34 35 89t-33 89.5t-74 34.5t-63 -10t-37 -27q-32 -33 -32 -85z" />
<glyph unicode="&#xe6;" horiz-adv-x="2012" d="M173 293q0 140 132.5 229t308.5 89t298 -56q-9 303 -168 366q-54 21 -131 21q-154 0 -283 -176q-47 -62 -71 -62t-24 22t13 60q25 73 25 209q0 44 32 44q22 0 49 -14q50 -26 65 -26q10 0 19 3t36 10q68 20 185 20q277 0 392 -178q117 127 301 166q59 12 119 12 q296 0 441 -264q24 -41 24 -68q0 -49 -44 -65q-293 -105 -572 -171l-165 -40q46 -160 165 -250q110 -82 218 -82q212 0 307 136q15 21 24.5 30t22.5 9q28 0 28 -26q0 -35 -37 -86q-132 -179 -414.5 -179t-435.5 180q-117 -130 -301 -168q-60 -12 -144 -12t-165 22.5 t-137 63.5q-113 84 -113 231zM406 299q0 -96 75.5 -154.5t194 -58.5t240.5 82q37 26 68 58q-62 106 -70 238q-106 52 -232 52t-201 -60.5t-75 -156.5zM1134 591q0 -33 5 -83q325 79 536 152q24 8 24 28t-8 45.5t-23 53.5t-37 55.5t-51 49.5q-64 48 -130 48t-122 -23t-99 -67 q-95 -97 -95 -259z" />
<glyph unicode="&#xe7;" horiz-adv-x="1196" d="M122 505q0 211 144 363q157 164 404 164q94 0 201 -32q33 -11 45 -11q19 0 60.5 21.5t63.5 21.5q29 0 29 -36.5t0.5 -67.5t3.5 -57q6 -52 19.5 -91t13.5 -53q0 -25 -23 -25t-81.5 72.5t-145 119t-166 46.5t-137 -27.5t-101.5 -76.5q-94 -108 -94 -272q0 -204 119 -342 q113 -130 271 -130q122 0 218 76q33 25 52.5 53t29 37t22 9t21 -7.5t8.5 -17.5q0 -38 -47 -98t-126 -105t-178 -58l-40 -178q6 1 12 1h10q95 0 162 -42q71 -44 71 -112q0 -74 -83 -128q-80 -52 -182 -52q-121 0 -183 56q-22 20 -22 43.5t13.5 40t35.5 16.5q38 0 76 -34 q61 -55 113 -55t75 23t23 68.5t-34.5 76t-80.5 30.5q-70 0 -113 -16l50 258q-228 8 -378 155q-151 147 -151 373z" />
<glyph unicode="&#xe8;" horiz-adv-x="1194" d="M93 494q0 113 40.5 208.5t114.5 168.5q162 161 403 161q178 0 303 -96q75 -58 138 -168q26 -46 26 -73q0 -44 -46 -60q-266 -97 -564 -169l-163 -39q35 -156 145 -247q105 -88 239 -88q127 0 240 81q35 25 53 50.5t27.5 34.5t22.5 9q28 0 28 -26q0 -35 -35 -83 t-79.5 -81.5t-96.5 -56.5q-103 -44 -225.5 -44t-225.5 36t-179.5 104.5t-121 166.5t-44.5 211zM332 531q0 -10 1 -20q340 85 522 149q24 8 24 28t-8 45.5t-23 53.5t-37 55.5t-51 49.5q-64 48 -130 48t-119 -23.5t-93 -71.5q-86 -103 -86 -293v-21zM431 1489q0 27 25.5 49.5 t53 22.5t47 -3.5t40.5 -15.5q44 -24 101 -95l160 -199q17 -20 17 -30q0 -28 -27 -28q-15 0 -43 15l-238 122q-114 57 -131 117q-5 18 -5 45z" />
<glyph unicode="&#xe9;" horiz-adv-x="1194" d="M93 494q0 113 40.5 208.5t114.5 168.5q162 161 403 161q178 0 303 -96q75 -58 138 -168q26 -46 26 -73q0 -44 -46 -60q-266 -97 -564 -169l-163 -39q35 -156 145 -247q105 -88 239 -88q127 0 240 81q35 25 53 50.5t27.5 34.5t22.5 9q28 0 28 -26q0 -35 -35 -83 t-79.5 -81.5t-96.5 -56.5q-103 -44 -225.5 -44t-225.5 36t-179.5 104.5t-121 166.5t-44.5 211zM332 531q0 -10 1 -20q340 85 522 149q24 8 24 28t-8 45.5t-23 53.5t-37 55.5t-51 49.5q-64 48 -130 48t-119 -23.5t-93 -71.5q-86 -103 -86 -293v-21zM431 1217.5 q0 10.5 17 30.5l160 199q57 71 89 89q46 25 86.5 25t66 -22.5t25.5 -49.5t-5 -44.5t-19 -36.5q-34 -42 -112 -81l-238 -122q-28 -15 -42.5 -15t-21 8.5t-6.5 19z" />
<glyph unicode="&#xea;" horiz-adv-x="1194" d="M93 494q0 113 40.5 208.5t114.5 168.5q162 161 403 161q178 0 303 -96q75 -58 138 -168q26 -46 26 -73q0 -44 -46 -60q-266 -97 -564 -169l-163 -39q35 -156 145 -247q105 -88 239 -88q127 0 240 81q35 25 53 50.5t27.5 34.5t22.5 9q28 0 28 -26q0 -35 -35 -83 t-79.5 -81.5t-96.5 -56.5q-103 -44 -225.5 -44t-225.5 36t-179.5 104.5t-121 166.5t-44.5 211zM311 1220q0 20 17 39l219 248q59 67 76 72.5t27.5 5.5t21 -3t23.5 -12q27 -19 64 -63l219 -248q17 -19 17 -39q0 -8 -6 -16.5t-17 -8.5q-26 0 -57 21l-263 169l-261 -169 q-31 -21 -49 -21q-31 0 -31 25zM332 531q0 -10 1 -20q340 85 522 149q24 8 24 28t-8 45.5t-23 53.5t-37 55.5t-51 49.5q-64 48 -130 48t-119 -23.5t-93 -71.5q-86 -103 -86 -293v-21z" />
<glyph unicode="&#xeb;" horiz-adv-x="1194" d="M93 494q0 113 40.5 208.5t114.5 168.5q162 161 403 161q178 0 303 -96q75 -58 138 -168q26 -46 26 -73q0 -44 -46 -60q-266 -97 -564 -169l-163 -39q35 -156 145 -247q105 -88 239 -88q127 0 240 81q35 25 53 50.5t27.5 34.5t22.5 9q28 0 28 -26q0 -35 -35 -83 t-79.5 -81.5t-96.5 -56.5q-103 -44 -225.5 -44t-225.5 36t-179.5 104.5t-121 166.5t-44.5 211zM268 1353q0 46 10.5 73.5t29.5 47.5q42 43 93 43t78 -13t45 -34q35 -42 35 -87t-10.5 -71t-29.5 -46.5t-46 -33t-63 -12.5t-63.5 13t-44.5 34q-34 40 -34 86zM332 531 q0 -10 1 -20q340 85 522 149q24 8 24 28t-8 45.5t-23 53.5t-37 55.5t-51 49.5q-64 48 -130 48t-119 -23.5t-93 -71.5q-86 -103 -86 -293v-21zM748 1353q0 46 10.5 73.5t29.5 47.5q42 43 93 43t78 -13t45 -34q35 -42 35 -87t-10.5 -71t-29.5 -46.5t-46 -33t-63 -12.5 t-63.5 13t-44.5 34q-34 40 -34 86z" />
<glyph unicode="&#xec;" horiz-adv-x="855" d="M130 970q0 39 60 39l145 -12q19 0 37 2l74 8q19 2 37 2t32 -3t23 -16q21 -26 21 -103v-539q0 -140 10 -176.5t21 -59.5q22 -46 85 -46l49 7q32 0 32 -28q0 -45 -99 -45q-29 0 -46.5 2.5t-32.5 3.5l-31 4q-16 1 -34 2l-36 2t-33 1t-34 -1l-38 -2q-35 -2 -56 -5 q-48 -7 -78 -7q-95 0 -95 45q0 28 33 28l49 -7q59 0 79 52q30 81 30 230v291q0 195 -44 253q-20 26 -48.5 34.5t-55 12t-41.5 10t-15 21.5zM199 1489q0 27 25.5 49.5t53 22.5t47 -3.5t40.5 -15.5q44 -24 101 -95l160 -199q17 -20 17 -30q0 -28 -27 -28q-15 0 -43 15 l-238 122q-114 57 -131 117q-5 18 -5 45z" />
<glyph unicode="&#xed;" horiz-adv-x="855" d="M130 970q0 39 60 39l145 -12q19 0 37 2l74 8q19 2 37 2t32 -3t23 -16q21 -26 21 -103v-539q0 -140 10 -176.5t21 -59.5q22 -46 85 -46l49 7q32 0 32 -28q0 -45 -99 -45q-29 0 -46.5 2.5t-32.5 3.5l-31 4q-16 1 -34 2l-36 2t-33 1t-34 -1l-38 -2q-35 -2 -56 -5 q-48 -7 -78 -7q-95 0 -95 45q0 28 33 28l49 -7q59 0 79 52q30 81 30 230v291q0 195 -44 253q-20 26 -48.5 34.5t-55 12t-41.5 10t-15 21.5zM199 1217.5q0 10.5 17 30.5l160 199q57 71 89 89q46 25 86.5 25t66 -22.5t25.5 -49.5t-5 -44.5t-19 -36.5q-34 -42 -112 -81 l-238 -122q-28 -15 -42.5 -15t-21 8.5t-6.5 19z" />
<glyph unicode="&#xee;" horiz-adv-x="855" d="M80 1220q0 20 17 39l219 248q59 67 76 72.5t27.5 5.5t21 -3t23.5 -12q27 -19 64 -63l219 -248q17 -19 17 -39q0 -8 -6 -16.5t-17 -8.5q-26 0 -57 21l-263 169l-261 -169q-31 -21 -49 -21q-31 0 -31 25zM130 970q0 39 60 39l145 -12q19 0 37 2l74 8q19 2 37 2t32 -3 t23 -16q21 -26 21 -103v-539q0 -140 10 -176.5t21 -59.5q22 -46 85 -46l49 7q32 0 32 -28q0 -45 -99 -45q-29 0 -46.5 2.5t-32.5 3.5l-31 4q-16 1 -34 2l-36 2t-33 1t-34 -1l-38 -2q-35 -2 -56 -5q-48 -7 -78 -7q-95 0 -95 45q0 28 33 28l49 -7q59 0 79 52q30 81 30 230v291 q0 195 -44 253q-20 26 -48.5 34.5t-55 12t-41.5 10t-15 21.5z" />
<glyph unicode="&#xef;" horiz-adv-x="855" d="M37 1353q0 46 10.5 73.5t29.5 47.5q42 43 93 43t78 -13t45 -34q35 -42 35 -87t-10.5 -71t-29.5 -46.5t-46 -33t-63 -12.5t-63.5 13t-44.5 34q-34 40 -34 86zM130 970q0 39 60 39l145 -12q19 0 37 2l74 8q19 2 37 2t32 -3t23 -16q21 -26 21 -103v-539q0 -140 10 -176.5 t21 -59.5q22 -46 85 -46l49 7q32 0 32 -28q0 -45 -99 -45q-29 0 -46.5 2.5t-32.5 3.5l-31 4q-16 1 -34 2l-36 2t-33 1t-34 -1l-38 -2q-35 -2 -56 -5q-48 -7 -78 -7q-95 0 -95 45q0 28 33 28l49 -7q59 0 79 52q30 81 30 230v291q0 195 -44 253q-20 26 -48.5 34.5t-55 12 t-41.5 10t-15 21.5zM517 1353q0 46 10.5 73.5t29.5 47.5q42 43 93 43t78 -13t45 -34q35 -42 35 -87t-10.5 -71t-29.5 -46.5t-46 -33t-63 -12.5t-63.5 13t-44.5 34q-34 40 -34 86z" />
<glyph unicode="&#xf0;" horiz-adv-x="1355" d="M121 477q0 218 151 361.5t383 143.5q175 0 321 -91q-47 241 -172 402l-273 -87q-59 -19 -82 -19t-36 13.5t-13 33.5q0 37 59 57l270 86q-159 153 -425 242q-61 19 -61 51.5t49 32.5q65 0 182 -36q240 -74 423 -236l248 79q69 23 95 23t39 -13.5t13 -31.5q0 -41 -81 -66 l-230 -73q262 -290 262 -683q0 -312 -167 -504q-160 -182 -401 -182q-249 0 -400 134q-154 136 -154 363zM351 518q0 -86 28 -168.5t77 -143.5q104 -132 254 -132q213 -3 277 249q21 83 21 179t-25 165t-70 119q-95 104 -243 104q-152 0 -238 -105q-81 -99 -81 -267z" />
<glyph unicode="&#xf1;" horiz-adv-x="1532" d="M111 970q0 39 60 39l145 -12q19 0 37 2l74 8q19 2 37 2t32 -3t24 -16q20 -26 20 -103v-38q166 183 389 183q194 0 279 -120q65 -90 65 -238v-326q0 -132 10 -172t18.5 -62.5t30 -35t42.5 -12.5l52 7q31 0 31 -27q0 -46 -91 -46q-26 0 -65 6q-106 15 -162 10l-71 -6 q-17 -2 -36 -4q-43 -6 -72 -6q-100 0 -100 45q0 28 33 28l52 -7q90 0 99 141q4 54 4 141v288q0 184 -104 252q-41 26 -96 26t-97.5 -14t-80.5 -37q-73 -44 -130 -119v-396q0 -140 10 -176.5t21 -59.5q22 -46 85 -46l49 7q32 0 32 -28q0 -45 -99 -45q-29 0 -46.5 2.5 t-32.5 3.5l-31 4q-16 1 -34 2l-36 2t-33 1t-35 -1l-38 -2q-34 -2 -55 -5q-48 -7 -78 -7q-95 0 -95 45q0 28 33 28l49 -7q59 0 79 52q30 81 30 230v291q0 195 -44 253q-20 26 -48.5 34.5t-55 12t-41.5 10t-15 21.5zM447 1267q0 71 84 160q69 73 145 73q60 0 99 -18t70 -34.5 t55.5 -28t40.5 -17.5q24 -9 44 -9q45 0 89 65q28 40 48 40q23 0 23 -23t-6.5 -43t-17.5 -41q-56 -101 -135 -141q-29 -14 -65 -14q-76 0 -183 57q-80 43 -100.5 46.5t-38.5 3.5q-36 0 -81 -65q-28 -40 -48 -40q-23 0 -23 29z" />
<glyph unicode="&#xf2;" horiz-adv-x="1366" d="M123 527q0 84 43.5 180.5t119.5 168.5q163 156 398 156q269 0 424 -162q134 -141 134 -348q0 -238 -142 -388q-151 -158 -412 -158q-376 0 -512 284q-53 111 -53 267zM359 568q0 -94 31.5 -189t83.5 -165q113 -150 260 -150q112 0 188 96q80 100 80 237.5t-33 236 t-86 167t-120 104.5t-129 36t-111 -26.5t-85.5 -73.5t-57.5 -113t-21 -160zM460 1489q0 27 25.5 49.5t53 22.5t47 -3.5t40.5 -15.5q44 -24 101 -95l160 -199q17 -20 17 -30q0 -28 -27 -28q-15 0 -43 15l-238 122q-114 57 -131 117q-5 18 -5 45z" />
<glyph unicode="&#xf3;" horiz-adv-x="1366" d="M123 527q0 84 43.5 180.5t119.5 168.5q163 156 398 156q269 0 424 -162q134 -141 134 -348q0 -238 -142 -388q-151 -158 -412 -158q-376 0 -512 284q-53 111 -53 267zM359 568q0 -94 31.5 -189t83.5 -165q113 -150 260 -150q112 0 188 96q80 100 80 237.5t-33 236 t-86 167t-120 104.5t-129 36t-111 -26.5t-85.5 -73.5t-57.5 -113t-21 -160zM460 1217.5q0 10.5 17 30.5l160 199q57 71 89 89q46 25 86.5 25t66 -22.5t25.5 -49.5t-5 -44.5t-19 -36.5q-34 -42 -112 -81l-238 -122q-28 -15 -42.5 -15t-21 8.5t-6.5 19z" />
<glyph unicode="&#xf4;" horiz-adv-x="1366" d="M123 527q0 84 43.5 180.5t119.5 168.5q163 156 398 156q269 0 424 -162q134 -141 134 -348q0 -238 -142 -388q-151 -158 -412 -158q-376 0 -512 284q-53 111 -53 267zM340 1220q0 20 17 39l219 248q59 67 76 72.5t27.5 5.5t21 -3t23.5 -12q27 -19 64 -63l219 -248 q17 -19 17 -39q0 -8 -6 -16.5t-17 -8.5q-26 0 -57 21l-263 169l-261 -169q-31 -21 -49 -21q-31 0 -31 25zM359 568q0 -94 31.5 -189t83.5 -165q113 -150 260 -150q112 0 188 96q80 100 80 237.5t-33 236t-86 167t-120 104.5t-129 36t-111 -26.5t-85.5 -73.5t-57.5 -113 t-21 -160z" />
<glyph unicode="&#xf5;" horiz-adv-x="1366" d="M123 527q0 84 43.5 180.5t119.5 168.5q163 156 398 156q269 0 424 -162q134 -141 134 -348q0 -238 -142 -388q-151 -158 -412 -158q-376 0 -512 284q-53 111 -53 267zM333 1267q0 71 84 160q69 73 145 73q60 0 99 -18t70 -34.5t55.5 -28t40.5 -17.5q24 -9 44 -9 q45 0 89 65q28 40 48 40q23 0 23 -23t-6.5 -43t-17.5 -41q-56 -101 -135 -141q-29 -14 -65 -14q-76 0 -183 57q-80 43 -100.5 46.5t-38.5 3.5q-36 0 -81 -65q-28 -40 -48 -40q-23 0 -23 29zM359 568q0 -94 31.5 -189t83.5 -165q113 -150 260 -150q112 0 188 96 q80 100 80 237.5t-33 236t-86 167t-120 104.5t-129 36t-111 -26.5t-85.5 -73.5t-57.5 -113t-21 -160z" />
<glyph unicode="&#xf6;" horiz-adv-x="1366" d="M123 527q0 84 43.5 180.5t119.5 168.5q163 156 398 156q269 0 424 -162q134 -141 134 -348q0 -238 -142 -388q-151 -158 -412 -158q-376 0 -512 284q-53 111 -53 267zM297 1353q0 46 10.5 73.5t29.5 47.5q42 43 93 43t78 -13t45 -34q35 -42 35 -87t-10.5 -71t-29.5 -46.5 t-46 -33t-63 -12.5t-63.5 13t-44.5 34q-34 40 -34 86zM359 568q0 -94 31.5 -189t83.5 -165q113 -150 260 -150q112 0 188 96q80 100 80 237.5t-33 236t-86 167t-120 104.5t-129 36t-111 -26.5t-85.5 -73.5t-57.5 -113t-21 -160zM777 1353q0 46 10.5 73.5t29.5 47.5 q42 43 93 43t78 -13t45 -34q35 -42 35 -87t-10.5 -71t-29.5 -46.5t-46 -33t-63 -12.5t-63.5 13t-44.5 34q-34 40 -34 86z" />
<glyph unicode="&#xf7;" horiz-adv-x="1285" d="M150 575v137h985v-137h-985zM498 268.5q0 29.5 10.5 57t29.5 47.5q42 43 93 43t78 -13t45 -35q35 -41 35 -86t-10.5 -71t-29.5 -47q-42 -45 -93.5 -45t-79 13t-45 34t-25.5 47t-8 55.5zM498 1004q0 46 10.5 73.5t29.5 47.5q42 43 93 43t78 -13t45 -35q35 -41 35 -86 t-10.5 -71t-29.5 -46.5t-46 -33t-63 -12.5t-63.5 13t-44.5 34q-34 40 -34 86z" />
<glyph unicode="&#xf8;" horiz-adv-x="1366" d="M123 494q0 117 43.5 213.5t119.5 168.5q163 156 398 156q146 0 265 -51l133 196q22 31 36.5 40.5t34 9.5t34.5 -11.5t15 -32.5q0 -33 -36 -85l-118 -175q144 -111 182 -290q12 -56 12 -141t-36 -184.5t-106 -173t-173.5 -116t-239.5 -42.5t-250 43l-127 -189 q-34 -48 -63 -48q-59 0 -59 50q0 25 32 74l113 167q-104 71 -161 197q-49 107 -49 224zM359 584q0 -188 92 -337l400 589q-103 105 -222 105q-114 0 -191 -100q-79 -101 -79 -257zM528 154q96 -90 206 -90q112 0 188 96q80 100 80 251q0 185 -79 328z" />
<glyph unicode="&#xf9;" horiz-adv-x="1532" d="M75 964q0 48 93 48l153 -9q13 0 25 1l25 2q27 3 52.5 3t38 -5.5t20.5 -21.5q14 -29 14 -118v-543q0 -176 130 -221q41 -14 90 -14q133 0 267 136v442q0 188 -16.5 228t-40.5 47t-51 7l-56 -7q-32 0 -32 25q0 48 93 48l153 -9q13 0 25 1l25 2q27 3 52.5 3t38 -5.5 t20.5 -21.5q14 -31 14 -119v-518q0 -188 16.5 -228t40.5 -47t51 -7l56 7q32 0 32 -25q0 -48 -93 -48l-153 9q-13 0 -25 -1l-25 -2q-27 -3 -49.5 -3t-34 5t-20.5 18q-17 27 -21 91q-138 -138 -321 -138q-169 0 -280 97q-111 98 -111 249v343q0 187 -16.5 227t-40.5 47t-51 7 l-56 -7q-32 0 -32 25zM467 1489q0 27 25.5 49.5t53 22.5t47 -3.5t40.5 -15.5q44 -24 101 -95l160 -199q17 -20 17 -30q0 -28 -27 -28q-15 0 -43 15l-238 122q-114 57 -131 117q-5 18 -5 45z" />
<glyph unicode="&#xfa;" horiz-adv-x="1532" d="M75 964q0 48 93 48l153 -9q13 0 25 1l25 2q27 3 52.5 3t38 -5.5t20.5 -21.5q14 -29 14 -118v-543q0 -176 130 -221q41 -14 90 -14q133 0 267 136v442q0 188 -16.5 228t-40.5 47t-51 7l-56 -7q-32 0 -32 25q0 48 93 48l153 -9q13 0 25 1l25 2q27 3 52.5 3t38 -5.5 t20.5 -21.5q14 -31 14 -119v-518q0 -188 16.5 -228t40.5 -47t51 -7l56 7q32 0 32 -25q0 -48 -93 -48l-153 9q-13 0 -25 -1l-25 -2q-27 -3 -49.5 -3t-34 5t-20.5 18q-17 27 -21 91q-138 -138 -321 -138q-169 0 -280 97q-111 98 -111 249v343q0 187 -16.5 227t-40.5 47t-51 7 l-56 -7q-32 0 -32 25zM467 1217.5q0 10.5 17 30.5l160 199q57 71 89 89q46 25 86.5 25t66 -22.5t25.5 -49.5t-5 -44.5t-19 -36.5q-34 -42 -112 -81l-238 -122q-28 -15 -42.5 -15t-21 8.5t-6.5 19z" />
<glyph unicode="&#xfb;" horiz-adv-x="1532" d="M75 964q0 48 93 48l153 -9q13 0 25 1l25 2q27 3 52.5 3t38 -5.5t20.5 -21.5q14 -29 14 -118v-543q0 -176 130 -221q41 -14 90 -14q133 0 267 136v442q0 188 -16.5 228t-40.5 47t-51 7l-56 -7q-32 0 -32 25q0 48 93 48l153 -9q13 0 25 1l25 2q27 3 52.5 3t38 -5.5 t20.5 -21.5q14 -31 14 -119v-518q0 -188 16.5 -228t40.5 -47t51 -7l56 7q32 0 32 -25q0 -48 -93 -48l-153 9q-13 0 -25 -1l-25 -2q-27 -3 -49.5 -3t-34 5t-20.5 18q-17 27 -21 91q-138 -138 -321 -138q-169 0 -280 97q-111 98 -111 249v343q0 187 -16.5 227t-40.5 47t-51 7 l-56 -7q-32 0 -32 25zM347 1220q0 20 17 39l219 248q59 67 76 72.5t27.5 5.5t21 -3t23.5 -12q27 -19 64 -63l219 -248q17 -19 17 -39q0 -8 -6 -16.5t-17 -8.5q-26 0 -57 21l-263 169l-261 -169q-31 -21 -49 -21q-31 0 -31 25z" />
<glyph unicode="&#xfc;" horiz-adv-x="1532" d="M75 964q0 48 93 48l153 -9q13 0 25 1l25 2q27 3 52.5 3t38 -5.5t20.5 -21.5q14 -29 14 -118v-543q0 -176 130 -221q41 -14 90 -14q133 0 267 136v442q0 188 -16.5 228t-40.5 47t-51 7l-56 -7q-32 0 -32 25q0 48 93 48l153 -9q13 0 25 1l25 2q27 3 52.5 3t38 -5.5 t20.5 -21.5q14 -31 14 -119v-518q0 -188 16.5 -228t40.5 -47t51 -7l56 7q32 0 32 -25q0 -48 -93 -48l-153 9q-13 0 -25 -1l-25 -2q-27 -3 -49.5 -3t-34 5t-20.5 18q-17 27 -21 91q-138 -138 -321 -138q-169 0 -280 97q-111 98 -111 249v343q0 187 -16.5 227t-40.5 47t-51 7 l-56 -7q-32 0 -32 25zM304 1353q0 46 10.5 73.5t29.5 47.5q42 43 93 43t78 -13t45 -34q35 -42 35 -87t-10.5 -71t-29.5 -46.5t-46 -33t-63 -12.5t-63.5 13t-44.5 34q-34 40 -34 86zM784 1353q0 46 10.5 73.5t29.5 47.5q42 43 93 43t78 -13t45 -34q35 -42 35 -87t-10.5 -71 t-29.5 -46.5t-46 -33t-63 -12.5t-63.5 13t-44.5 34q-34 40 -34 86z" />
<glyph unicode="&#xfd;" horiz-adv-x="1366" d="M-7 958q0 51 92 51l196 -16l266 16q72 0 89 -31q4 -9 4 -17q0 -25 -32 -25l-76 9q-72 0 -72 -55q0 -25 20 -69l264 -613l228 572q31 82 31 120q0 45 -63 45l-82 -9q-32 0 -32 22q0 51 91 51q26 0 51 -3l51 -6q56 -7 92.5 -7t73 8t78.5 8t63.5 -14t21.5 -36.5t-32 -22.5 l-56 8q-59 0 -106 -57t-109 -210l-332 -814q-145 -301 -284 -351q-40 -15 -85 -15t-88 13.5t-73 36.5q-61 47 -61 117q0 32 18.5 53t45.5 21t44.5 -15.5t33.5 -43.5t26.5 -41.5t22.5 -21.5q22 -16 55 -16t57 10t53 46q61 74 160 285l1 4l-375 776q-91 186 -148 213 q-18 9 -35 9l-56 -7q-32 0 -32 22zM523 1217.5q0 10.5 17 30.5l160 199q57 71 89 89q46 25 86.5 25t66 -22.5t25.5 -49.5t-5 -44.5t-19 -36.5q-34 -42 -112 -81l-238 -122q-28 -15 -42.5 -15t-21 8.5t-6.5 19z" />
<glyph unicode="&#xfe;" horiz-adv-x="1364" d="M4 1489q0 39 60 39l145 -12q19 0 37 2l74 8q19 2 37 2t32 -3t23 -15q21 -27 21 -104v-458q123 84 266.5 84t246 -36t174.5 -104q148 -141 148 -387q0 -219 -156 -373q-158 -156 -388 -156q-175 0 -291 74v-232q0 -140 10 -176.5t21 -59.5q22 -46 85 -46l49 7q32 0 32 -28 q0 -45 -99 -45l-213 15q-15 0 -34 -1l-38 -2q-35 -2 -56 -5q-48 -7 -78 -7q-95 0 -95 45q0 28 33 28l49 -7q59 0 79 52q30 81 30 230v1340q0 195 -44 253q-20 26 -48.5 34.5t-55 12t-41.5 10t-15 21.5zM433 236q55 -122 194 -158q41 -10 101 -10t121 32t103 85 q86 109 86 270q0 219 -105 354q-103 132 -264 132q-126 0 -236 -100v-605z" />
<glyph unicode="&#xff;" horiz-adv-x="1366" d="M-7 958q0 51 92 51l196 -16l266 16q72 0 89 -31q4 -9 4 -17q0 -25 -32 -25l-76 9q-72 0 -72 -55q0 -25 20 -69l264 -613l228 572q31 82 31 120q0 45 -63 45l-82 -9q-32 0 -32 22q0 51 91 51q26 0 51 -3l51 -6q56 -7 92.5 -7t73 8t78.5 8t63.5 -14t21.5 -36.5t-32 -22.5 l-56 8q-59 0 -106 -57t-109 -210l-332 -814q-145 -301 -284 -351q-40 -15 -85 -15t-88 13.5t-73 36.5q-61 47 -61 117q0 32 18.5 53t45.5 21t44.5 -15.5t33.5 -43.5t26.5 -41.5t22.5 -21.5q22 -16 55 -16t57 10t53 46q61 74 160 285l1 4l-375 776q-91 186 -148 213 q-18 9 -35 9l-56 -7q-32 0 -32 22zM360 1353q0 46 10.5 73.5t29.5 47.5q42 43 93 43t78 -13t45 -34q35 -42 35 -87t-10.5 -71t-29.5 -46.5t-46 -33t-63 -12.5t-63.5 13t-44.5 34q-34 40 -34 86zM840 1353q0 46 10.5 73.5t29.5 47.5q42 43 93 43t78 -13t45 -34q35 -42 35 -87 t-10.5 -71t-29.5 -46.5t-46 -33t-63 -12.5t-63.5 13t-44.5 34q-34 40 -34 86z" />
<glyph unicode="&#x152;" horiz-adv-x="2258" d="M132 729q0 365 224 595q231 237 610 237q98 0 163 -15t89.5 -19.5t55.5 -7.5q64 -6 170 -6h641q8 -71 34 -157q46 -147 46 -171t-16 -24q-14 0 -29 18q-119 135 -146 157t-49 35.5t-49 23.5q-52 20 -134 20h-267q-56 0 -76.5 -23.5t-20.5 -68.5v-424q0 -57 91 -57h245 q72 0 130 70q21 25 30.5 47t15 30t14.5 8q26 0 26 -51l-8 -159l8 -156q0 -50 -26 -50q-14 0 -26.5 30t-33 56t-42.5 43q-47 35 -88 35h-246q-43 0 -66.5 -19.5t-23.5 -47.5v-442q0 -139 97 -139h207q243 0 398 135q28 25 52 50l50 50q36 36 57 36t21 -14q0 -27 -28.5 -75 t-45.5 -79.5t-31 -63t-26 -64.5l-25 -72h-820q-95 0 -123.5 -4.5t-57.5 -7t-63 -4.5q-87 -7 -111 -7q-361 0 -580 208q-217 207 -217 544zM340 889q0 -238 106 -429q98 -174 262 -273q159 -96 334 -96q61 0 114 13v1272q-146 75 -277.5 75t-225.5 -41.5t-163 -115.5 q-150 -161 -150 -405z" />
<glyph unicode="&#x153;" horiz-adv-x="2101" d="M123 527q0 84 43.5 180.5t119.5 168.5q163 156 398 156q273 0 438 -191q11 13 23 25l25 24q157 142 388 142q178 0 304 -96q74 -58 137 -168q26 -46 26 -73q0 -44 -46 -60q-274 -100 -565 -171l-162 -38q35 -155 144 -246q106 -88 240 -88q127 0 240 81q35 25 53 50.5 t27.5 34.5t22.5 9q28 0 28 -26q0 -35 -35 -83t-79.5 -81.5t-96.5 -56.5q-103 -44 -233 -44t-242.5 48.5t-190.5 135.5q-72 -83 -185.5 -133.5t-237.5 -50.5t-206.5 22.5t-145.5 61t-107 90.5t-72 110.5t-40.5 120.5t-12.5 146zM359 568q0 -94 31.5 -189t83.5 -165 q113 -150 260 -150q112 0 188 96q80 100 80 237.5t-33 236t-86 167t-120 104.5t-129 36t-111 -26.5t-85.5 -73.5t-57.5 -113t-21 -160zM1239 531q0 -10 1 -20q319 78 522 149q24 8 24 28t-8 45.5t-23 53.5t-37 55.5t-50 49.5q-65 48 -131 48t-119 -23.5t-93 -71.5 q-86 -103 -86 -293v-21z" />
<glyph unicode="&#x178;" horiz-adv-x="1539" d="M-52 1481q0 18 21.5 32.5t66.5 14.5l197 -14l266 14q96 0 96 -47q0 -25 -32 -25l-76 9q-68 0 -68 -41q0 -35 45 -103l369 -559l339 500q77 119 77 161.5t-68 42.5l-76 -10q-32 0 -32 25q0 19 22 33t62.5 14t66.5 -2l48 -5q56 -7 86 -7q46 0 76 4l46 8q17 2 44 2t50 -12.5 t23 -36.5t-33 -24l-66 8q-55 0 -83 -37l-540 -762v-343q0 -124 14 -162.5t25 -56.5q20 -36 77 -36l94 10q16 0 24.5 -9t8.5 -23t-23.5 -29t-56.5 -15t-51.5 0.5t-36.5 1.5q-29 2 -50.5 4.5t-37.5 4t-34 2.5q-34 2 -64 2q-78 0 -106.5 -4.5t-44.5 -6t-35 -2.5 q-114 -6 -141 11t-27 31q0 32 33 32l94 -10q57 0 78 36q31 55 34.5 116t3.5 103v347l-528 758q-15 21 -33.5 29t-55.5 8l-55 -8q-33 0 -33 26zM337 1818q0 46 10.5 73.5t29.5 47.5q42 43 93 43t78 -13t45 -35q35 -41 35 -86t-10.5 -71t-29.5 -46.5t-46 -33t-63 -12.5 t-63.5 13t-44.5 34q-34 40 -34 86zM917 1818q0 46 10.5 73.5t29.5 47.5q42 43 93 43t78 -13t45 -35q35 -41 35 -86t-10.5 -71t-29.5 -46.5t-46 -33t-63 -12.5t-63.5 13t-44.5 34q-34 40 -34 86z" />
<glyph unicode="&#x2c6;" horiz-adv-x="884" d="M100 1220q0 20 17 39l219 248q59 67 76 72.5t27.5 5.5t21 -3t23.5 -12q27 -19 64 -63l219 -248q17 -19 17 -39q0 -8 -6 -16.5t-17 -8.5q-26 0 -57 21l-263 169l-261 -169q-31 -21 -49 -21q-31 0 -31 25z" />
<glyph unicode="&#x2dc;" horiz-adv-x="898" d="M100 1267q0 71 84 160q69 73 145 73q60 0 99 -18t70 -34.5t55.5 -28t40.5 -17.5q24 -9 44 -9q45 0 89 65q28 40 48 40q23 0 23 -23t-6.5 -43t-17.5 -41q-56 -101 -135 -141q-29 -14 -65 -14q-76 0 -183 57q-80 43 -100.5 46.5t-38.5 3.5q-36 0 -81 -65q-28 -40 -48 -40 q-23 0 -23 29z" />
<glyph unicode="&#x2000;" horiz-adv-x="1015" />
<glyph unicode="&#x2001;" horiz-adv-x="2030" />
<glyph unicode="&#x2002;" horiz-adv-x="1015" />
<glyph unicode="&#x2003;" horiz-adv-x="2030" />
<glyph unicode="&#x2004;" horiz-adv-x="676" />
<glyph unicode="&#x2005;" horiz-adv-x="507" />
<glyph unicode="&#x2006;" horiz-adv-x="338" />
<glyph unicode="&#x2007;" horiz-adv-x="338" />
<glyph unicode="&#x2008;" horiz-adv-x="253" />
<glyph unicode="&#x2009;" horiz-adv-x="406" />
<glyph unicode="&#x200a;" horiz-adv-x="112" />
<glyph unicode="&#x2010;" horiz-adv-x="875" d="M140 622q0 68 73 68h449q73 0 73 -68q0 -32 -19.5 -50.5t-51.5 -18.5h-453q-32 0 -51.5 18.5t-19.5 50.5z" />
<glyph unicode="&#x2011;" horiz-adv-x="875" d="M140 622q0 68 73 68h449q73 0 73 -68q0 -32 -19.5 -50.5t-51.5 -18.5h-453q-32 0 -51.5 18.5t-19.5 50.5z" />
<glyph unicode="&#x2012;" horiz-adv-x="875" d="M140 622q0 68 73 68h449q73 0 73 -68q0 -32 -19.5 -50.5t-51.5 -18.5h-453q-32 0 -51.5 18.5t-19.5 50.5z" />
<glyph unicode="&#x2013;" horiz-adv-x="1066" d="M0 622q0 68 73 68h920q73 0 73 -68q0 -32 -19.5 -50.5t-51.5 -18.5h-924q-32 0 -51.5 18.5t-19.5 50.5z" />
<glyph unicode="&#x2014;" horiz-adv-x="1647" d="M80 622q0 68 73 68h1341q73 0 73 -68q0 -32 -19.5 -50.5t-51.5 -18.5h-1345q-32 0 -51.5 18.5t-19.5 50.5z" />
<glyph unicode="&#x2018;" horiz-adv-x="512" d="M90 1189q0 127 92 250q92 122 187 122q49 0 49 -40q0 -28 -41.5 -46t-68.5 -39.5t-45 -43.5q-37 -47 -34 -79t16.5 -47t65.5 -30q110 -33 110 -137q0 -96 -87 -133q-27 -11 -62 -11q-85 0 -133.5 59.5t-48.5 174.5z" />
<glyph unicode="&#x2019;" horiz-adv-x="512" d="M90 1417q0 96 87 133q27 11 62 11q85 0 133.5 -59.5t48.5 -174.5q0 -127 -92 -250q-92 -122 -187 -122q-49 0 -49 40q0 28 41.5 46t68.5 39.5t45 43.5q37 47 34 79t-16.5 47t-65.5 30q-110 33 -110 137z" />
<glyph unicode="&#x201a;" horiz-adv-x="512" d="M90 70q0 96 87 133q27 11 62 11q85 0 133.5 -59.5t48.5 -174.5q0 -127 -92 -250q-92 -122 -187 -122q-49 0 -49 40q0 28 41.5 46t68.5 39.5t45 43.5q37 47 34 79t-16.5 47t-65.5 30q-110 33 -110 137z" />
<glyph unicode="&#x201c;" horiz-adv-x="1030" d="M109 1189q0 127 92 250q92 122 187 122q49 0 49 -40q0 -28 -41.5 -46t-68.5 -39.5t-45 -43.5q-37 -47 -34 -79t16.5 -47t65.5 -30q110 -33 110 -137q0 -96 -87 -133q-27 -11 -62 -11q-85 0 -133.5 59.5t-48.5 174.5zM589 1189q0 127 92 250q92 122 187 122q49 0 49 -40 q0 -28 -41.5 -46t-68.5 -39.5t-45 -43.5q-37 -47 -34 -79t16.5 -47t65.5 -30q110 -33 110 -137q0 -96 -87 -133q-27 -11 -62 -11q-85 0 -133.5 59.5t-48.5 174.5z" />
<glyph unicode="&#x201d;" horiz-adv-x="1030" d="M99 1417q0 96 87 133q27 11 62 11q85 0 133.5 -59.5t48.5 -174.5q0 -127 -92 -250q-92 -122 -187 -122q-49 0 -49 40q0 28 41.5 46t68.5 39.5t45 43.5q37 47 34 79t-16.5 47t-65.5 30q-110 33 -110 137zM579 1417q0 96 87 133q27 11 62 11q85 0 133.5 -59.5t48.5 -174.5 q0 -127 -92 -250q-92 -122 -187 -122q-49 0 -49 40q0 28 41.5 46t68.5 39.5t45 43.5q37 47 34 79t-16.5 47t-65.5 30q-110 33 -110 137z" />
<glyph unicode="&#x201e;" horiz-adv-x="1030" d="M99 68q0 96 87 133q27 11 62 11q85 0 133.5 -59.5t48.5 -174.5q0 -127 -92 -250q-92 -122 -187 -122q-49 0 -49 40q0 28 41.5 46t68.5 39.5t45 43.5q37 47 34 79t-16.5 47t-65.5 30q-110 33 -110 137zM579 68q0 96 87 133q27 11 62 11q85 0 133.5 -59.5t48.5 -174.5 q0 -127 -92 -250q-92 -122 -187 -122q-49 0 -49 40q0 28 41.5 46t68.5 39.5t45 43.5q37 47 34 79t-16.5 47t-65.5 30q-110 33 -110 137z" />
<glyph unicode="&#x2022;" horiz-adv-x="689" d="M130 626q0 87 60 150q62 66 158 66q100 0 159 -72q52 -64 52 -148q0 -72 -59 -134q-64 -68 -160 -68q-52 0 -92.5 19t-66.5 49q-51 59 -51 138z" />
<glyph unicode="&#x2026;" horiz-adv-x="1761" d="M130 136q0 29 12 59t34 53q48 50 121 50q76 0 121 -56q39 -49 39 -113q0 -56 -45 -102q-49 -51 -105.5 -51t-87 15t-50.5 38t-29.5 50.5t-9.5 56.5zM717 136q0 29 12 59t34 53q48 50 121 50q76 0 120 -56q40 -49 40 -113q0 -56 -44 -102q-50 -51 -106.5 -51t-87 15 t-50.5 38t-29.5 50.5t-9.5 56.5zM1304 136q0 29 12 59t34 53q48 50 121 50q76 0 121 -56q39 -49 39 -113q0 -56 -45 -102q-49 -51 -105.5 -51t-87 15t-50.5 38t-29.5 50.5t-9.5 56.5z" />
<glyph unicode="&#x202f;" horiz-adv-x="406" />
<glyph unicode="&#x2039;" horiz-adv-x="692" d="M80 523q0 13 30.5 29t82.5 52t110 84q137 113 217 217l21 28q21 29 33 29q18 0 18 -28t-18 -74.5t-50 -103.5q-73 -130 -174 -233q101 -103 174 -233q68 -121 68 -163.5t-18 -42.5q-12 0 -26 20l-28 37q-80 104 -217 217q-114 95 -161.5 120t-54.5 30.5t-7 14.5z" />
<glyph unicode="&#x203a;" horiz-adv-x="692" d="M100 126.5q0 -42.5 18 -42.5q12 0 26 20l28 37q80 104 217 217q114 95 161.5 120t54.5 30.5t7 14.5q0 13 -30.5 29t-82.5 52t-110 84q-137 113 -217 217l-21 28q-21 29 -33 29q-18 0 -18 -28t18 -74.5t50 -103.5q73 -130 174 -233q-101 -103 -174 -233 q-68 -121 -68 -163.5z" />
<glyph unicode="&#x205f;" horiz-adv-x="507" />
<glyph unicode="&#x20ac;" horiz-adv-x="1700" d="M-50 608.5q0 22.5 6 34.5t17 18q17 9 62 9h118q-4 46 -4 94.5t6 98.5h-143q-28 0 -45 6.5t-17 29t6 34.5t17 18q17 9 62 9h137q64 269 277.5 435t490.5 166q192 0 338 -61q40 -17 53 -17t19.5 0.5t13.5 4.5q14 6 35 27l33 33q28 28 41 28q25 0 25 -53q0 -121 16 -181 l26 -94q9 -35 9 -58q0 -42 -24 -42q-19 0 -32 21q-76 118 -241 205q-169 89 -298 89t-224.5 -36t-169.5 -102q-155 -140 -181 -365h876q28 0 46 -5t18 -27.5t-5.5 -35t-16.5 -18.5q-18 -11 -61 -11h-862q2 -97 19 -193h692q28 0 46.5 -5t18.5 -27.5t-5.5 -35t-16.5 -18.5 q-18 -11 -62 -11h-649q72 -228 241 -358q161 -123 362 -123q149 0 279 82q135 84 188 221q10 26 18 42.5t25 16.5q27 0 27 -43.5t-22.5 -97t-63 -103t-96 -92t-122.5 -74.5q-144 -67 -299.5 -67t-288.5 43.5t-234 121.5q-206 161 -263 431h-156q-28 0 -45 6.5t-17 29z" />
<glyph unicode="&#x2122;" horiz-adv-x="2729" d="M121 1293.5q0 15.5 7 38.5q42 151 48 188q8 50 24 50q11 0 23.5 -16t17 -19t13.5 -5q19 -3 54 -3h661q44 0 64.5 15t28.5 21.5t14 6.5q19 0 19 -21q0 -8 -5 -19l-13 -29q-36 -80 -49 -146.5t-18.5 -72.5t-11.5 -6q-13 0 -19 30q-25 122 -170 136q-54 6 -115 8v-729 q0 -148 46 -167q14 -5 32 -5l63 7q23 0 23 -21q0 -11 -15.5 -21t-38 -10h-35.5l-25 2q-25 0 -36.5 2t-26 3t-29.5 1l-30 2h-23.5t-23 -0.5t-30.5 -1.5q-32 0 -45 -2t-23.5 -3t-22.5 -1l-26 -2h-35.5t-38 10t-15.5 21q0 21 22 21l64 -7q38 0 53 24q25 43 25 148v730h-49 q-37 0 -63.5 -7t-54.5 -13t-55.5 -23t-50.5 -37q-35 -29 -60 -61t-37 -32t-12 15.5zM1202 1522.5q0 14.5 35 14.5l169 -7h61l421 -656l339 652h51l48 2q45 0 77 5q28 4 80.5 4t52.5 -31q0 -19 -22 -19l-43 6q-39 0 -51 -24q-28 -52 -28 -152v-596q0 -148 48 -167 q14 -5 31 -5l43 5q22 0 22 -19q0 -31 -59 -31q-44 0 -63 3t-30 4t-23 1l-23 2h-21h-23l-30 -2q-32 -1 -48 -3q-37 -5 -87.5 -5t-50.5 31q0 19 23 19l43 -5q38 0 53 24q25 43 25 148v622l-346 -670q-21 -36 -38 -36q-9 0 -17.5 11t-25.5 37l-342 522v-486q0 -148 47 -167 q14 -5 31 -5l44 5q22 0 22 -19q0 -31 -60 -31l-132 10l-122 -10q-60 0 -60 31q0 19 23 19l43 -5q38 0 53 24q25 43 25 148l1 556q0 67 -36 119q-57 80 -107 101q-23 11 -23 25.5z" />
<glyph unicode="&#x25fc;" horiz-adv-x="1010" d="M0 0v1010h1010v-1010h-1010z" />
<glyph unicode="&#xfb01;" horiz-adv-x="1710" d="M91 977q0 42 91 42q49 0 103 -4v109q0 466 265 573q81 33 172.5 33t206.5 -26v-283q0 -31 -23 -31q-11 0 -18 7t-21 49t-36 82.5t-45 65.5q-46 50 -87 48.5t-75.5 -23.5t-59.5 -66q-54 -95 -54 -265v-275l136 3q58 2 94.5 2.5t57.5 -12.5t21 -29q0 -47 -118 -47l-191 4 v-586q0 -140 10 -176.5t21 -59.5q22 -46 93 -46l68 8q32 0 32 -29q0 -17 -30 -31t-64 -14t-49.5 1t-26.5 2t-30 3l-36 4q-16 1 -34 2l-36 2t-33 1t-35 -1l-38 -2q-34 -2 -55 -5q-48 -7 -78 -7q-95 0 -95 45q0 28 33 28l49 -7q59 0 79 52q30 81 30 230v583q-26 -1 -50 -1h-46 q-98 0 -98 47zM985 970q0 39 60 39l145 -12q19 0 37 2l74 8q19 2 37 2t32 -3t23 -16q21 -26 21 -103v-539q0 -140 10 -176.5t21 -59.5q22 -46 85 -46l49 7q32 0 32 -28q0 -45 -99 -45q-29 0 -46.5 2.5t-32.5 3.5l-31 4q-16 1 -34 2l-36 2t-33 1t-34 -1l-38 -2q-35 -2 -56 -5 q-48 -7 -78 -7q-95 0 -95 45q0 28 33 28l49 -7q59 0 79 52q30 81 30 230v291q0 195 -44 253q-20 26 -48.5 34.5t-55 12t-41.5 10t-15 21.5zM1134 1354q0 46 10.5 73.5t30.5 47.5q41 43 92 43t78 -13t45 -35q35 -41 35 -86t-10.5 -71t-29.5 -46.5t-46 -33t-63 -12.5t-63.5 13 t-45.5 34q-33 40 -33 86z" />
<glyph unicode="&#xfb02;" horiz-adv-x="1710" d="M91 977q0 42 91 42q49 0 103 -4v109q0 466 265 573q81 33 172.5 33t206.5 -26v-283q0 -31 -23 -31q-11 0 -18 7t-21 49t-36 82.5t-45 65.5q-46 50 -87 48.5t-75.5 -23.5t-59.5 -66q-54 -95 -54 -265v-275l136 3q58 2 94.5 2.5t57.5 -12.5t21 -29q0 -47 -118 -47l-191 4 v-586q0 -140 10 -176.5t21 -59.5q22 -46 93 -46l68 8q32 0 32 -29q0 -17 -30 -31t-64 -14t-49.5 1t-26.5 2t-30 3l-36 4q-16 1 -34 2l-36 2t-33 1t-35 -1l-38 -2q-34 -2 -55 -5q-48 -7 -78 -7q-95 0 -95 45q0 28 33 28l49 -7q59 0 79 52q30 81 30 230v583q-26 -1 -50 -1h-46 q-98 0 -98 47zM966 1670q0 12 14 21.5t39.5 9.5t45.5 -2l42 -4q57 -6 97 -6q57 0 97.5 7t57 7t28 -3.5t17.5 -15.5q10 -21 10 -104v-1232q0 -132 10 -172t18.5 -62.5t30 -35t42.5 -12.5l52 7q31 0 31 -27q0 -46 -91 -46q-26 0 -65 6q-67 9 -107 9t-57.5 -0.5t-34.5 -2.5 l-34 -2q-17 -2 -36 -4q-43 -6 -72 -6q-100 0 -100 45q0 28 33 28l52 -7q90 0 99 141q4 54 4 141v982q0 203 -46 259q-35 40 -125 48q-52 5 -52 33z" />
</font>
</defs>
</svg>
